<?xml version="1.0" encoding="utf-8" standalone="no"?>
<!DOCTYPE svg PUBLIC "-//W3C//DTD SVG 1.1//EN"
  "http://www.w3.org/Graphics/SVG/1.1/DTD/svg11.dtd">
<svg xmlns:xlink="http://www.w3.org/1999/xlink" width="781.2pt" height="72.54pt" viewBox="0 0 781.2 72.54" xmlns="http://www.w3.org/2000/svg" version="1.1">
 <metadata>
  <rdf:RDF xmlns:dc="http://purl.org/dc/elements/1.1/" xmlns:cc="http://creativecommons.org/ns#" xmlns:rdf="http://www.w3.org/1999/02/22-rdf-syntax-ns#">
   <cc:Work>
    <dc:type rdf:resource="http://purl.org/dc/dcmitype/StillImage"/>
    <dc:date>2025-10-18T13:29:44.165314</dc:date>
    <dc:format>image/svg+xml</dc:format>
    <dc:creator>
     <cc:Agent>
      <dc:title>Matplotlib v3.6.3, https://matplotlib.org/</dc:title>
     </cc:Agent>
    </dc:creator>
   </cc:Work>
  </rdf:RDF>
 </metadata>
 <defs>
  <style type="text/css">*{stroke-linejoin: round; stroke-linecap: butt}</style>
 </defs>
 <g id="figure_1">
  <g id="patch_1">
   <path d="M 0 72.54 
L 781.2 72.54 
L 781.2 0 
L 0 0 
L 0 72.54 
z
" style="fill: none"/>
  </g>
  <g id="axes_1">
   <g id="patch_2">
    <path d="M 4.292308 53.439231 
L 4.721777 53.439209 
L 5.151246 53.439145 
L 5.580716 53.439038 
L 6.010185 53.438888 
L 6.439655 53.438696 
L 6.869124 53.438461 
L 7.298593 53.438183 
L 7.728063 53.437864 
L 8.157532 53.437502 
L 8.587001 53.437098 
L 9.016471 53.436652 
L 9.44594 53.436164 
L 9.875409 53.435635 
L 10.304879 53.435063 
L 10.734348 53.43445 
L 11.163818 53.433796 
L 11.593287 53.4331 
L 12.022756 53.432362 
L 12.452226 53.431584 
L 12.881695 53.430764 
L 13.311164 53.429903 
L 13.740634 53.429001 
L 14.170103 53.428059 
L 14.599572 53.427075 
L 15.029042 53.426051 
L 15.458511 53.424987 
L 15.887981 53.423881 
L 16.31745 53.422736 
L 16.746919 53.42155 
L 17.176389 53.420324 
L 17.605858 53.419058 
L 18.035327 53.417752 
L 18.464797 53.416405 
L 18.894266 53.41502 
L 19.323735 53.413594 
L 19.753205 53.412129 
L 20.182674 53.410624 
L 20.612143 53.40908 
L 21.041613 53.407496 
L 21.471082 53.405873 
L 21.900552 53.404211 
L 22.330021 53.40251 
L 22.75949 53.40077 
L 23.18896 53.398991 
L 23.618429 53.397174 
L 24.047898 53.395318 
L 24.477368 53.393423 
L 24.906837 53.391489 
L 25.336306 53.389518 
L 25.765776 53.387508 
L 26.195245 53.38546 
L 26.624715 53.383373 
L 27.054184 53.381249 
L 27.483653 53.379087 
L 27.913123 53.376887 
L 28.342592 53.374649 
L 28.772061 53.372374 
L 29.201531 53.370061 
L 29.631 53.367711 
L 30.060469 53.365323 
L 30.489939 53.362898 
L 30.919408 53.360436 
L 31.348878 53.357937 
L 31.778347 53.355401 
L 32.207816 53.352828 
L 32.637286 53.350218 
L 33.066755 53.347572 
L 33.496224 53.344889 
L 33.925694 53.34217 
L 34.355163 53.339414 
L 34.784632 53.336622 
L 35.214102 53.333794 
L 35.643571 53.33093 
L 36.073041 53.328029 
L 36.50251 53.325093 
L 36.931979 53.322121 
L 37.361449 53.319114 
L 37.790918 53.31607 
L 38.220387 53.312991 
L 38.649857 53.309877 
L 39.079326 53.306728 
L 39.508795 53.303543 
L 39.938265 53.300323 
L 40.367734 53.297068 
L 40.797204 53.293778 
L 41.226673 53.290453 
L 41.656142 53.287094 
L 42.085612 53.2837 
L 42.515081 53.280271 
L 42.94455 53.276808 
L 43.37402 53.27331 
L 43.803489 53.269778 
L 44.232958 53.266212 
L 44.662428 53.262612 
L 45.091897 53.258978 
L 45.521367 53.25531 
L 45.950836 53.251608 
L 46.380305 53.247872 
L 46.809775 53.244103 
L 47.239244 53.240301 
L 47.668713 53.236465 
L 48.098183 53.232595 
L 48.527652 53.228693 
L 48.957121 53.224757 
L 49.386591 53.220788 
L 49.81606 53.216786 
L 50.24553 53.212752 
L 50.674999 53.208685 
L 51.104468 53.204585 
L 51.533938 53.200452 
L 51.963407 53.196287 
L 52.392876 53.19209 
L 52.822346 53.18786 
L 53.251815 53.183599 
L 53.681284 53.179305 
L 54.110754 53.174979 
L 54.540223 53.170621 
L 54.969693 53.166232 
L 55.399162 53.16181 
L 55.828631 53.157358 
L 56.258101 53.152873 
L 56.68757 53.148358 
L 57.117039 53.14381 
L 57.546509 53.139232 
L 57.975978 53.134623 
L 58.405447 53.129982 
L 58.834917 53.125311 
L 59.264386 53.120609 
L 59.693856 53.115876 
L 60.123325 53.111112 
L 60.552794 53.106318 
L 60.982264 53.101494 
L 61.411733 53.096639 
L 61.841202 53.091754 
L 62.270672 53.086838 
L 62.700141 53.081893 
L 63.12961 53.076917 
L 63.55908 53.071912 
L 63.988549 53.066877 
L 64.418019 53.061812 
L 64.847488 53.056718 
L 65.276957 53.051594 
L 65.706427 53.046441 
L 66.135896 53.041258 
L 66.565365 53.036046 
L 66.994835 53.030805 
L 67.424304 53.025535 
L 67.853773 53.020237 
L 68.283243 53.014909 
L 68.712712 53.009553 
L 69.142182 53.004167 
L 69.571651 52.998754 
L 70.00112 52.993312 
L 70.43059 52.987841 
L 70.860059 52.982343 
L 71.289528 52.976816 
L 71.718998 52.971261 
L 72.148467 52.965678 
L 72.577936 52.960067 
L 73.007406 52.954429 
L 73.436875 52.948763 
L 73.866345 52.943069 
L 74.295814 52.937348 
L 74.725283 52.931599 
L 75.154753 52.925823 
L 75.584222 52.92002 
L 76.013691 52.91419 
L 76.443161 52.908332 
L 76.87263 52.902448 
L 77.302099 52.896537 
L 77.731569 52.890599 
L 78.161038 52.884635 
L 78.590508 52.878644 
L 79.019977 52.872626 
L 79.449446 52.866583 
L 79.878916 52.860513 
L 80.308385 52.854417 
L 80.737854 52.848294 
L 81.167324 52.842146 
L 81.596793 52.835972 
L 82.026262 52.829772 
L 82.455732 52.823547 
L 82.885201 52.817296 
L 83.314671 52.811019 
L 83.74414 52.804717 
L 84.173609 52.79839 
L 84.603079 52.792038 
L 85.032548 52.78566 
L 85.462017 52.779258 
L 85.891487 52.77283 
L 86.320956 52.766378 
L 86.750425 52.759901 
L 87.179895 52.753399 
L 87.609364 52.746873 
L 88.038834 52.740322 
L 88.468303 52.733748 
L 88.897772 52.727148 
L 89.327242 52.720525 
L 89.756711 52.713878 
L 90.18618 52.707206 
L 90.61565 52.700511 
L 91.045119 52.693792 
L 91.474588 52.687049 
L 91.904058 52.680283 
L 92.333527 52.673494 
L 92.762997 52.66668 
L 93.192466 52.659844 
L 93.621935 52.652985 
L 94.051405 52.646102 
L 94.480874 52.639196 
L 94.910343 52.632268 
L 95.339813 52.625316 
L 95.769282 52.618342 
L 96.198751 52.611345 
L 96.628221 52.604326 
L 97.05769 52.597285 
L 97.48716 52.590221 
L 97.916629 52.583134 
L 98.346098 52.576026 
L 98.775568 52.568896 
L 99.205037 52.561743 
L 99.634506 52.554569 
L 100.063976 52.547373 
L 100.493445 52.540155 
L 100.922914 52.532916 
L 101.352384 52.525655 
L 101.781853 52.518373 
L 102.211323 52.51107 
L 102.640792 52.503745 
L 103.070261 52.4964 
L 103.499731 52.489033 
L 103.9292 52.481646 
L 104.358669 52.474237 
L 104.788139 52.466808 
L 105.217608 52.459358 
L 105.647077 52.451888 
L 106.076547 52.444398 
L 106.506016 52.436887 
L 106.935486 52.429356 
L 107.364955 52.421804 
L 107.794424 52.414233 
L 108.223894 52.406642 
L 108.653363 52.399031 
L 109.082832 52.3914 
L 109.512302 52.383749 
L 109.941771 52.376079 
L 110.37124 52.368389 
L 110.80071 52.360681 
L 111.230179 52.352952 
L 111.659649 52.345205 
L 112.089118 52.337438 
L 112.518587 52.329653 
L 112.948057 52.321849 
L 113.377526 52.314025 
L 113.806995 52.306184 
L 114.236465 52.298323 
L 114.665934 52.290444 
L 115.095403 52.282547 
L 115.524873 52.274631 
L 115.954342 52.266697 
L 116.383812 52.258745 
L 116.813281 52.250775 
L 117.24275 52.242787 
L 117.67222 52.234781 
L 118.101689 52.226757 
L 118.531158 52.218716 
L 118.960628 52.210657 
L 119.390097 52.202581 
L 119.819566 52.194487 
L 120.249036 52.186376 
L 120.678505 52.178248 
L 121.107975 52.170103 
L 121.537444 52.161941 
L 121.966913 52.153762 
L 122.396383 52.145566 
L 122.825852 52.137353 
L 123.255321 52.129124 
L 123.684791 52.120878 
L 124.11426 52.112616 
L 124.543729 52.104338 
L 124.973199 52.096043 
L 125.402668 52.087733 
L 125.832138 52.079406 
L 126.261607 52.071063 
L 126.691076 52.062705 
L 127.120546 52.05433 
L 127.550015 52.04594 
L 127.979484 52.037535 
L 128.408954 52.029114 
L 128.838423 52.020678 
L 129.267892 52.012226 
L 129.697362 52.00376 
L 130.126831 51.995278 
L 130.556301 51.986781 
L 130.98577 51.978269 
L 131.415239 51.969743 
L 131.844709 51.961202 
L 132.274178 51.952646 
L 132.703647 51.944076 
L 133.133117 51.935491 
L 133.562586 51.926892 
L 133.992055 51.918279 
L 134.421525 51.909652 
L 134.850994 51.901011 
L 135.280464 51.892356 
L 135.709933 51.883687 
L 136.139402 51.875004 
L 136.568872 51.866307 
L 136.998341 51.857598 
L 137.42781 51.848874 
L 137.85728 51.840137 
L 138.286749 51.831387 
L 138.716218 51.822624 
L 139.145688 51.813848 
L 139.575157 51.805059 
L 140.004627 51.796257 
L 140.434096 51.787442 
L 140.863565 51.778614 
L 141.293035 51.769774 
L 141.722504 51.760922 
L 142.151973 51.752057 
L 142.581443 51.743179 
L 143.010912 51.73429 
L 143.440381 51.725388 
L 143.869851 51.716475 
L 144.29932 51.707549 
L 144.728789 51.698612 
L 145.158259 51.689663 
L 145.587728 51.680702 
L 146.017198 51.67173 
L 146.446667 51.662746 
L 146.876136 51.653751 
L 147.305606 51.644745 
L 147.735075 51.635727 
L 148.164544 51.626699 
L 148.594014 51.617659 
L 149.023483 51.608609 
L 149.452952 51.599548 
L 149.882422 51.590476 
L 150.311891 51.581393 
L 150.741361 51.572301 
L 151.17083 51.563197 
L 151.600299 51.554084 
L 152.029769 51.54496 
L 152.459238 51.535826 
L 152.888707 51.526682 
L 153.318177 51.517528 
L 153.747646 51.508365 
L 154.177115 51.499191 
L 154.606585 51.490009 
L 155.036054 51.480816 
L 155.465524 51.471614 
L 155.894993 51.462403 
L 156.324462 51.453182 
L 156.753932 51.443953 
L 157.183401 51.434714 
L 157.61287 51.425466 
L 158.04234 51.41621 
L 158.471809 51.406945 
L 158.901278 51.397671 
L 159.330748 51.388388 
L 159.760217 51.379097 
L 160.189687 51.369798 
L 160.619156 51.36049 
L 161.048625 51.351174 
L 161.478095 51.34185 
L 161.907564 51.332518 
L 162.337033 51.323178 
L 162.766503 51.313831 
L 163.195972 51.304475 
L 163.625441 51.295112 
L 164.054911 51.285742 
L 164.48438 51.276364 
L 164.91385 51.266978 
L 165.343319 51.257586 
L 165.772788 51.248186 
L 166.202258 51.238779 
L 166.631727 51.229366 
L 167.061196 51.219945 
L 167.490666 51.210518 
L 167.920135 51.201084 
L 168.349604 51.191643 
L 168.779074 51.182196 
L 169.208543 51.172743 
L 169.638013 51.163283 
L 170.067482 51.153818 
L 170.496951 51.144346 
L 170.926421 51.134868 
L 171.35589 51.125384 
L 171.785359 51.115894 
L 172.214829 51.106399 
L 172.644298 51.096898 
L 173.073767 51.087391 
L 173.503237 51.077879 
L 173.932706 51.068362 
L 174.362176 51.05884 
L 174.791645 51.049312 
L 175.221114 51.03978 
L 175.650584 51.030242 
L 176.080053 51.0207 
L 176.509522 51.011152 
L 176.938992 51.001601 
L 177.368461 50.992044 
L 177.79793 50.982483 
L 178.2274 50.972918 
L 178.656869 50.963349 
L 179.086339 50.953775 
L 179.515808 50.944197 
L 179.945277 50.934615 
L 180.374747 50.92503 
L 180.804216 50.91544 
L 181.233685 50.905847 
L 181.663155 50.89625 
L 182.092624 50.88665 
L 182.522093 50.877046 
L 182.951563 50.867439 
L 183.381032 50.857829 
L 183.810502 50.848216 
L 184.239971 50.838599 
L 184.66944 50.82898 
L 185.09891 50.819358 
L 185.528379 50.809733 
L 185.957848 50.800105 
L 186.387318 50.790475 
L 186.816787 50.780842 
L 187.246256 50.771207 
L 187.675726 50.76157 
L 188.105195 50.751931 
L 188.534665 50.742289 
L 188.964134 50.732646 
L 189.393603 50.723 
L 189.823073 50.713353 
L 190.252542 50.703705 
L 190.682011 50.694054 
L 191.111481 50.684402 
L 191.54095 50.674749 
L 191.970419 50.665094 
L 192.399889 50.655438 
L 192.829358 50.645781 
L 193.258828 50.636123 
L 193.688297 50.626464 
L 194.117766 50.616804 
L 194.547236 50.607144 
L 194.976705 50.597483 
L 195.406174 50.587821 
L 195.835644 50.578159 
L 196.265113 50.568496 
L 196.694582 50.558833 
L 197.124052 50.54917 
L 197.553521 50.539507 
L 197.982991 50.529844 
L 198.41246 50.520181 
L 198.841929 50.510519 
L 199.271399 50.500856 
L 199.700868 50.491194 
L 200.130337 50.481533 
L 200.559807 50.471872 
L 200.989276 50.462212 
L 201.418745 50.452552 
L 201.848215 50.442894 
L 202.277684 50.433236 
L 202.707154 50.42358 
L 203.136623 50.413925 
L 203.566092 50.404271 
L 203.995562 50.394618 
L 204.425031 50.384967 
L 204.8545 50.375317 
L 205.28397 50.365669 
L 205.713439 50.356023 
L 206.142908 50.346378 
L 206.572378 50.336736 
L 207.001847 50.327095 
L 207.431317 50.317457 
L 207.860786 50.307821 
L 208.290255 50.298187 
L 208.719725 50.288556 
L 209.149194 50.278927 
L 209.578663 50.269301 
L 210.008133 50.259677 
L 210.437602 50.250056 
L 210.867071 50.240438 
L 211.296541 50.230823 
L 211.72601 50.221212 
L 212.15548 50.211603 
L 212.584949 50.201998 
L 213.014418 50.192396 
L 213.443888 50.182797 
L 213.873357 50.173202 
L 214.302826 50.163611 
L 214.732296 50.154023 
L 215.161765 50.14444 
L 215.591234 50.13486 
L 216.020704 50.125284 
L 216.450173 50.115712 
L 216.879643 50.106145 
L 217.309112 50.096582 
L 217.738581 50.087023 
L 218.168051 50.077469 
L 218.59752 50.06792 
L 219.026989 50.058375 
L 219.456459 50.048835 
L 219.885928 50.0393 
L 220.315397 50.02977 
L 220.744867 50.020244 
L 221.174336 50.010725 
L 221.603806 50.00121 
L 222.033275 49.991701 
L 222.462744 49.982197 
L 222.892214 49.972699 
L 223.321683 49.963206 
L 223.751152 49.95372 
L 224.180622 49.944239 
L 224.610091 49.934764 
L 225.03956 49.925295 
L 225.46903 49.915832 
L 225.898499 49.906376 
L 226.327969 49.896925 
L 226.757438 49.887482 
L 227.186907 49.878044 
L 227.616377 49.868614 
L 228.045846 49.85919 
L 228.475315 49.849773 
L 228.904785 49.840362 
L 229.334254 49.830959 
L 229.763723 49.821563 
L 230.193193 49.812174 
L 230.622662 49.802792 
L 231.052132 49.793418 
L 231.481601 49.784051 
L 231.91107 49.774692 
L 232.34054 49.765341 
L 232.770009 49.755997 
L 233.199478 49.746661 
L 233.628948 49.737333 
L 234.058417 49.728013 
L 234.487886 49.718701 
L 234.917356 49.709398 
L 235.346825 49.700102 
L 235.776295 49.690816 
L 236.205764 49.681537 
L 236.635233 49.672268 
L 237.064703 49.663007 
L 237.494172 49.653755 
L 237.923641 49.644512 
L 238.353111 49.635277 
L 238.78258 49.626052 
L 239.212049 49.616836 
L 239.641519 49.60763 
L 240.070988 49.598433 
L 240.500458 49.589245 
L 240.929927 49.580067 
L 241.359396 49.570898 
L 241.788866 49.56174 
L 242.218335 49.552591 
L 242.647804 49.543452 
L 243.077274 49.534323 
L 243.506743 49.525204 
L 243.936212 49.516096 
L 244.365682 49.506998 
L 244.795151 49.49791 
L 245.224621 49.488833 
L 245.65409 49.479767 
L 246.083559 49.470711 
L 246.513029 49.461666 
L 246.942498 49.452632 
L 247.371967 49.443609 
L 247.801437 49.434597 
L 248.230906 49.425596 
L 248.660375 49.416607 
L 249.089845 49.407629 
L 249.519314 49.398662 
L 249.948784 49.389708 
L 250.378253 49.380764 
L 250.807722 49.371833 
L 251.237192 49.362913 
L 251.666661 49.354006 
L 252.09613 49.34511 
L 252.5256 49.336227 
L 252.955069 49.327355 
L 253.384538 49.318497 
L 253.814008 49.30965 
L 254.243477 49.300816 
L 254.672947 49.291995 
L 255.102416 49.283187 
L 255.531885 49.274391 
L 255.961355 49.265608 
L 256.390824 49.256839 
L 256.820293 49.248082 
L 257.249763 49.239339 
L 257.679232 49.230609 
L 258.108701 49.221892 
L 258.538171 49.213189 
L 258.96764 49.204499 
L 259.39711 49.195823 
L 259.826579 49.187161 
L 260.256048 49.178513 
L 260.685518 49.169879 
L 261.114987 49.161259 
L 261.544456 49.152653 
L 261.973926 49.144061 
L 262.403395 49.135483 
L 262.832864 49.12692 
L 263.262334 49.118372 
L 263.691803 49.109838 
L 264.121273 49.101319 
L 264.550742 49.092815 
L 264.980211 49.084326 
L 265.409681 49.075851 
L 265.83915 49.067392 
L 266.268619 49.058948 
L 266.698089 49.05052 
L 267.127558 49.042107 
L 267.557027 49.033709 
L 267.986497 49.025327 
L 268.415966 49.01696 
L 268.845435 49.00861 
L 269.274905 49.000275 
L 269.704374 48.991956 
L 270.133844 48.983654 
L 270.563313 48.975367 
L 270.992782 48.967097 
L 271.422252 48.958843 
L 271.851721 48.950606 
L 272.28119 48.942385 
L 272.71066 48.93418 
L 273.140129 48.925993 
L 273.569598 48.917822 
L 273.999068 48.909669 
L 274.428537 48.901532 
L 274.858007 48.893412 
L 275.287476 48.88531 
L 275.716945 48.877225 
L 276.146415 48.869158 
L 276.575884 48.861107 
L 277.005353 48.853075 
L 277.434823 48.84506 
L 277.864292 48.837063 
L 278.293761 48.829084 
L 278.723231 48.821123 
L 279.1527 48.81318 
L 279.58217 48.805255 
L 280.011639 48.797349 
L 280.441108 48.78946 
L 280.870578 48.781591 
L 281.300047 48.773739 
L 281.729516 48.765907 
L 282.158986 48.758093 
L 282.588455 48.750298 
L 283.017924 48.742522 
L 283.447394 48.734765 
L 283.876863 48.727027 
L 284.306333 48.719309 
L 284.735802 48.711609 
L 285.165271 48.70393 
L 285.594741 48.696269 
L 286.02421 48.688629 
L 286.453679 48.681008 
L 286.883149 48.673406 
L 287.312618 48.665825 
L 287.742087 48.658264 
L 288.171557 48.650722 
L 288.601026 48.643201 
L 289.030496 48.635701 
L 289.459965 48.62822 
L 289.889434 48.62076 
L 290.318904 48.613321 
L 290.748373 48.605902 
L 291.177842 48.598504 
L 291.607312 48.591127 
L 292.036781 48.583771 
L 292.46625 48.576436 
L 292.89572 48.569122 
L 293.325189 48.561829 
L 293.754659 48.554558 
L 294.184128 48.547308 
L 294.613597 48.540079 
L 295.043067 48.532873 
L 295.472536 48.525687 
L 295.902005 48.518524 
L 296.331475 48.511383 
L 296.760944 48.504263 
L 297.190413 48.497166 
L 297.619883 48.490091 
L 298.049352 48.483038 
L 298.478822 48.476007 
L 298.908291 48.468999 
L 299.33776 48.462014 
L 299.76723 48.455051 
L 300.196699 48.448111 
L 300.626168 48.441194 
L 301.055638 48.4343 
L 301.485107 48.427429 
L 301.914576 48.420581 
L 302.344046 48.413756 
L 302.773515 48.406955 
L 303.202985 48.400177 
L 303.632454 48.393422 
L 304.061923 48.386692 
L 304.491393 48.379984 
L 304.920862 48.373301 
L 305.350331 48.366642 
L 305.779801 48.360006 
L 306.20927 48.353395 
L 306.638739 48.346808 
L 307.068209 48.340245 
L 307.497678 48.333707 
L 307.927148 48.327193 
L 308.356617 48.320704 
L 308.786086 48.314239 
L 309.215556 48.307799 
L 309.645025 48.301384 
L 310.074494 48.294994 
L 310.503964 48.288629 
L 310.933433 48.282289 
L 311.362902 48.275975 
L 311.792372 48.269685 
L 312.221841 48.263422 
L 312.651311 48.257183 
L 313.08078 48.250971 
L 313.510249 48.244784 
L 313.939719 48.238623 
L 314.369188 48.232487 
L 314.798657 48.226378 
L 315.228127 48.220295 
L 315.657596 48.214238 
L 316.087065 48.208208 
L 316.516535 48.202204 
L 316.946004 48.196226 
L 317.375474 48.190275 
L 317.804943 48.18435 
L 318.234412 48.178453 
L 318.663882 48.172582 
L 319.093351 48.166738 
L 319.52282 48.160921 
L 319.95229 48.155132 
L 320.381759 48.149369 
L 320.811228 48.143634 
L 321.240698 48.137927 
L 321.670167 48.132247 
L 322.099637 48.126594 
L 322.529106 48.12097 
L 322.958575 48.115373 
L 323.388045 48.109804 
L 323.817514 48.104263 
L 324.246983 48.098751 
L 324.676453 48.093266 
L 325.105922 48.08781 
L 325.535391 48.082382 
L 325.964861 48.076983 
L 326.39433 48.071612 
L 326.8238 48.06627 
L 327.253269 48.060956 
L 327.682738 48.055672 
L 328.112208 48.050417 
L 328.541677 48.04519 
L 328.971146 48.039993 
L 329.400616 48.034825 
L 329.830085 48.029687 
L 330.259554 48.024577 
L 330.689024 48.019498 
L 331.118493 48.014448 
L 331.547963 48.009428 
L 331.977432 48.004437 
L 332.406901 47.999477 
L 332.836371 47.994547 
L 333.26584 47.989646 
L 333.695309 47.984776 
L 334.124779 47.979936 
L 334.554248 47.975127 
L 334.983717 47.970348 
L 335.413187 47.9656 
L 335.842656 47.960882 
L 336.272126 47.956196 
L 336.701595 47.95154 
L 337.131064 47.946915 
L 337.560534 47.942321 
L 337.990003 47.937758 
L 338.419472 47.933227 
L 338.848942 47.928727 
L 339.278411 47.924258 
L 339.70788 47.919821 
L 340.13735 47.915416 
L 340.566819 47.911042 
L 340.996289 47.9067 
L 341.425758 47.902391 
L 341.855227 47.898113 
L 342.284697 47.893867 
L 342.714166 47.889654 
L 343.143635 47.885472 
L 343.573105 47.881324 
L 344.002574 47.877207 
L 344.432043 47.873124 
L 344.861513 47.869073 
L 345.290982 47.865055 
L 345.720452 47.861069 
L 346.149921 47.857117 
L 346.57939 47.853198 
L 347.00886 47.849312 
L 347.438329 47.845459 
L 347.867798 47.84164 
L 348.297268 47.837854 
L 348.726737 47.834102 
L 349.156206 47.830383 
L 349.585676 47.826698 
L 350.015145 47.823047 
L 350.444615 47.81943 
L 350.874084 47.815847 
L 351.303553 47.812298 
L 351.733023 47.808783 
L 352.162492 47.805303 
L 352.591961 47.801857 
L 353.021431 47.798445 
L 353.4509 47.795068 
L 353.880369 47.791726 
L 354.309839 47.788419 
L 354.739308 47.785146 
L 355.168778 47.781909 
L 355.598247 47.778706 
L 356.027716 47.775539 
L 356.457186 47.772407 
L 356.886655 47.769311 
L 357.316124 47.76625 
L 357.745594 47.763224 
L 358.175063 47.760234 
L 358.604532 47.75728 
L 359.034002 47.754362 
L 359.463471 47.75148 
L 359.892941 47.748634 
L 360.32241 47.745823 
L 360.751879 47.74305 
L 361.181349 47.740312 
L 361.610818 47.737611 
L 362.040287 47.734946 
L 362.469757 47.732318 
L 362.899226 47.729727 
L 363.328695 47.727173 
L 363.758165 47.724655 
L 364.187634 47.722175 
L 364.617104 47.719731 
L 365.046573 47.717325 
L 365.476042 47.714956 
L 365.905512 47.712624 
L 366.334981 47.71033 
L 366.76445 47.708074 
L 367.19392 47.705855 
L 367.623389 47.703674 
L 368.052858 47.70153 
L 368.482328 47.699425 
L 368.911797 47.697358 
L 369.341267 47.695329 
L 369.770736 47.693338 
L 370.200205 47.691385 
L 370.629675 47.689471 
L 371.059144 47.687596 
L 371.488613 47.685759 
L 371.918083 47.68396 
L 372.347552 47.682201 
L 372.777021 47.68048 
L 373.206491 47.678799 
L 373.63596 47.677157 
L 374.06543 47.675553 
L 374.494899 47.673989 
L 374.924368 47.672465 
L 375.353838 47.67098 
L 375.783307 47.669534 
L 376.212776 47.668129 
L 376.642246 47.666763 
L 377.071715 47.665437 
L 377.501184 47.66415 
L 377.930654 47.662904 
L 378.360123 47.661698 
L 378.789593 47.660533 
L 379.219062 47.659407 
L 379.648531 47.658322 
L 380.078001 47.657278 
L 380.50747 47.656274 
L 380.936939 47.655311 
L 381.366409 47.654389 
L 381.795878 47.653507 
L 382.225347 47.652667 
L 382.654817 47.651868 
L 383.084286 47.65111 
L 383.513756 47.650393 
L 383.943225 47.649718 
L 384.372694 47.649084 
L 384.802164 47.648492 
L 385.231633 47.647941 
L 385.661102 47.647433 
L 386.090572 47.646966 
L 386.520041 47.646541 
L 386.94951 47.646158 
L 387.37898 47.645817 
L 387.808449 47.645519 
L 388.237919 47.645263 
L 388.667388 47.645049 
L 389.096857 47.644878 
L 389.526327 47.644749 
L 389.955796 47.644664 
L 390.385265 47.644621 
L 390.814735 47.644627 
L 391.244204 47.644722 
L 391.673673 47.644912 
L 392.103143 47.645196 
L 392.532612 47.645574 
L 392.962081 47.646046 
L 393.391551 47.646612 
L 393.82102 47.647271 
L 394.25049 47.648023 
L 394.679959 47.648869 
L 395.109428 47.649807 
L 395.538898 47.650837 
L 395.968367 47.65196 
L 396.397836 47.653175 
L 396.827306 47.654482 
L 397.256775 47.65588 
L 397.686244 47.657369 
L 398.115714 47.65895 
L 398.545183 47.660621 
L 398.974653 47.662383 
L 399.404122 47.664235 
L 399.833591 47.666177 
L 400.263061 47.668209 
L 400.69253 47.670331 
L 401.121999 47.672542 
L 401.551469 47.674842 
L 401.980938 47.677232 
L 402.410407 47.679709 
L 402.839877 47.682275 
L 403.269346 47.68493 
L 403.698816 47.687672 
L 404.128285 47.690502 
L 404.557754 47.693419 
L 404.987224 47.696423 
L 405.416693 47.699515 
L 405.846162 47.702693 
L 406.275632 47.705958 
L 406.705101 47.709308 
L 407.13457 47.712745 
L 407.56404 47.716268 
L 407.993509 47.719876 
L 408.422979 47.723569 
L 408.852448 47.727348 
L 409.281917 47.731211 
L 409.711387 47.735159 
L 410.140856 47.739191 
L 410.570325 47.743307 
L 410.999795 47.747507 
L 411.429264 47.75179 
L 411.858733 47.756157 
L 412.288203 47.760607 
L 412.717672 47.76514 
L 413.147142 47.769755 
L 413.576611 47.774453 
L 414.00608 47.779233 
L 414.43555 47.784095 
L 414.865019 47.789038 
L 415.294488 47.794063 
L 415.723958 47.799169 
L 416.153427 47.804357 
L 416.582896 47.809624 
L 417.012366 47.814972 
L 417.441835 47.820401 
L 417.871305 47.825909 
L 418.300774 47.831497 
L 418.730243 47.837165 
L 419.159713 47.842912 
L 419.589182 47.848738 
L 420.018651 47.854642 
L 420.448121 47.860626 
L 420.87759 47.866687 
L 421.307059 47.872827 
L 421.736529 47.879044 
L 422.165998 47.885339 
L 422.595468 47.891711 
L 423.024937 47.89816 
L 423.454406 47.904686 
L 423.883876 47.911289 
L 424.313345 47.917968 
L 424.742814 47.924724 
L 425.172284 47.931555 
L 425.601753 47.938461 
L 426.031222 47.945444 
L 426.460692 47.952501 
L 426.890161 47.959633 
L 427.319631 47.96684 
L 427.7491 47.974121 
L 428.178569 47.981477 
L 428.608039 47.988906 
L 429.037508 47.99641 
L 429.466977 48.003986 
L 429.896447 48.011636 
L 430.325916 48.019359 
L 430.755385 48.027155 
L 431.184855 48.035023 
L 431.614324 48.042964 
L 432.043794 48.050976 
L 432.473263 48.05906 
L 432.902732 48.067216 
L 433.332202 48.075443 
L 433.761671 48.083742 
L 434.19114 48.092111 
L 434.62061 48.10055 
L 435.050079 48.10906 
L 435.479548 48.11764 
L 435.909018 48.12629 
L 436.338487 48.13501 
L 436.767957 48.143799 
L 437.197426 48.152657 
L 437.626895 48.161584 
L 438.056365 48.17058 
L 438.485834 48.179644 
L 438.915303 48.188776 
L 439.344773 48.197976 
L 439.774242 48.207244 
L 440.203711 48.216579 
L 440.633181 48.225982 
L 441.06265 48.235452 
L 441.49212 48.244988 
L 441.921589 48.254591 
L 442.351058 48.26426 
L 442.780528 48.273995 
L 443.209997 48.283796 
L 443.639466 48.293662 
L 444.068936 48.303594 
L 444.498405 48.31359 
L 444.927874 48.323652 
L 445.357344 48.333778 
L 445.786813 48.343968 
L 446.216283 48.354223 
L 446.645752 48.364541 
L 447.075221 48.374923 
L 447.504691 48.385369 
L 447.93416 48.395877 
L 448.363629 48.406448 
L 448.793099 48.417082 
L 449.222568 48.427779 
L 449.652037 48.438537 
L 450.081507 48.449358 
L 450.510976 48.46024 
L 450.940446 48.471184 
L 451.369915 48.482188 
L 451.799384 48.493254 
L 452.228854 48.504381 
L 452.658323 48.515568 
L 453.087792 48.526815 
L 453.517262 48.538122 
L 453.946731 48.549489 
L 454.3762 48.560915 
L 454.80567 48.572401 
L 455.235139 48.583946 
L 455.664609 48.59555 
L 456.094078 48.607212 
L 456.523547 48.618932 
L 456.953017 48.630711 
L 457.382486 48.642547 
L 457.811955 48.654441 
L 458.241425 48.666392 
L 458.670894 48.678401 
L 459.100363 48.690466 
L 459.529833 48.702588 
L 459.959302 48.714766 
L 460.388772 48.727 
L 460.818241 48.739291 
L 461.24771 48.751637 
L 461.67718 48.764038 
L 462.106649 48.776495 
L 462.536118 48.789006 
L 462.965588 48.801573 
L 463.395057 48.814193 
L 463.824526 48.826868 
L 464.253996 48.839597 
L 464.683465 48.85238 
L 465.112935 48.865216 
L 465.542404 48.878105 
L 465.971873 48.891048 
L 466.401343 48.904043 
L 466.830812 48.917091 
L 467.260281 48.930191 
L 467.689751 48.943343 
L 468.11922 48.956547 
L 468.548689 48.969802 
L 468.978159 48.983109 
L 469.407628 48.996467 
L 469.837098 49.009875 
L 470.266567 49.023335 
L 470.696036 49.036845 
L 471.125506 49.050404 
L 471.554975 49.064014 
L 471.984444 49.077674 
L 472.413914 49.091382 
L 472.843383 49.10514 
L 473.272852 49.118947 
L 473.702322 49.132803 
L 474.131791 49.146707 
L 474.561261 49.160659 
L 474.99073 49.174659 
L 475.420199 49.188707 
L 475.849669 49.202803 
L 476.279138 49.216945 
L 476.708607 49.231135 
L 477.138077 49.245371 
L 477.567546 49.259654 
L 477.997015 49.273983 
L 478.426485 49.288359 
L 478.855954 49.30278 
L 479.285424 49.317246 
L 479.714893 49.331758 
L 480.144362 49.346315 
L 480.573832 49.360917 
L 481.003301 49.375563 
L 481.43277 49.390254 
L 481.86224 49.404989 
L 482.291709 49.419768 
L 482.721178 49.43459 
L 483.150648 49.449456 
L 483.580117 49.464365 
L 484.009587 49.479316 
L 484.439056 49.494311 
L 484.868525 49.509348 
L 485.297995 49.524427 
L 485.727464 49.539548 
L 486.156933 49.554711 
L 486.586403 49.569915 
L 487.015872 49.58516 
L 487.445341 49.600447 
L 487.874811 49.615774 
L 488.30428 49.631142 
L 488.73375 49.64655 
L 489.163219 49.661998 
L 489.592688 49.677485 
L 490.022158 49.693013 
L 490.451627 49.708579 
L 490.881096 49.724185 
L 491.310566 49.739829 
L 491.740035 49.755512 
L 492.169504 49.771234 
L 492.598974 49.786993 
L 493.028443 49.80279 
L 493.457913 49.818625 
L 493.887382 49.834498 
L 494.316851 49.850407 
L 494.746321 49.866353 
L 495.17579 49.882336 
L 495.605259 49.898356 
L 496.034729 49.914411 
L 496.464198 49.930503 
L 496.893667 49.94663 
L 497.323137 49.962792 
L 497.752606 49.97899 
L 498.182076 49.995223 
L 498.611545 50.011491 
L 499.041014 50.027793 
L 499.470484 50.044129 
L 499.899953 50.060499 
L 500.329422 50.076903 
L 500.758892 50.093341 
L 501.188361 50.109811 
L 501.61783 50.126315 
L 502.0473 50.142852 
L 502.476769 50.159421 
L 502.906239 50.176023 
L 503.335708 50.192656 
L 503.765177 50.209322 
L 504.194647 50.226019 
L 504.624116 50.242747 
L 505.053585 50.259507 
L 505.483055 50.276297 
L 505.912524 50.293118 
L 506.341993 50.309969 
L 506.771463 50.326851 
L 507.200932 50.343762 
L 507.630402 50.360704 
L 508.059871 50.377674 
L 508.48934 50.394674 
L 508.91881 50.411703 
L 509.348279 50.42876 
L 509.777748 50.445846 
L 510.207218 50.46296 
L 510.636687 50.480102 
L 511.066156 50.497272 
L 511.495626 50.51447 
L 511.925095 50.531694 
L 512.354565 50.548946 
L 512.784034 50.566224 
L 513.213503 50.583529 
L 513.642973 50.60086 
L 514.072442 50.618218 
L 514.501911 50.635601 
L 514.931381 50.65301 
L 515.36085 50.670444 
L 515.790319 50.687903 
L 516.219789 50.705387 
L 516.649258 50.722896 
L 517.078727 50.740429 
L 517.508197 50.757986 
L 517.937666 50.775567 
L 518.367136 50.793172 
L 518.796605 50.8108 
L 519.226074 50.828451 
L 519.655544 50.846125 
L 520.085013 50.863822 
L 520.514482 50.881542 
L 520.943952 50.899283 
L 521.373421 50.917047 
L 521.80289 50.934832 
L 522.23236 50.952639 
L 522.661829 50.970467 
L 523.091299 50.988316 
L 523.520768 51.006186 
L 523.950237 51.024076 
L 524.379707 51.041987 
L 524.809176 51.059917 
L 525.238645 51.077868 
L 525.668115 51.095838 
L 526.097584 51.113827 
L 526.527053 51.131835 
L 526.956523 51.149863 
L 527.385992 51.167909 
L 527.815462 51.185973 
L 528.244931 51.204055 
L 528.6744 51.222155 
L 529.10387 51.240273 
L 529.533339 51.258408 
L 529.962808 51.276561 
L 530.392278 51.29473 
L 530.821747 51.312916 
L 531.251216 51.331119 
L 531.680686 51.349337 
L 532.110155 51.367572 
L 532.539625 51.385822 
L 532.969094 51.404088 
L 533.398563 51.422369 
L 533.828033 51.440665 
L 534.257502 51.458976 
L 534.686971 51.477301 
L 535.116441 51.49564 
L 535.54591 51.513994 
L 535.975379 51.532361 
L 536.404849 51.550742 
L 536.834318 51.569136 
L 537.263788 51.587543 
L 537.693257 51.605963 
L 538.122726 51.624396 
L 538.552196 51.642841 
L 538.981665 51.661298 
L 539.411134 51.679767 
L 539.840604 51.698248 
L 540.270073 51.71674 
L 540.699542 51.735243 
L 541.129012 51.753757 
L 541.558481 51.772281 
L 541.987951 51.790816 
L 542.41742 51.809362 
L 542.846889 51.827917 
L 543.276359 51.846482 
L 543.705828 51.865056 
L 544.135297 51.883639 
L 544.564767 51.902232 
L 544.994236 51.920833 
L 545.423705 51.939443 
L 545.853175 51.958061 
L 546.282644 51.976687 
L 546.712114 51.995321 
L 547.141583 52.013962 
L 547.571052 52.03261 
L 548.000522 52.051266 
L 548.429991 52.069928 
L 548.85946 52.088597 
L 549.28893 52.107273 
L 549.718399 52.125954 
L 550.147868 52.144641 
L 550.577338 52.163334 
L 551.006807 52.182032 
L 551.436277 52.200736 
L 551.865746 52.219444 
L 552.295215 52.238157 
L 552.724685 52.256874 
L 553.154154 52.275596 
L 553.583623 52.294321 
L 554.013093 52.31305 
L 554.442562 52.331782 
L 554.872031 52.350518 
L 555.301501 52.369257 
L 555.73097 52.387998 
L 556.16044 52.406742 
L 556.589909 52.425488 
L 557.019378 52.444236 
L 557.448848 52.462985 
L 557.878317 52.481737 
L 558.307786 52.500489 
L 558.737256 52.519243 
L 559.166725 52.537997 
L 559.596194 52.556752 
L 560.025664 52.575507 
L 560.455133 52.594263 
L 560.884603 52.613018 
L 561.314072 52.631772 
L 561.743541 52.650526 
L 562.173011 52.66928 
L 562.60248 52.688032 
L 563.031949 52.706782 
L 563.461419 52.725531 
L 563.890888 52.744279 
L 564.320357 52.763024 
L 564.749827 52.781766 
L 565.179296 52.800506 
L 565.608766 52.819244 
L 566.038235 52.837978 
L 566.467704 52.856709 
L 566.897174 52.875436 
L 567.326643 52.89416 
L 567.756112 52.91288 
L 568.185582 52.931595 
L 568.615051 52.950306 
L 569.04452 52.969012 
L 569.47399 52.987713 
L 569.903459 53.006409 
L 570.332929 53.025099 
L 570.762398 53.043784 
L 571.191867 53.062463 
L 571.621337 53.081135 
L 572.050806 53.099802 
L 572.480275 53.118461 
L 572.909745 53.137114 
L 573.339214 53.155759 
L 573.768683 53.174397 
L 574.198153 53.193027 
L 574.627622 53.21165 
L 575.057092 53.230264 
L 575.486561 53.24887 
L 575.91603 53.267468 
L 576.3455 53.286056 
L 576.774969 53.304636 
L 577.204438 53.323206 
L 577.633908 53.341767 
L 578.063377 53.360317 
L 578.492846 53.378858 
L 578.922316 53.397389 
L 579.351785 53.415909 
L 579.781255 53.434418 
L 580.210724 53.452916 
L 580.640193 53.471403 
L 581.069663 53.489879 
L 581.499132 53.508342 
L 581.928601 53.526794 
L 582.358071 53.545234 
L 582.78754 53.563661 
L 583.217009 53.582075 
L 583.646479 53.600477 
L 584.075948 53.618865 
L 584.505418 53.63724 
L 584.934887 53.655602 
L 585.364356 53.673949 
L 585.793826 53.692282 
L 586.223295 53.710601 
L 586.652764 53.728905 
L 587.082234 53.747195 
L 587.511703 53.765469 
L 587.941172 53.783728 
L 588.370642 53.801972 
L 588.800111 53.820199 
L 589.229581 53.838411 
L 589.65905 53.856606 
L 590.088519 53.874785 
L 590.517989 53.892947 
L 590.947458 53.911092 
L 591.376927 53.929219 
L 591.806397 53.947329 
L 592.235866 53.965422 
L 592.665335 53.983496 
L 593.094805 54.001552 
L 593.524274 54.01959 
L 593.953744 54.037609 
L 594.383213 54.055609 
L 594.812682 54.07359 
L 595.242152 54.091551 
L 595.671621 54.109493 
L 596.10109 54.127415 
L 596.53056 54.145317 
L 596.960029 54.163198 
L 597.389498 54.181059 
L 597.818968 54.198899 
L 598.248437 54.216717 
L 598.677907 54.234515 
L 599.107376 54.252291 
L 599.536845 54.270045 
L 599.966315 54.287776 
L 600.395784 54.305486 
L 600.825253 54.323173 
L 601.254723 54.340837 
L 601.684192 54.358478 
L 602.113661 54.376096 
L 602.543131 54.393691 
L 602.9726 54.411261 
L 603.40207 54.428808 
L 603.831539 54.44633 
L 604.261008 54.463828 
L 604.690478 54.481301 
L 605.119947 54.498749 
L 605.549416 54.516172 
L 605.978886 54.53357 
L 606.408355 54.550942 
L 606.837824 54.568288 
L 607.267294 54.585607 
L 607.696763 54.602901 
L 608.126233 54.620168 
L 608.555702 54.637407 
L 608.985171 54.65462 
L 609.414641 54.671805 
L 609.84411 54.688963 
L 610.273579 54.706093 
L 610.703049 54.723195 
L 611.132518 54.740268 
L 611.561987 54.757313 
L 611.991457 54.774329 
L 612.420926 54.791316 
L 612.850396 54.808274 
L 613.279865 54.825202 
L 613.709334 54.8421 
L 614.138804 54.858969 
L 614.568273 54.875807 
L 614.997742 54.892614 
L 615.427212 54.909391 
L 615.856681 54.926137 
L 616.28615 54.942852 
L 616.71562 54.959535 
L 617.145089 54.976187 
L 617.574559 54.992806 
L 618.004028 55.009393 
L 618.433497 55.025948 
L 618.862967 55.042471 
L 619.292436 55.05896 
L 619.721905 55.075416 
L 620.151375 55.091839 
L 620.580844 55.108228 
L 621.010313 55.124584 
L 621.439783 55.140905 
L 621.869252 55.157192 
L 622.298722 55.173444 
L 622.728191 55.189662 
L 623.15766 55.205844 
L 623.58713 55.221991 
L 624.016599 55.238103 
L 624.446068 55.254178 
L 624.875538 55.270218 
L 625.305007 55.286221 
L 625.734476 55.302188 
L 626.163946 55.318119 
L 626.593415 55.334012 
L 627.022885 55.349868 
L 627.452354 55.365686 
L 627.881823 55.381467 
L 628.311293 55.39721 
L 628.740762 55.412914 
L 629.170231 55.42858 
L 629.599701 55.444208 
L 630.02917 55.459796 
L 630.458639 55.475346 
L 630.888109 55.490855 
L 631.317578 55.506326 
L 631.747048 55.521756 
L 632.176517 55.537146 
L 632.605986 55.552496 
L 633.035456 55.567806 
L 633.464925 55.583074 
L 633.894394 55.598302 
L 634.323864 55.613488 
L 634.753333 55.628632 
L 635.182802 55.643735 
L 635.612272 55.658795 
L 636.041741 55.673814 
L 636.471211 55.688789 
L 636.90068 55.703722 
L 637.330149 55.718612 
L 637.759619 55.733459 
L 638.189088 55.748262 
L 638.618557 55.763022 
L 639.048027 55.777738 
L 639.477496 55.792409 
L 639.906965 55.807036 
L 640.336435 55.821618 
L 640.765904 55.836155 
L 641.195373 55.850647 
L 641.624843 55.865094 
L 642.054312 55.879495 
L 642.483782 55.89385 
L 642.913251 55.908159 
L 643.34272 55.922421 
L 643.77219 55.936637 
L 644.201659 55.950806 
L 644.631128 55.964928 
L 645.060598 55.979003 
L 645.490067 55.99303 
L 645.919536 56.007009 
L 646.349006 56.02094 
L 646.778475 56.034823 
L 647.207945 56.048657 
L 647.637414 56.062442 
L 648.066883 56.076179 
L 648.496353 56.089866 
L 648.925822 56.103504 
L 649.355291 56.117091 
L 649.784761 56.130629 
L 650.21423 56.144117 
L 650.643699 56.157554 
L 651.073169 56.170941 
L 651.502638 56.184276 
L 651.932108 56.19756 
L 652.361577 56.210793 
L 652.791046 56.223974 
L 653.220516 56.237104 
L 653.649985 56.250181 
L 654.079454 56.263206 
L 654.508924 56.276178 
L 654.938393 56.289097 
L 655.367862 56.301963 
L 655.797332 56.314776 
L 656.226801 56.327535 
L 656.656271 56.34024 
L 657.08574 56.352891 
L 657.515209 56.365488 
L 657.944679 56.37803 
L 658.374148 56.390518 
L 658.803617 56.40295 
L 659.233087 56.415327 
L 659.662556 56.427649 
L 660.092025 56.439915 
L 660.521495 56.452124 
L 660.950964 56.464278 
L 661.380434 56.476375 
L 661.809903 56.488415 
L 662.239372 56.500399 
L 662.668842 56.512325 
L 663.098311 56.524193 
L 663.52778 56.536004 
L 663.95725 56.547757 
L 664.386719 56.559452 
L 664.816188 56.571089 
L 665.245658 56.582667 
L 665.675127 56.594186 
L 666.104597 56.605645 
L 666.534066 56.617046 
L 666.963535 56.628386 
L 667.393005 56.639667 
L 667.822474 56.650888 
L 668.251943 56.662049 
L 668.681413 56.673148 
L 669.110882 56.684187 
L 669.540351 56.695165 
L 669.969821 56.706082 
L 670.39929 56.716937 
L 670.82876 56.727731 
L 671.258229 56.738462 
L 671.687698 56.749131 
L 672.117168 56.759737 
L 672.546637 56.770281 
L 672.976106 56.780762 
L 673.405576 56.79118 
L 673.835045 56.801534 
L 674.264514 56.811824 
L 674.693984 56.82205 
L 675.123453 56.832213 
L 675.552923 56.84231 
L 675.982392 56.852343 
L 676.411861 56.862312 
L 676.841331 56.872215 
L 677.2708 56.882052 
L 677.700269 56.891824 
L 678.129739 56.90153 
L 678.559208 56.91117 
L 678.988677 56.920744 
L 679.418147 56.930251 
L 679.847616 56.939691 
L 680.277086 56.949064 
L 680.706555 56.95837 
L 681.136024 56.967608 
L 681.565494 56.976779 
L 681.994963 56.985881 
L 682.424432 56.994915 
L 682.853902 57.003881 
L 683.283371 57.012778 
L 683.71284 57.021605 
L 684.14231 57.030364 
L 684.571779 57.039053 
L 685.001249 57.047672 
L 685.430718 57.056222 
L 685.860187 57.064701 
L 686.289657 57.07311 
L 686.719126 57.081448 
L 687.148595 57.089715 
L 687.578065 57.097911 
L 688.007534 57.106035 
L 688.437003 57.114088 
L 688.866473 57.122069 
L 689.295942 57.129977 
L 689.725412 57.137814 
L 690.154881 57.145578 
L 690.58435 57.153269 
L 691.01382 57.160886 
L 691.443289 57.168431 
L 691.872758 57.175902 
L 692.302228 57.183299 
L 692.731697 57.190622 
L 693.161166 57.197871 
L 693.590636 57.205045 
L 694.020105 57.212144 
L 694.449575 57.219169 
L 694.879044 57.226118 
L 695.308513 57.232991 
L 695.737983 57.239789 
L 696.167452 57.246511 
L 696.596921 57.253157 
L 697.026391 57.259726 
L 697.45586 57.266218 
L 697.885329 57.272634 
L 698.314799 57.278972 
L 698.744268 57.285233 
L 699.173738 57.291416 
L 699.603207 57.297521 
L 700.032676 57.303548 
L 700.462146 57.309497 
L 700.891615 57.315367 
L 701.321084 57.321159 
L 701.750554 57.326871 
L 702.180023 57.332503 
L 702.609492 57.338057 
L 703.038962 57.34353 
L 703.468431 57.348923 
L 703.897901 57.354236 
L 704.32737 57.359468 
L 704.756839 57.36462 
L 705.186309 57.369691 
L 705.615778 57.37468 
L 706.045247 57.379587 
L 706.474717 57.384413 
L 706.904186 57.389157 
L 707.333655 57.393819 
L 707.763125 57.398398 
L 708.192594 57.402895 
L 708.622064 57.407308 
L 709.051533 57.411639 
L 709.481002 57.415885 
L 709.910472 57.420049 
L 710.339941 57.424128 
L 710.76941 57.428123 
L 711.19888 57.432034 
L 711.628349 57.43586 
L 712.057818 57.439601 
L 712.487288 57.443257 
L 712.916757 57.446827 
L 713.346227 57.450312 
L 713.775696 57.453711 
L 714.205165 57.457024 
L 714.634635 57.460251 
L 715.064104 57.463391 
L 715.493573 57.466444 
L 715.923043 57.469411 
L 716.352512 57.47229 
L 716.781981 57.475081 
L 717.211451 57.477785 
L 717.64092 57.4804 
L 718.07039 57.482928 
L 718.499859 57.485366 
L 718.929328 57.487717 
L 719.358798 57.489978 
L 719.788267 57.492149 
L 720.217736 57.494232 
L 720.647206 57.496225 
L 721.076675 57.498127 
L 721.506144 57.49994 
L 721.935614 57.501662 
L 722.365083 57.503294 
L 722.794553 57.504834 
L 723.224022 57.506284 
L 723.653491 57.507642 
L 724.082961 57.508908 
L 724.51243 57.510082 
L 724.941899 57.511165 
L 725.371369 57.512155 
L 725.800838 57.513052 
L 726.230307 57.513857 
L 726.659777 57.514568 
L 727.089246 57.515187 
L 727.518716 57.515711 
L 727.948185 57.516142 
L 728.377654 57.516479 
L 728.807124 57.516722 
L 729.236593 57.51687 
L 729.666062 57.516923 
L 729.692308 57.516923 
L 730.437661 57.513607 
L 731.182829 57.503659 
L 731.927625 57.487082 
L 732.671864 57.463881 
L 733.415361 57.43406 
L 734.15793 57.397628 
L 734.899386 57.354593 
L 735.639544 57.304966 
L 736.37822 57.248759 
L 737.115229 57.185987 
L 737.850389 57.116665 
L 738.583515 57.040811 
L 739.314426 56.958443 
L 740.042939 56.869581 
L 740.768872 56.774249 
L 741.492044 56.672469 
L 742.212276 56.564268 
L 742.929388 56.449672 
L 743.6432 56.328709 
L 744.353536 56.20141 
L 745.060218 56.067806 
L 745.76307 55.927932 
L 746.461916 55.781821 
L 747.156584 55.62951 
L 747.846899 55.471037 
L 748.532689 55.306442 
L 749.213784 55.135765 
L 749.890014 54.959049 
L 750.56121 54.776339 
L 751.227205 54.587679 
L 751.887833 54.393117 
L 752.54293 54.1927 
L 753.192331 53.986481 
L 753.835876 53.774508 
L 754.473404 53.556836 
L 755.104756 53.333519 
L 755.729775 53.104611 
L 756.348305 52.870171 
L 756.960191 52.630257 
L 757.565282 52.384929 
L 758.163426 52.134247 
L 758.754474 51.878274 
L 759.33828 51.617074 
L 759.914697 51.350712 
L 760.483582 51.079254 
L 761.044794 50.802769 
L 761.598191 50.521324 
L 762.143637 50.234991 
L 762.680996 49.94384 
L 763.210133 49.647944 
L 763.730916 49.347377 
L 764.243217 49.042213 
L 764.746906 48.732529 
L 765.24186 48.418403 
L 765.727953 48.099911 
L 766.205066 47.777134 
L 766.673079 47.450152 
L 767.131876 47.119046 
L 767.581342 46.7839 
L 768.021365 46.444796 
L 768.451836 46.101819 
L 768.872647 45.755054 
L 769.283694 45.404589 
L 769.684873 45.05051 
L 770.076086 44.692905 
L 770.457234 44.331864 
L 770.828223 43.967477 
L 771.188959 43.599834 
L 771.539354 43.229028 
L 771.87932 42.855149 
L 772.208772 42.478293 
L 772.527627 42.098552 
L 772.835808 41.716021 
L 773.133236 41.330796 
L 773.419837 40.942972 
L 773.695541 40.552647 
L 773.960279 40.159917 
L 774.213984 39.764881 
L 774.456593 39.367636 
L 774.688046 38.968282 
L 774.908285 38.566919 
L 775.117255 38.163646 
L 775.314904 37.758564 
L 775.501184 37.351774 
L 775.676046 36.943377 
L 775.839449 36.533475 
L 775.991351 36.12217 
L 776.131714 35.709565 
L 776.260503 35.295762 
L 776.377687 34.880865 
L 776.483236 34.464977 
L 776.577123 34.048202 
L 776.659326 33.630643 
L 776.729824 33.212405 
L 776.788598 32.793592 
L 776.835636 32.374308 
L 776.870924 31.954657 
L 776.894455 31.534745 
L 776.906221 31.114676 
L 776.906221 30.694555 
L 776.894455 30.274486 
L 776.870924 29.854574 
L 776.835636 29.434923 
L 776.788598 29.015639 
L 776.729824 28.596826 
L 776.659326 28.178588 
L 776.577123 27.761029 
L 776.483236 27.344254 
L 776.377687 26.928366 
L 776.260503 26.513469 
L 776.131714 26.099666 
L 775.991351 25.687061 
L 775.839449 25.275756 
L 775.676046 24.865854 
L 775.501184 24.457457 
L 775.314904 24.050667 
L 775.117255 23.645585 
L 774.908285 23.242312 
L 774.688046 22.840948 
L 774.456593 22.441595 
L 774.213984 22.04435 
L 773.960279 21.649313 
L 773.695541 21.256584 
L 773.419837 20.866258 
L 773.133236 20.478435 
L 772.835808 20.09321 
L 772.527627 19.710679 
L 772.208772 19.330938 
L 771.87932 18.954081 
L 771.539354 18.580203 
L 771.188959 18.209397 
L 770.828223 17.841754 
L 770.457234 17.477366 
L 770.076086 17.116326 
L 769.684873 16.758721 
L 769.283694 16.404642 
L 768.872647 16.054176 
L 768.451836 15.707412 
L 768.021365 15.364435 
L 767.581342 15.025331 
L 767.131876 14.690185 
L 766.673079 14.359079 
L 766.205066 14.032097 
L 765.727953 13.70932 
L 765.24186 13.390828 
L 764.746906 13.076701 
L 764.243217 12.767018 
L 763.730916 12.461854 
L 763.210133 12.161287 
L 762.680996 11.865391 
L 762.143637 11.57424 
L 761.598191 11.287907 
L 761.044794 11.006462 
L 760.483582 10.729977 
L 759.914697 10.458519 
L 759.33828 10.192157 
L 758.754474 9.930957 
L 758.163426 9.674984 
L 757.565282 9.424302 
L 756.960191 9.178973 
L 756.348305 8.939059 
L 755.729775 8.704619 
L 755.104756 8.475712 
L 754.473404 8.252395 
L 753.835876 8.034723 
L 753.192331 7.82275 
L 752.54293 7.61653 
L 751.887833 7.416114 
L 751.227205 7.221552 
L 750.56121 7.032892 
L 749.890014 6.850182 
L 749.213784 6.673466 
L 748.532689 6.502789 
L 747.846899 6.338194 
L 747.156584 6.179721 
L 746.461916 6.02741 
L 745.76307 5.881299 
L 745.060218 5.741424 
L 744.353536 5.607821 
L 743.6432 5.480522 
L 742.929388 5.359559 
L 742.212276 5.244963 
L 741.492044 5.136761 
L 740.768872 5.034982 
L 740.042939 4.939649 
L 739.314426 4.850788 
L 738.583515 4.76842 
L 737.850389 4.692566 
L 737.115229 4.623244 
L 736.37822 4.560472 
L 735.639544 4.504265 
L 734.899386 4.454638 
L 734.15793 4.411603 
L 733.415361 4.375171 
L 732.671864 4.34535 
L 731.927625 4.322148 
L 731.182829 4.305572 
L 730.437661 4.295624 
L 729.692308 4.292308 
L 729.666062 4.292308 
L 729.236593 4.292361 
L 728.807124 4.292509 
L 728.377654 4.292752 
L 727.948185 4.293089 
L 727.518716 4.293519 
L 727.089246 4.294044 
L 726.659777 4.294662 
L 726.230307 4.295374 
L 725.800838 4.296178 
L 725.371369 4.297076 
L 724.941899 4.298066 
L 724.51243 4.299148 
L 724.082961 4.300323 
L 723.653491 4.301589 
L 723.224022 4.302947 
L 722.794553 4.304397 
L 722.365083 4.305937 
L 721.935614 4.307569 
L 721.506144 4.309291 
L 721.076675 4.311103 
L 720.647206 4.313006 
L 720.217736 4.314999 
L 719.788267 4.317081 
L 719.358798 4.319253 
L 718.929328 4.321514 
L 718.499859 4.323864 
L 718.07039 4.326303 
L 717.64092 4.328831 
L 717.211451 4.331446 
L 716.781981 4.33415 
L 716.352512 4.336941 
L 715.923043 4.33982 
L 715.493573 4.342786 
L 715.064104 4.34584 
L 714.634635 4.34898 
L 714.205165 4.352206 
L 713.775696 4.355519 
L 713.346227 4.358919 
L 712.916757 4.362404 
L 712.487288 4.365974 
L 712.057818 4.36963 
L 711.628349 4.373371 
L 711.19888 4.377197 
L 710.76941 4.381108 
L 710.339941 4.385103 
L 709.910472 4.389182 
L 709.481002 4.393345 
L 709.051533 4.397592 
L 708.622064 4.401923 
L 708.192594 4.406336 
L 707.763125 4.410833 
L 707.333655 4.415412 
L 706.904186 4.420073 
L 706.474717 4.424817 
L 706.045247 4.429643 
L 705.615778 4.434551 
L 705.186309 4.43954 
L 704.756839 4.444611 
L 704.32737 4.449762 
L 703.897901 4.454995 
L 703.468431 4.460308 
L 703.038962 4.465701 
L 702.609492 4.471174 
L 702.180023 4.476727 
L 701.750554 4.48236 
L 701.321084 4.488072 
L 700.891615 4.493863 
L 700.462146 4.499734 
L 700.032676 4.505682 
L 699.603207 4.511709 
L 699.173738 4.517815 
L 698.744268 4.523998 
L 698.314799 4.530259 
L 697.885329 4.536597 
L 697.45586 4.543013 
L 697.026391 4.549505 
L 696.596921 4.556074 
L 696.167452 4.56272 
L 695.737983 4.569442 
L 695.308513 4.57624 
L 694.879044 4.583113 
L 694.449575 4.590062 
L 694.020105 4.597087 
L 693.590636 4.604186 
L 693.161166 4.61136 
L 692.731697 4.618609 
L 692.302228 4.625932 
L 691.872758 4.633329 
L 691.443289 4.6408 
L 691.01382 4.648344 
L 690.58435 4.655962 
L 690.154881 4.663653 
L 689.725412 4.671417 
L 689.295942 4.679253 
L 688.866473 4.687162 
L 688.437003 4.695143 
L 688.007534 4.703196 
L 687.578065 4.71132 
L 687.148595 4.719516 
L 686.719126 4.727783 
L 686.289657 4.736121 
L 685.860187 4.74453 
L 685.430718 4.753009 
L 685.001249 4.761558 
L 684.571779 4.770178 
L 684.14231 4.778867 
L 683.71284 4.787625 
L 683.283371 4.796453 
L 682.853902 4.80535 
L 682.424432 4.814315 
L 681.994963 4.82335 
L 681.565494 4.832452 
L 681.136024 4.841622 
L 680.706555 4.850861 
L 680.277086 4.860166 
L 679.847616 4.869539 
L 679.418147 4.87898 
L 678.988677 4.888487 
L 678.559208 4.89806 
L 678.129739 4.9077 
L 677.700269 4.917406 
L 677.2708 4.927178 
L 676.841331 4.937016 
L 676.411861 4.946919 
L 675.982392 4.956887 
L 675.552923 4.96692 
L 675.123453 4.977018 
L 674.693984 4.98718 
L 674.264514 4.997407 
L 673.835045 5.007697 
L 673.405576 5.018051 
L 672.976106 5.028469 
L 672.546637 5.03895 
L 672.117168 5.049493 
L 671.687698 5.0601 
L 671.258229 5.070769 
L 670.82876 5.0815 
L 670.39929 5.092294 
L 669.969821 5.103149 
L 669.540351 5.114065 
L 669.110882 5.125043 
L 668.681413 5.136082 
L 668.251943 5.147182 
L 667.822474 5.158343 
L 667.393005 5.169563 
L 666.963535 5.180844 
L 666.534066 5.192185 
L 666.104597 5.203585 
L 665.675127 5.215045 
L 665.245658 5.226564 
L 664.816188 5.238142 
L 664.386719 5.249778 
L 663.95725 5.261473 
L 663.52778 5.273226 
L 663.098311 5.285037 
L 662.668842 5.296906 
L 662.239372 5.308832 
L 661.809903 5.320815 
L 661.380434 5.332856 
L 660.950964 5.344953 
L 660.521495 5.357106 
L 660.092025 5.369316 
L 659.662556 5.381582 
L 659.233087 5.393904 
L 658.803617 5.406281 
L 658.374148 5.418713 
L 657.944679 5.431201 
L 657.515209 5.443743 
L 657.08574 5.45634 
L 656.656271 5.468991 
L 656.226801 5.481696 
L 655.797332 5.494455 
L 655.367862 5.507268 
L 654.938393 5.520134 
L 654.508924 5.533053 
L 654.079454 5.546025 
L 653.649985 5.55905 
L 653.220516 5.572127 
L 652.791046 5.585256 
L 652.361577 5.598437 
L 651.932108 5.61167 
L 651.502638 5.624955 
L 651.073169 5.63829 
L 650.643699 5.651677 
L 650.21423 5.665114 
L 649.784761 5.678601 
L 649.355291 5.692139 
L 648.925822 5.705727 
L 648.496353 5.719365 
L 648.066883 5.733052 
L 647.637414 5.746788 
L 647.207945 5.760574 
L 646.778475 5.774408 
L 646.349006 5.788291 
L 645.919536 5.802222 
L 645.490067 5.816201 
L 645.060598 5.830228 
L 644.631128 5.844303 
L 644.201659 5.858425 
L 643.77219 5.872594 
L 643.34272 5.88681 
L 642.913251 5.901072 
L 642.483782 5.915381 
L 642.054312 5.929736 
L 641.624843 5.944137 
L 641.195373 5.958584 
L 640.765904 5.973076 
L 640.336435 5.987613 
L 639.906965 6.002195 
L 639.477496 6.016822 
L 639.048027 6.031493 
L 638.618557 6.046209 
L 638.189088 6.060968 
L 637.759619 6.075772 
L 637.330149 6.090618 
L 636.90068 6.105508 
L 636.471211 6.120441 
L 636.041741 6.135417 
L 635.612272 6.150435 
L 635.182802 6.165496 
L 634.753333 6.180599 
L 634.323864 6.195743 
L 633.894394 6.210929 
L 633.464925 6.226157 
L 633.035456 6.241425 
L 632.605986 6.256734 
L 632.176517 6.272084 
L 631.747048 6.287475 
L 631.317578 6.302905 
L 630.888109 6.318375 
L 630.458639 6.333885 
L 630.02917 6.349435 
L 629.599701 6.365023 
L 629.170231 6.380651 
L 628.740762 6.396317 
L 628.311293 6.412021 
L 627.881823 6.427764 
L 627.452354 6.443545 
L 627.022885 6.459363 
L 626.593415 6.475219 
L 626.163946 6.491112 
L 625.734476 6.507042 
L 625.305007 6.523009 
L 624.875538 6.539013 
L 624.446068 6.555052 
L 624.016599 6.571128 
L 623.58713 6.58724 
L 623.15766 6.603387 
L 622.728191 6.619569 
L 622.298722 6.635787 
L 621.869252 6.652039 
L 621.439783 6.668326 
L 621.010313 6.684647 
L 620.580844 6.701002 
L 620.151375 6.717392 
L 619.721905 6.733814 
L 619.292436 6.750271 
L 618.862967 6.76676 
L 618.433497 6.783282 
L 618.004028 6.799837 
L 617.574559 6.816425 
L 617.145089 6.833044 
L 616.71562 6.849696 
L 616.28615 6.866379 
L 615.856681 6.883094 
L 615.427212 6.89984 
L 614.997742 6.916616 
L 614.568273 6.933424 
L 614.138804 6.950262 
L 613.709334 6.96713 
L 613.279865 6.984029 
L 612.850396 7.000957 
L 612.420926 7.017915 
L 611.991457 7.034902 
L 611.561987 7.051918 
L 611.132518 7.068963 
L 610.703049 7.086036 
L 610.273579 7.103138 
L 609.84411 7.120268 
L 609.414641 7.137425 
L 608.985171 7.154611 
L 608.555702 7.171823 
L 608.126233 7.189063 
L 607.696763 7.20633 
L 607.267294 7.223623 
L 606.837824 7.240943 
L 606.408355 7.258289 
L 605.978886 7.275661 
L 605.549416 7.293058 
L 605.119947 7.310481 
L 604.690478 7.32793 
L 604.261008 7.345403 
L 603.831539 7.362901 
L 603.40207 7.380423 
L 602.9726 7.39797 
L 602.543131 7.41554 
L 602.113661 7.433135 
L 601.684192 7.450752 
L 601.254723 7.468394 
L 600.825253 7.486058 
L 600.395784 7.503745 
L 599.966315 7.521454 
L 599.536845 7.539186 
L 599.107376 7.55694 
L 598.677907 7.574716 
L 598.248437 7.592513 
L 597.818968 7.610332 
L 597.389498 7.628172 
L 596.960029 7.646033 
L 596.53056 7.663914 
L 596.10109 7.681816 
L 595.671621 7.699738 
L 595.242152 7.717679 
L 594.812682 7.735641 
L 594.383213 7.753622 
L 593.953744 7.771622 
L 593.524274 7.789641 
L 593.094805 7.807678 
L 592.665335 7.825735 
L 592.235866 7.843809 
L 591.806397 7.861901 
L 591.376927 7.880012 
L 590.947458 7.898139 
L 590.517989 7.916284 
L 590.088519 7.934446 
L 589.65905 7.952625 
L 589.229581 7.97082 
L 588.800111 7.989032 
L 588.370642 8.007259 
L 587.941172 8.025503 
L 587.511703 8.043762 
L 587.082234 8.062036 
L 586.652764 8.080325 
L 586.223295 8.09863 
L 585.793826 8.116949 
L 585.364356 8.135282 
L 584.934887 8.153629 
L 584.505418 8.171991 
L 584.075948 8.190365 
L 583.646479 8.208754 
L 583.217009 8.227155 
L 582.78754 8.24557 
L 582.358071 8.263997 
L 581.928601 8.282437 
L 581.499132 8.300888 
L 581.069663 8.319352 
L 580.640193 8.337828 
L 580.210724 8.356315 
L 579.781255 8.374813 
L 579.351785 8.393322 
L 578.922316 8.411842 
L 578.492846 8.430373 
L 578.063377 8.448913 
L 577.633908 8.467464 
L 577.204438 8.486025 
L 576.774969 8.504595 
L 576.3455 8.523174 
L 575.91603 8.541763 
L 575.486561 8.56036 
L 575.057092 8.578967 
L 574.627622 8.597581 
L 574.198153 8.616203 
L 573.768683 8.634834 
L 573.339214 8.653472 
L 572.909745 8.672117 
L 572.480275 8.69077 
L 572.050806 8.709429 
L 571.621337 8.728095 
L 571.191867 8.746768 
L 570.762398 8.765447 
L 570.332929 8.784131 
L 569.903459 8.802822 
L 569.47399 8.821518 
L 569.04452 8.840219 
L 568.615051 8.858925 
L 568.185582 8.877636 
L 567.756112 8.896351 
L 567.326643 8.915071 
L 566.897174 8.933794 
L 566.467704 8.952522 
L 566.038235 8.971253 
L 565.608766 8.989987 
L 565.179296 9.008724 
L 564.749827 9.027464 
L 564.320357 9.046207 
L 563.890888 9.064952 
L 563.461419 9.083699 
L 563.031949 9.102448 
L 562.60248 9.121199 
L 562.173011 9.139951 
L 561.743541 9.158704 
L 561.314072 9.177458 
L 560.884603 9.196213 
L 560.455133 9.214968 
L 560.025664 9.233723 
L 559.596194 9.252479 
L 559.166725 9.271234 
L 558.737256 9.289988 
L 558.307786 9.308742 
L 557.878317 9.327494 
L 557.448848 9.346245 
L 557.019378 9.364995 
L 556.589909 9.383743 
L 556.16044 9.402489 
L 555.73097 9.421233 
L 555.301501 9.439974 
L 554.872031 9.458713 
L 554.442562 9.477448 
L 554.013093 9.496181 
L 553.583623 9.51491 
L 553.154154 9.533635 
L 552.724685 9.552357 
L 552.295215 9.571074 
L 551.865746 9.589787 
L 551.436277 9.608495 
L 551.006807 9.627198 
L 550.577338 9.645897 
L 550.147868 9.664589 
L 549.718399 9.683277 
L 549.28893 9.701958 
L 548.85946 9.720633 
L 548.429991 9.739302 
L 548.000522 9.757965 
L 547.571052 9.77662 
L 547.141583 9.795269 
L 546.712114 9.81391 
L 546.282644 9.832544 
L 545.853175 9.85117 
L 545.423705 9.869788 
L 544.994236 9.888398 
L 544.564767 9.906999 
L 544.135297 9.925591 
L 543.705828 9.944175 
L 543.276359 9.962749 
L 542.846889 9.981314 
L 542.41742 9.999869 
L 541.987951 10.018414 
L 541.558481 10.03695 
L 541.129012 10.055474 
L 540.699542 10.073988 
L 540.270073 10.092491 
L 539.840604 10.110983 
L 539.411134 10.129464 
L 538.981665 10.147933 
L 538.552196 10.16639 
L 538.122726 10.184835 
L 537.693257 10.203267 
L 537.263788 10.221687 
L 536.834318 10.240095 
L 536.404849 10.258489 
L 535.975379 10.27687 
L 535.54591 10.295237 
L 535.116441 10.313591 
L 534.686971 10.33193 
L 534.257502 10.350255 
L 533.828033 10.368566 
L 533.398563 10.386862 
L 532.969094 10.405143 
L 532.539625 10.423409 
L 532.110155 10.441659 
L 531.680686 10.459894 
L 531.251216 10.478112 
L 530.821747 10.496315 
L 530.392278 10.514501 
L 529.962808 10.53267 
L 529.533339 10.550822 
L 529.10387 10.568958 
L 528.6744 10.587075 
L 528.244931 10.605176 
L 527.815462 10.623258 
L 527.385992 10.641322 
L 526.956523 10.659368 
L 526.527053 10.677395 
L 526.097584 10.695404 
L 525.668115 10.713393 
L 525.238645 10.731363 
L 524.809176 10.749314 
L 524.379707 10.767244 
L 523.950237 10.785155 
L 523.520768 10.803045 
L 523.091299 10.820915 
L 522.661829 10.838764 
L 522.23236 10.856592 
L 521.80289 10.874399 
L 521.373421 10.892184 
L 520.943952 10.909948 
L 520.514482 10.927689 
L 520.085013 10.945409 
L 519.655544 10.963105 
L 519.226074 10.98078 
L 518.796605 10.998431 
L 518.367136 11.016059 
L 517.937666 11.033664 
L 517.508197 11.051245 
L 517.078727 11.068802 
L 516.649258 11.086335 
L 516.219789 11.103844 
L 515.790319 11.121328 
L 515.36085 11.138787 
L 514.931381 11.156221 
L 514.501911 11.17363 
L 514.072442 11.191013 
L 513.642973 11.20837 
L 513.213503 11.225702 
L 512.784034 11.243007 
L 512.354565 11.260285 
L 511.925095 11.277537 
L 511.495626 11.294761 
L 511.066156 11.311959 
L 510.636687 11.329128 
L 510.207218 11.346271 
L 509.777748 11.363385 
L 509.348279 11.380471 
L 508.91881 11.397528 
L 508.48934 11.414557 
L 508.059871 11.431557 
L 507.630402 11.448527 
L 507.200932 11.465468 
L 506.771463 11.48238 
L 506.341993 11.499261 
L 505.912524 11.516113 
L 505.483055 11.532934 
L 505.053585 11.549724 
L 504.624116 11.566484 
L 504.194647 11.583212 
L 503.765177 11.599909 
L 503.335708 11.616575 
L 502.906239 11.633208 
L 502.476769 11.64981 
L 502.0473 11.666379 
L 501.61783 11.682916 
L 501.188361 11.699419 
L 500.758892 11.71589 
L 500.329422 11.732328 
L 499.899953 11.748732 
L 499.470484 11.765102 
L 499.041014 11.781438 
L 498.611545 11.79774 
L 498.182076 11.814008 
L 497.752606 11.830241 
L 497.323137 11.846438 
L 496.893667 11.862601 
L 496.464198 11.878728 
L 496.034729 11.89482 
L 495.605259 11.910875 
L 495.17579 11.926895 
L 494.746321 11.942878 
L 494.316851 11.958824 
L 493.887382 11.974733 
L 493.457913 11.990606 
L 493.028443 12.00644 
L 492.598974 12.022238 
L 492.169504 12.037997 
L 491.740035 12.053719 
L 491.310566 12.069402 
L 490.881096 12.085046 
L 490.451627 12.100652 
L 490.022158 12.116218 
L 489.592688 12.131746 
L 489.163219 12.147233 
L 488.73375 12.162681 
L 488.30428 12.178089 
L 487.874811 12.193457 
L 487.445341 12.208784 
L 487.015872 12.22407 
L 486.586403 12.239316 
L 486.156933 12.25452 
L 485.727464 12.269683 
L 485.297995 12.284804 
L 484.868525 12.299883 
L 484.439056 12.31492 
L 484.009587 12.329914 
L 483.580117 12.344866 
L 483.150648 12.359775 
L 482.721178 12.374641 
L 482.291709 12.389463 
L 481.86224 12.404242 
L 481.43277 12.418977 
L 481.003301 12.433668 
L 480.573832 12.448314 
L 480.144362 12.462916 
L 479.714893 12.477473 
L 479.285424 12.491985 
L 478.855954 12.506451 
L 478.426485 12.520872 
L 477.997015 12.535247 
L 477.567546 12.549577 
L 477.138077 12.56386 
L 476.708607 12.578096 
L 476.279138 12.592286 
L 475.849669 12.606428 
L 475.420199 12.620524 
L 474.99073 12.634572 
L 474.561261 12.648572 
L 474.131791 12.662524 
L 473.702322 12.676428 
L 473.272852 12.690284 
L 472.843383 12.70409 
L 472.413914 12.717848 
L 471.984444 12.731557 
L 471.554975 12.745217 
L 471.125506 12.758826 
L 470.696036 12.772386 
L 470.266567 12.785896 
L 469.837098 12.799355 
L 469.407628 12.812764 
L 468.978159 12.826122 
L 468.548689 12.839429 
L 468.11922 12.852684 
L 467.689751 12.865888 
L 467.260281 12.87904 
L 466.830812 12.89214 
L 466.401343 12.905188 
L 465.971873 12.918183 
L 465.542404 12.931126 
L 465.112935 12.944015 
L 464.683465 12.956851 
L 464.253996 12.969634 
L 463.824526 12.982363 
L 463.395057 12.995038 
L 462.965588 13.007658 
L 462.536118 13.020225 
L 462.106649 13.032736 
L 461.67718 13.045193 
L 461.24771 13.057594 
L 460.818241 13.06994 
L 460.388772 13.08223 
L 459.959302 13.094465 
L 459.529833 13.106643 
L 459.100363 13.118765 
L 458.670894 13.13083 
L 458.241425 13.142839 
L 457.811955 13.15479 
L 457.382486 13.166684 
L 456.953017 13.17852 
L 456.523547 13.190299 
L 456.094078 13.202019 
L 455.664609 13.213681 
L 455.235139 13.225285 
L 454.80567 13.23683 
L 454.3762 13.248315 
L 453.946731 13.259742 
L 453.517262 13.271109 
L 453.087792 13.282416 
L 452.658323 13.293663 
L 452.228854 13.30485 
L 451.799384 13.315977 
L 451.369915 13.327042 
L 450.940446 13.338047 
L 450.510976 13.348991 
L 450.081507 13.359873 
L 449.652037 13.370693 
L 449.222568 13.381452 
L 448.793099 13.392148 
L 448.363629 13.402782 
L 447.93416 13.413354 
L 447.504691 13.423862 
L 447.075221 13.434307 
L 446.645752 13.444689 
L 446.216283 13.455008 
L 445.786813 13.465262 
L 445.357344 13.475453 
L 444.927874 13.485579 
L 444.498405 13.49564 
L 444.068936 13.505637 
L 443.639466 13.515569 
L 443.209997 13.525435 
L 442.780528 13.535236 
L 442.351058 13.544971 
L 441.921589 13.55464 
L 441.49212 13.564243 
L 441.06265 13.573779 
L 440.633181 13.583249 
L 440.203711 13.592651 
L 439.774242 13.601987 
L 439.344773 13.611255 
L 438.915303 13.620455 
L 438.485834 13.629587 
L 438.056365 13.638651 
L 437.626895 13.647647 
L 437.197426 13.656574 
L 436.767957 13.665432 
L 436.338487 13.674221 
L 435.909018 13.68294 
L 435.479548 13.69159 
L 435.050079 13.70017 
L 434.62061 13.70868 
L 434.19114 13.71712 
L 433.761671 13.725489 
L 433.332202 13.733787 
L 432.902732 13.742015 
L 432.473263 13.75017 
L 432.043794 13.758255 
L 431.614324 13.766267 
L 431.184855 13.774208 
L 430.755385 13.782076 
L 430.325916 13.789871 
L 429.896447 13.797594 
L 429.466977 13.805244 
L 429.037508 13.812821 
L 428.608039 13.820324 
L 428.178569 13.827754 
L 427.7491 13.835109 
L 427.319631 13.842391 
L 426.890161 13.849598 
L 426.460692 13.85673 
L 426.031222 13.863787 
L 425.601753 13.870769 
L 425.172284 13.877676 
L 424.742814 13.884507 
L 424.313345 13.891262 
L 423.883876 13.897942 
L 423.454406 13.904544 
L 423.024937 13.91107 
L 422.595468 13.91752 
L 422.165998 13.923892 
L 421.736529 13.930187 
L 421.307059 13.936404 
L 420.87759 13.942544 
L 420.448121 13.948605 
L 420.018651 13.954588 
L 419.589182 13.960493 
L 419.159713 13.966319 
L 418.730243 13.972066 
L 418.300774 13.977733 
L 417.871305 13.983322 
L 417.441835 13.98883 
L 417.012366 13.994258 
L 416.582896 13.999607 
L 416.153427 14.004874 
L 415.723958 14.010061 
L 415.294488 14.015167 
L 414.865019 14.020192 
L 414.43555 14.025136 
L 414.00608 14.029998 
L 413.576611 14.034778 
L 413.147142 14.039476 
L 412.717672 14.044091 
L 412.288203 14.048624 
L 411.858733 14.053074 
L 411.429264 14.057441 
L 410.999795 14.061724 
L 410.570325 14.065924 
L 410.140856 14.07004 
L 409.711387 14.074072 
L 409.281917 14.07802 
L 408.852448 14.081883 
L 408.422979 14.085661 
L 407.993509 14.089355 
L 407.56404 14.092963 
L 407.13457 14.096486 
L 406.705101 14.099922 
L 406.275632 14.103273 
L 405.846162 14.106538 
L 405.416693 14.109716 
L 404.987224 14.112807 
L 404.557754 14.115812 
L 404.128285 14.118729 
L 403.698816 14.121559 
L 403.269346 14.124301 
L 402.839877 14.126955 
L 402.410407 14.129522 
L 401.980938 14.131999 
L 401.551469 14.134388 
L 401.121999 14.136689 
L 400.69253 14.1389 
L 400.263061 14.141021 
L 399.833591 14.143053 
L 399.404122 14.144996 
L 398.974653 14.146848 
L 398.545183 14.14861 
L 398.115714 14.150281 
L 397.686244 14.151861 
L 397.256775 14.153351 
L 396.827306 14.154749 
L 396.397836 14.156056 
L 395.968367 14.157271 
L 395.538898 14.158393 
L 395.109428 14.159424 
L 394.679959 14.160362 
L 394.25049 14.161208 
L 393.82102 14.16196 
L 393.391551 14.162619 
L 392.962081 14.163185 
L 392.532612 14.163657 
L 392.103143 14.164035 
L 391.673673 14.164319 
L 391.244204 14.164509 
L 390.814735 14.164604 
L 390.385265 14.16461 
L 389.955796 14.164567 
L 389.526327 14.164481 
L 389.096857 14.164353 
L 388.667388 14.164182 
L 388.237919 14.163968 
L 387.808449 14.163712 
L 387.37898 14.163414 
L 386.94951 14.163073 
L 386.520041 14.16269 
L 386.090572 14.162265 
L 385.661102 14.161798 
L 385.231633 14.161289 
L 384.802164 14.160739 
L 384.372694 14.160147 
L 383.943225 14.159513 
L 383.513756 14.158838 
L 383.084286 14.158121 
L 382.654817 14.157363 
L 382.225347 14.156564 
L 381.795878 14.155723 
L 381.366409 14.154842 
L 380.936939 14.15392 
L 380.50747 14.152957 
L 380.078001 14.151953 
L 379.648531 14.150909 
L 379.219062 14.149824 
L 378.789593 14.148698 
L 378.360123 14.147532 
L 377.930654 14.146327 
L 377.501184 14.14508 
L 377.071715 14.143794 
L 376.642246 14.142468 
L 376.212776 14.141102 
L 375.783307 14.139696 
L 375.353838 14.138251 
L 374.924368 14.136766 
L 374.494899 14.135241 
L 374.06543 14.133677 
L 373.63596 14.132074 
L 373.206491 14.130432 
L 372.777021 14.12875 
L 372.347552 14.12703 
L 371.918083 14.12527 
L 371.488613 14.123472 
L 371.059144 14.121635 
L 370.629675 14.11976 
L 370.200205 14.117846 
L 369.770736 14.115893 
L 369.341267 14.113902 
L 368.911797 14.111873 
L 368.482328 14.109806 
L 368.052858 14.1077 
L 367.623389 14.105557 
L 367.19392 14.103376 
L 366.76445 14.101157 
L 366.334981 14.098901 
L 365.905512 14.096607 
L 365.476042 14.094275 
L 365.046573 14.091906 
L 364.617104 14.0895 
L 364.187634 14.087056 
L 363.758165 14.084576 
L 363.328695 14.082058 
L 362.899226 14.079504 
L 362.469757 14.076912 
L 362.040287 14.074284 
L 361.610818 14.07162 
L 361.181349 14.068919 
L 360.751879 14.066181 
L 360.32241 14.063407 
L 359.892941 14.060597 
L 359.463471 14.057751 
L 359.034002 14.054869 
L 358.604532 14.05195 
L 358.175063 14.048996 
L 357.745594 14.046007 
L 357.316124 14.042981 
L 356.886655 14.03992 
L 356.457186 14.036823 
L 356.027716 14.033691 
L 355.598247 14.030524 
L 355.168778 14.027322 
L 354.739308 14.024084 
L 354.309839 14.020812 
L 353.880369 14.017505 
L 353.4509 14.014162 
L 353.021431 14.010786 
L 352.591961 14.007374 
L 352.162492 14.003928 
L 351.733023 14.000448 
L 351.303553 13.996933 
L 350.874084 13.993384 
L 350.444615 13.989801 
L 350.015145 13.986184 
L 349.585676 13.982533 
L 349.156206 13.978848 
L 348.726737 13.975129 
L 348.297268 13.971377 
L 347.867798 13.967591 
L 347.438329 13.963771 
L 347.00886 13.959919 
L 346.57939 13.956033 
L 346.149921 13.952114 
L 345.720452 13.948161 
L 345.290982 13.944176 
L 344.861513 13.940158 
L 344.432043 13.936107 
L 344.002574 13.932023 
L 343.573105 13.927907 
L 343.143635 13.923758 
L 342.714166 13.919577 
L 342.284697 13.915364 
L 341.855227 13.911118 
L 341.425758 13.90684 
L 340.996289 13.90253 
L 340.566819 13.898189 
L 340.13735 13.893815 
L 339.70788 13.88941 
L 339.278411 13.884973 
L 338.848942 13.880504 
L 338.419472 13.876004 
L 337.990003 13.871473 
L 337.560534 13.86691 
L 337.131064 13.862316 
L 336.701595 13.857691 
L 336.272126 13.853035 
L 335.842656 13.848348 
L 335.413187 13.843631 
L 334.983717 13.838883 
L 334.554248 13.834104 
L 334.124779 13.829294 
L 333.695309 13.824455 
L 333.26584 13.819585 
L 332.836371 13.814684 
L 332.406901 13.809754 
L 331.977432 13.804793 
L 331.547963 13.799803 
L 331.118493 13.794783 
L 330.689024 13.789733 
L 330.259554 13.784653 
L 329.830085 13.779544 
L 329.400616 13.774406 
L 328.971146 13.769238 
L 328.541677 13.76404 
L 328.112208 13.758814 
L 327.682738 13.753559 
L 327.253269 13.748274 
L 326.8238 13.742961 
L 326.39433 13.737619 
L 325.964861 13.732248 
L 325.535391 13.726849 
L 325.105922 13.721421 
L 324.676453 13.715965 
L 324.246983 13.71048 
L 323.817514 13.704967 
L 323.388045 13.699427 
L 322.958575 13.693858 
L 322.529106 13.688261 
L 322.099637 13.682636 
L 321.670167 13.676984 
L 321.240698 13.671304 
L 320.811228 13.665596 
L 320.381759 13.659861 
L 319.95229 13.654099 
L 319.52282 13.648309 
L 319.093351 13.642493 
L 318.663882 13.636649 
L 318.234412 13.630778 
L 317.804943 13.62488 
L 317.375474 13.618956 
L 316.946004 13.613005 
L 316.516535 13.607027 
L 316.087065 13.601023 
L 315.657596 13.594993 
L 315.228127 13.588936 
L 314.798657 13.582853 
L 314.369188 13.576743 
L 313.939719 13.570608 
L 313.510249 13.564447 
L 313.08078 13.55826 
L 312.651311 13.552047 
L 312.221841 13.545809 
L 311.792372 13.539545 
L 311.362902 13.533256 
L 310.933433 13.526942 
L 310.503964 13.520602 
L 310.074494 13.514237 
L 309.645025 13.507847 
L 309.215556 13.501432 
L 308.786086 13.494992 
L 308.356617 13.488527 
L 307.927148 13.482038 
L 307.497678 13.475524 
L 307.068209 13.468985 
L 306.638739 13.462423 
L 306.20927 13.455836 
L 305.779801 13.449224 
L 305.350331 13.442589 
L 304.920862 13.43593 
L 304.491393 13.429246 
L 304.061923 13.422539 
L 303.632454 13.415808 
L 303.202985 13.409054 
L 302.773515 13.402276 
L 302.344046 13.395475 
L 301.914576 13.38865 
L 301.485107 13.381802 
L 301.055638 13.374931 
L 300.626168 13.368037 
L 300.196699 13.361119 
L 299.76723 13.354179 
L 299.33776 13.347217 
L 298.908291 13.340231 
L 298.478822 13.333223 
L 298.049352 13.326193 
L 297.619883 13.31914 
L 297.190413 13.312065 
L 296.760944 13.304968 
L 296.331475 13.297848 
L 295.902005 13.290707 
L 295.472536 13.283543 
L 295.043067 13.276358 
L 294.613597 13.269151 
L 294.184128 13.261923 
L 293.754659 13.254673 
L 293.325189 13.247402 
L 292.89572 13.240109 
L 292.46625 13.232795 
L 292.036781 13.22546 
L 291.607312 13.218104 
L 291.177842 13.210727 
L 290.748373 13.203329 
L 290.318904 13.19591 
L 289.889434 13.18847 
L 289.459965 13.181011 
L 289.030496 13.17353 
L 288.601026 13.166029 
L 288.171557 13.158508 
L 287.742087 13.150967 
L 287.312618 13.143406 
L 286.883149 13.135824 
L 286.453679 13.128223 
L 286.02421 13.120602 
L 285.594741 13.112961 
L 285.165271 13.105301 
L 284.735802 13.097621 
L 284.306333 13.089922 
L 283.876863 13.082203 
L 283.447394 13.074466 
L 283.017924 13.066709 
L 282.588455 13.058933 
L 282.158986 13.051138 
L 281.729516 13.043324 
L 281.300047 13.035491 
L 280.870578 13.02764 
L 280.441108 13.01977 
L 280.011639 13.011882 
L 279.58217 13.003976 
L 279.1527 12.996051 
L 278.723231 12.988108 
L 278.293761 12.980147 
L 277.864292 12.972168 
L 277.434823 12.964171 
L 277.005353 12.956156 
L 276.575884 12.948123 
L 276.146415 12.940073 
L 275.716945 12.932006 
L 275.287476 12.923921 
L 274.858007 12.915818 
L 274.428537 12.907699 
L 273.999068 12.899562 
L 273.569598 12.891408 
L 273.140129 12.883238 
L 272.71066 12.87505 
L 272.28119 12.866846 
L 271.851721 12.858625 
L 271.422252 12.850388 
L 270.992782 12.842134 
L 270.563313 12.833864 
L 270.133844 12.825577 
L 269.704374 12.817275 
L 269.274905 12.808956 
L 268.845435 12.800621 
L 268.415966 12.79227 
L 267.986497 12.783904 
L 267.557027 12.775522 
L 267.127558 12.767124 
L 266.698089 12.758711 
L 266.268619 12.750282 
L 265.83915 12.741838 
L 265.409681 12.733379 
L 264.980211 12.724905 
L 264.550742 12.716416 
L 264.121273 12.707912 
L 263.691803 12.699393 
L 263.262334 12.690859 
L 262.832864 12.68231 
L 262.403395 12.673747 
L 261.973926 12.66517 
L 261.544456 12.656578 
L 261.114987 12.647972 
L 260.685518 12.639352 
L 260.256048 12.630718 
L 259.826579 12.62207 
L 259.39711 12.613407 
L 258.96764 12.604732 
L 258.538171 12.596042 
L 258.108701 12.587339 
L 257.679232 12.578622 
L 257.249763 12.569892 
L 256.820293 12.561149 
L 256.390824 12.552392 
L 255.961355 12.543622 
L 255.531885 12.53484 
L 255.102416 12.526044 
L 254.672947 12.517236 
L 254.243477 12.508414 
L 253.814008 12.499581 
L 253.384538 12.490734 
L 252.955069 12.481875 
L 252.5256 12.473004 
L 252.09613 12.464121 
L 251.666661 12.455225 
L 251.237192 12.446318 
L 250.807722 12.437398 
L 250.378253 12.428466 
L 249.948784 12.419523 
L 249.519314 12.410568 
L 249.089845 12.401602 
L 248.660375 12.392624 
L 248.230906 12.383634 
L 247.801437 12.374634 
L 247.371967 12.365622 
L 246.942498 12.356599 
L 246.513029 12.347565 
L 246.083559 12.33852 
L 245.65409 12.329464 
L 245.224621 12.320398 
L 244.795151 12.311321 
L 244.365682 12.302233 
L 243.936212 12.293135 
L 243.506743 12.284026 
L 243.077274 12.274908 
L 242.647804 12.265779 
L 242.218335 12.25664 
L 241.788866 12.247491 
L 241.359396 12.238332 
L 240.929927 12.229164 
L 240.500458 12.219986 
L 240.070988 12.210798 
L 239.641519 12.201601 
L 239.212049 12.192394 
L 238.78258 12.183178 
L 238.353111 12.173953 
L 237.923641 12.164719 
L 237.494172 12.155476 
L 237.064703 12.146224 
L 236.635233 12.136963 
L 236.205764 12.127693 
L 235.776295 12.118415 
L 235.346825 12.109128 
L 234.917356 12.099833 
L 234.487886 12.09053 
L 234.058417 12.081218 
L 233.628948 12.071898 
L 233.199478 12.06257 
L 232.770009 12.053234 
L 232.34054 12.04389 
L 231.91107 12.034539 
L 231.481601 12.025179 
L 231.052132 12.015813 
L 230.622662 12.006438 
L 230.193193 11.997057 
L 229.763723 11.987668 
L 229.334254 11.978272 
L 228.904785 11.968868 
L 228.475315 11.959458 
L 228.045846 11.950041 
L 227.616377 11.940617 
L 227.186907 11.931186 
L 226.757438 11.921749 
L 226.327969 11.912305 
L 225.898499 11.902855 
L 225.46903 11.893399 
L 225.03956 11.883936 
L 224.610091 11.874467 
L 224.180622 11.864992 
L 223.751152 11.855511 
L 223.321683 11.846024 
L 222.892214 11.836532 
L 222.462744 11.827034 
L 222.033275 11.81753 
L 221.603806 11.808021 
L 221.174336 11.798506 
L 220.744867 11.788986 
L 220.315397 11.779461 
L 219.885928 11.769931 
L 219.456459 11.760396 
L 219.026989 11.750856 
L 218.59752 11.741311 
L 218.168051 11.731762 
L 217.738581 11.722208 
L 217.309112 11.712649 
L 216.879643 11.703086 
L 216.450173 11.693518 
L 216.020704 11.683947 
L 215.591234 11.674371 
L 215.161765 11.664791 
L 214.732296 11.655208 
L 214.302826 11.64562 
L 213.873357 11.636029 
L 213.443888 11.626434 
L 213.014418 11.616835 
L 212.584949 11.607233 
L 212.15548 11.597628 
L 211.72601 11.588019 
L 211.296541 11.578407 
L 210.867071 11.568792 
L 210.437602 11.559174 
L 210.008133 11.549554 
L 209.578663 11.53993 
L 209.149194 11.530304 
L 208.719725 11.520675 
L 208.290255 11.511044 
L 207.860786 11.50141 
L 207.431317 11.491774 
L 207.001847 11.482135 
L 206.572378 11.472495 
L 206.142908 11.462852 
L 205.713439 11.453208 
L 205.28397 11.443562 
L 204.8545 11.433914 
L 204.425031 11.424264 
L 203.995562 11.414613 
L 203.566092 11.40496 
L 203.136623 11.395306 
L 202.707154 11.385651 
L 202.277684 11.375994 
L 201.848215 11.366337 
L 201.418745 11.356678 
L 200.989276 11.347019 
L 200.559807 11.337359 
L 200.130337 11.327698 
L 199.700868 11.318036 
L 199.271399 11.308374 
L 198.841929 11.298712 
L 198.41246 11.289049 
L 197.982991 11.279386 
L 197.553521 11.269723 
L 197.124052 11.26006 
L 196.694582 11.250397 
L 196.265113 11.240735 
L 195.835644 11.231072 
L 195.406174 11.22141 
L 194.976705 11.211748 
L 194.547236 11.202087 
L 194.117766 11.192426 
L 193.688297 11.182767 
L 193.258828 11.173108 
L 192.829358 11.16345 
L 192.399889 11.153793 
L 191.970419 11.144137 
L 191.54095 11.134482 
L 191.111481 11.124829 
L 190.682011 11.115177 
L 190.252542 11.105526 
L 189.823073 11.095877 
L 189.393603 11.08623 
L 188.964134 11.076585 
L 188.534665 11.066941 
L 188.105195 11.0573 
L 187.675726 11.047661 
L 187.246256 11.038023 
L 186.816787 11.028388 
L 186.387318 11.018756 
L 185.957848 11.009126 
L 185.528379 10.999498 
L 185.09891 10.989873 
L 184.66944 10.980251 
L 184.239971 10.970632 
L 183.810502 10.961015 
L 183.381032 10.951402 
L 182.951563 10.941792 
L 182.522093 10.932185 
L 182.092624 10.922581 
L 181.663155 10.912981 
L 181.233685 10.903384 
L 180.804216 10.893791 
L 180.374747 10.884201 
L 179.945277 10.874616 
L 179.515808 10.865034 
L 179.086339 10.855456 
L 178.656869 10.845882 
L 178.2274 10.836313 
L 177.79793 10.826748 
L 177.368461 10.817187 
L 176.938992 10.80763 
L 176.509522 10.798078 
L 176.080053 10.788531 
L 175.650584 10.778989 
L 175.221114 10.769451 
L 174.791645 10.759919 
L 174.362176 10.750391 
L 173.932706 10.740869 
L 173.503237 10.731351 
L 173.073767 10.721839 
L 172.644298 10.712333 
L 172.214829 10.702832 
L 171.785359 10.693337 
L 171.35589 10.683847 
L 170.926421 10.674363 
L 170.496951 10.664885 
L 170.067482 10.655413 
L 169.638013 10.645947 
L 169.208543 10.636488 
L 168.779074 10.627034 
L 168.349604 10.617587 
L 167.920135 10.608147 
L 167.490666 10.598713 
L 167.061196 10.589286 
L 166.631727 10.579865 
L 166.202258 10.570451 
L 165.772788 10.561045 
L 165.343319 10.551645 
L 164.91385 10.542252 
L 164.48438 10.532867 
L 164.054911 10.523489 
L 163.625441 10.514118 
L 163.195972 10.504755 
L 162.766503 10.4954 
L 162.337033 10.486052 
L 161.907564 10.476713 
L 161.478095 10.467381 
L 161.048625 10.458057 
L 160.619156 10.448741 
L 160.189687 10.439433 
L 159.760217 10.430134 
L 159.330748 10.420843 
L 158.901278 10.41156 
L 158.471809 10.402286 
L 158.04234 10.393021 
L 157.61287 10.383764 
L 157.183401 10.374517 
L 156.753932 10.365278 
L 156.324462 10.356048 
L 155.894993 10.346828 
L 155.465524 10.337617 
L 155.036054 10.328415 
L 154.606585 10.319222 
L 154.177115 10.310039 
L 153.747646 10.300866 
L 153.318177 10.291702 
L 152.888707 10.282549 
L 152.459238 10.273405 
L 152.029769 10.264271 
L 151.600299 10.255147 
L 151.17083 10.246034 
L 150.741361 10.23693 
L 150.311891 10.227837 
L 149.882422 10.218755 
L 149.452952 10.209683 
L 149.023483 10.200622 
L 148.594014 10.191572 
L 148.164544 10.182532 
L 147.735075 10.173504 
L 147.305606 10.164486 
L 146.876136 10.15548 
L 146.446667 10.146485 
L 146.017198 10.137501 
L 145.587728 10.128529 
L 145.158259 10.119568 
L 144.728789 10.110619 
L 144.29932 10.101682 
L 143.869851 10.092756 
L 143.440381 10.083842 
L 143.010912 10.074941 
L 142.581443 10.066051 
L 142.151973 10.057174 
L 141.722504 10.048309 
L 141.293035 10.039456 
L 140.863565 10.030616 
L 140.434096 10.021789 
L 140.004627 10.012974 
L 139.575157 10.004172 
L 139.145688 9.995383 
L 138.716218 9.986607 
L 138.286749 9.977843 
L 137.85728 9.969093 
L 137.42781 9.960357 
L 136.998341 9.951633 
L 136.568872 9.942923 
L 136.139402 9.934227 
L 135.709933 9.925544 
L 135.280464 9.916875 
L 134.850994 9.90822 
L 134.421525 9.899579 
L 133.992055 9.890951 
L 133.562586 9.882338 
L 133.133117 9.873739 
L 132.703647 9.865155 
L 132.274178 9.856585 
L 131.844709 9.848029 
L 131.415239 9.839488 
L 130.98577 9.830961 
L 130.556301 9.82245 
L 130.126831 9.813953 
L 129.697362 9.805471 
L 129.267892 9.797005 
L 128.838423 9.788553 
L 128.408954 9.780117 
L 127.979484 9.771696 
L 127.550015 9.76329 
L 127.120546 9.7549 
L 126.691076 9.746526 
L 126.261607 9.738168 
L 125.832138 9.729825 
L 125.402668 9.721498 
L 124.973199 9.713188 
L 124.543729 9.704893 
L 124.11426 9.696615 
L 123.684791 9.688352 
L 123.255321 9.680107 
L 122.825852 9.671878 
L 122.396383 9.663665 
L 121.966913 9.655469 
L 121.537444 9.64729 
L 121.107975 9.639128 
L 120.678505 9.630983 
L 120.249036 9.622855 
L 119.819566 9.614744 
L 119.390097 9.60665 
L 118.960628 9.598574 
L 118.531158 9.590515 
L 118.101689 9.582474 
L 117.67222 9.57445 
L 117.24275 9.566444 
L 116.813281 9.558456 
L 116.383812 9.550486 
L 115.954342 9.542534 
L 115.524873 9.5346 
L 115.095403 9.526684 
L 114.665934 9.518787 
L 114.236465 9.510908 
L 113.806995 9.503047 
L 113.377526 9.495205 
L 112.948057 9.487382 
L 112.518587 9.479578 
L 112.089118 9.471792 
L 111.659649 9.464026 
L 111.230179 9.456278 
L 110.80071 9.44855 
L 110.37124 9.440841 
L 109.941771 9.433152 
L 109.512302 9.425482 
L 109.082832 9.417831 
L 108.653363 9.4102 
L 108.223894 9.402589 
L 107.794424 9.394998 
L 107.364955 9.387426 
L 106.935486 9.379875 
L 106.506016 9.372344 
L 106.076547 9.364833 
L 105.647077 9.357342 
L 105.217608 9.349872 
L 104.788139 9.342423 
L 104.358669 9.334994 
L 103.9292 9.327585 
L 103.499731 9.320198 
L 103.070261 9.312831 
L 102.640792 9.305485 
L 102.211323 9.298161 
L 101.781853 9.290858 
L 101.352384 9.283575 
L 100.922914 9.276315 
L 100.493445 9.269076 
L 100.063976 9.261858 
L 99.634506 9.254662 
L 99.205037 9.247488 
L 98.775568 9.240335 
L 98.346098 9.233205 
L 97.916629 9.226096 
L 97.48716 9.21901 
L 97.05769 9.211946 
L 96.628221 9.204905 
L 96.198751 9.197885 
L 95.769282 9.190889 
L 95.339813 9.183914 
L 94.910343 9.176963 
L 94.480874 9.170035 
L 94.051405 9.163129 
L 93.621935 9.156246 
L 93.192466 9.149387 
L 92.762997 9.14255 
L 92.333527 9.135737 
L 91.904058 9.128948 
L 91.474588 9.122181 
L 91.045119 9.115439 
L 90.61565 9.10872 
L 90.18618 9.102024 
L 89.756711 9.095353 
L 89.327242 9.088706 
L 88.897772 9.082082 
L 88.468303 9.075483 
L 88.038834 9.068908 
L 87.609364 9.062358 
L 87.179895 9.055832 
L 86.750425 9.04933 
L 86.320956 9.042853 
L 85.891487 9.036401 
L 85.462017 9.029973 
L 85.032548 9.023571 
L 84.603079 9.017193 
L 84.173609 9.010841 
L 83.74414 9.004513 
L 83.314671 8.998211 
L 82.885201 8.991935 
L 82.455732 8.985684 
L 82.026262 8.979458 
L 81.596793 8.973259 
L 81.167324 8.967085 
L 80.737854 8.960936 
L 80.308385 8.954814 
L 79.878916 8.948718 
L 79.449446 8.942648 
L 79.019977 8.936604 
L 78.590508 8.930587 
L 78.161038 8.924596 
L 77.731569 8.918632 
L 77.302099 8.912694 
L 76.87263 8.906783 
L 76.443161 8.900898 
L 76.013691 8.895041 
L 75.584222 8.889211 
L 75.154753 8.883408 
L 74.725283 8.877632 
L 74.295814 8.871883 
L 73.866345 8.866162 
L 73.436875 8.860468 
L 73.007406 8.854802 
L 72.577936 8.849163 
L 72.148467 8.843553 
L 71.718998 8.83797 
L 71.289528 8.832415 
L 70.860059 8.826888 
L 70.43059 8.821389 
L 70.00112 8.815919 
L 69.571651 8.810477 
L 69.142182 8.805063 
L 68.712712 8.799678 
L 68.283243 8.794322 
L 67.853773 8.788994 
L 67.424304 8.783695 
L 66.994835 8.778425 
L 66.565365 8.773184 
L 66.135896 8.767973 
L 65.706427 8.76279 
L 65.276957 8.757637 
L 64.847488 8.752513 
L 64.418019 8.747419 
L 63.988549 8.742354 
L 63.55908 8.737319 
L 63.12961 8.732313 
L 62.700141 8.727338 
L 62.270672 8.722393 
L 61.841202 8.717477 
L 61.411733 8.712592 
L 60.982264 8.707737 
L 60.552794 8.702913 
L 60.123325 8.698118 
L 59.693856 8.693355 
L 59.264386 8.688622 
L 58.834917 8.68392 
L 58.405447 8.679248 
L 57.975978 8.674608 
L 57.546509 8.669999 
L 57.117039 8.66542 
L 56.68757 8.660873 
L 56.258101 8.656358 
L 55.828631 8.651873 
L 55.399162 8.64742 
L 54.969693 8.642999 
L 54.540223 8.63861 
L 54.110754 8.634252 
L 53.681284 8.629926 
L 53.251815 8.625632 
L 52.822346 8.62137 
L 52.392876 8.617141 
L 51.963407 8.612944 
L 51.533938 8.608779 
L 51.104468 8.604646 
L 50.674999 8.600546 
L 50.24553 8.596479 
L 49.81606 8.592444 
L 49.386591 8.588443 
L 48.957121 8.584474 
L 48.527652 8.580538 
L 48.098183 8.576636 
L 47.668713 8.572766 
L 47.239244 8.56893 
L 46.809775 8.565127 
L 46.380305 8.561358 
L 45.950836 8.557623 
L 45.521367 8.553921 
L 45.091897 8.550253 
L 44.662428 8.546619 
L 44.232958 8.543019 
L 43.803489 8.539453 
L 43.37402 8.535921 
L 42.94455 8.532423 
L 42.515081 8.52896 
L 42.085612 8.525531 
L 41.656142 8.522137 
L 41.226673 8.518778 
L 40.797204 8.515453 
L 40.367734 8.512163 
L 39.938265 8.508908 
L 39.508795 8.505688 
L 39.079326 8.502503 
L 38.649857 8.499354 
L 38.220387 8.496239 
L 37.790918 8.49316 
L 37.361449 8.490117 
L 36.931979 8.487109 
L 36.50251 8.484137 
L 36.073041 8.481201 
L 35.643571 8.478301 
L 35.214102 8.475437 
L 34.784632 8.472609 
L 34.355163 8.469817 
L 33.925694 8.467061 
L 33.496224 8.464342 
L 33.066755 8.461659 
L 32.637286 8.459012 
L 32.207816 8.456403 
L 31.778347 8.45383 
L 31.348878 8.451294 
L 30.919408 8.448795 
L 30.489939 8.446333 
L 30.060469 8.443908 
L 29.631 8.44152 
L 29.201531 8.43917 
L 28.772061 8.436857 
L 28.342592 8.434582 
L 27.913123 8.432344 
L 27.483653 8.430144 
L 27.054184 8.427982 
L 26.624715 8.425857 
L 26.195245 8.423771 
L 25.765776 8.421723 
L 25.336306 8.419713 
L 24.906837 8.417741 
L 24.477368 8.415808 
L 24.047898 8.413913 
L 23.618429 8.412057 
L 23.18896 8.410239 
L 22.75949 8.40846 
L 22.330021 8.40672 
L 21.900552 8.405019 
L 21.471082 8.403358 
L 21.041613 8.401735 
L 20.612143 8.400151 
L 20.182674 8.398607 
L 19.753205 8.397102 
L 19.323735 8.395637 
L 18.894266 8.394211 
L 18.464797 8.392825 
L 18.035327 8.391479 
L 17.605858 8.390173 
L 17.176389 8.388907 
L 16.746919 8.387681 
L 16.31745 8.386495 
L 15.887981 8.385349 
L 15.458511 8.384244 
L 15.029042 8.38318 
L 14.599572 8.382155 
L 14.170103 8.381172 
L 13.740634 8.380229 
L 13.311164 8.379328 
L 12.881695 8.378467 
L 12.452226 8.377647 
L 12.022756 8.376868 
L 11.593287 8.376131 
L 11.163818 8.375435 
L 10.734348 8.37478 
L 10.304879 8.374167 
L 9.875409 8.373596 
L 9.44594 8.373066 
L 9.016471 8.372579 
L 8.587001 8.372133 
L 8.157532 8.371729 
L 7.728063 8.371367 
L 7.298593 8.371047 
L 6.869124 8.37077 
L 6.439655 8.370535 
L 6.010185 8.370343 
L 5.580716 8.370193 
L 5.151246 8.370086 
L 4.721777 8.370021 
L 4.292308 8.37 
z
" clip-path="url(#p4471df942f)" style="fill: #e6f2ff"/>
   </g>
   <g id="line2d_1">
    <path d="M 4.292308 53.439231 
L 36.073041 53.328029 
L 71.289528 52.976816 
L 111.659649 52.345205 
L 163.625441 51.295112 
L 295.902005 48.518524 
L 336.272126 47.956196 
L 371.059144 47.687596 
L 400.69253 47.670331 
L 422.595468 47.891711 
L 446.216283 48.354223 
L 472.413914 49.091382 
L 503.335708 50.192656 
L 544.564767 51.902232 
L 624.875538 55.270218 
L 656.226801 56.327535 
L 682.424432 56.994915 
L 706.045247 57.379587 
L 727.948185 57.516142 
L 729.666062 57.516923 
L 729.666062 57.516923 
" clip-path="url(#p4471df942f)" style="fill: none; stroke: #0a3d91; stroke-width: 2; stroke-linecap: square"/>
   </g>
   <g id="line2d_2">
    <path d="M 729.692308 57.516923 
L 734.15793 57.397628 
L 738.583515 57.040811 
L 742.929388 56.449672 
L 747.156584 55.62951 
L 751.227205 54.587679 
L 755.104756 53.333519 
L 758.163426 52.134247 
L 761.044794 50.802769 
L 763.730916 49.347377 
L 766.205066 47.777134 
L 768.451836 46.101819 
L 770.457234 44.331864 
L 772.208772 42.478293 
L 773.695541 40.552647 
L 774.908285 38.566919 
L 775.839449 36.533475 
L 776.377687 34.880865 
L 776.729824 33.212405 
L 776.894455 31.534745 
L 776.870924 29.854574 
L 776.659326 28.178588 
L 776.260503 26.513469 
L 775.676046 24.865854 
L 774.908285 23.242312 
L 773.695541 21.256584 
L 772.208772 19.330938 
L 770.457234 17.477366 
L 768.451836 15.707412 
L 766.205066 14.032097 
L 763.730916 12.461854 
L 761.044794 11.006462 
L 758.163426 9.674984 
L 755.104756 8.475712 
L 751.227205 7.221552 
L 747.156584 6.179721 
L 742.929388 5.359559 
L 738.583515 4.76842 
L 734.15793 4.411603 
L 729.692308 4.292308 
L 729.692308 4.292308 
" clip-path="url(#p4471df942f)" style="fill: none; stroke: #0a3d91; stroke-width: 2; stroke-linecap: square"/>
   </g>
   <g id="line2d_3">
    <path d="M 4.292308 8.37 
L 36.073041 8.481201 
L 71.289528 8.832415 
L 111.659649 9.464026 
L 163.625441 10.514118 
L 295.902005 13.290707 
L 336.272126 13.853035 
L 371.059144 14.121635 
L 400.69253 14.1389 
L 422.595468 13.91752 
L 446.216283 13.455008 
L 472.413914 12.717848 
L 503.335708 11.616575 
L 544.564767 9.906999 
L 624.875538 6.539013 
L 656.226801 5.481696 
L 682.424432 4.814315 
L 706.045247 4.429643 
L 727.948185 4.293089 
L 729.666062 4.292308 
L 729.666062 4.292308 
" clip-path="url(#p4471df942f)" style="fill: none; stroke: #0a3d91; stroke-width: 2; stroke-linecap: square"/>
   </g>
   <g id="line2d_4">
    <path d="M 4.292308 53.439231 
L 4.292308 8.37 
" clip-path="url(#p4471df942f)" style="fill: none; stroke: #0a3d91; stroke-width: 2; stroke-linecap: square"/>
   </g>
   <g id="patch_3">
    <path d="M 38.630769 52.191982 
Q 38.630769 30.904615 38.630769 9.617249 
" style="fill: none; stroke: #000000; stroke-linecap: round"/>
    <path d="M 40.630769 48.191982 
L 38.630769 52.191982 
L 36.630769 48.191982 
" style="fill: none; stroke: #000000; stroke-linecap: round"/>
    <path d="M 36.630769 13.617249 
L 38.630769 9.617249 
L 40.630769 13.617249 
" style="fill: none; stroke: #000000; stroke-linecap: round"/>
   </g>
   <g id="patch_4">
    <path d="M 390.6 46.52659 
Q 390.6 30.904615 390.6 15.282641 
" style="fill: none; stroke: #000000; stroke-linecap: round"/>
    <path d="M 392.6 42.52659 
L 390.6 46.52659 
L 388.6 42.52659 
" style="fill: none; stroke: #000000; stroke-linecap: round"/>
    <path d="M 388.6 19.282641 
L 390.6 15.282641 
L 392.6 19.282641 
" style="fill: none; stroke: #000000; stroke-linecap: round"/>
   </g>
   <g id="patch_5">
    <path d="M 742.569231 56.398889 
Q 742.569231 30.904615 742.569231 5.410342 
" style="fill: none; stroke: #000000; stroke-linecap: round"/>
    <path d="M 744.569231 52.398889 
L 742.569231 56.398889 
L 740.569231 52.398889 
" style="fill: none; stroke: #000000; stroke-linecap: round"/>
    <path d="M 740.569231 9.410342 
L 742.569231 5.410342 
L 744.569231 9.410342 
" style="fill: none; stroke: #000000; stroke-linecap: round"/>
   </g>
   <g id="patch_6">
    <path d="M 5.410342 68.247692 
Q 390.6 68.247692 775.789658 68.247692 
" style="fill: none; stroke: #000000; stroke-linecap: round"/>
    <path d="M 9.410342 70.247692 
L 5.410342 68.247692 
L 9.410342 66.247692 
" style="fill: none; stroke: #000000; stroke-linecap: round"/>
    <path d="M 771.789658 66.247692 
L 775.789658 68.247692 
L 771.789658 70.247692 
" style="fill: none; stroke: #000000; stroke-linecap: round"/>
   </g>
  </g>
 </g>
 <defs>
  <clipPath id="p4471df942f">
   <rect x="0" y="0" width="781.2" height="72.54"/>
  </clipPath>
 </defs>
</svg>
