<?xml version="1.0" encoding="utf-8" standalone="no"?>
<!DOCTYPE svg PUBLIC "-//W3C//DTD SVG 1.1//EN"
  "http://www.w3.org/Graphics/SVG/1.1/DTD/svg11.dtd">
<svg xmlns:xlink="http://www.w3.org/1999/xlink" width="795.6pt" height="189.578182pt" viewBox="0 0 795.6 189.578182" xmlns="http://www.w3.org/2000/svg" version="1.1">
 <metadata>
  <rdf:RDF xmlns:dc="http://purl.org/dc/elements/1.1/" xmlns:cc="http://creativecommons.org/ns#" xmlns:rdf="http://www.w3.org/1999/02/22-rdf-syntax-ns#">
   <cc:Work>
    <dc:type rdf:resource="http://purl.org/dc/dcmitype/StillImage"/>
    <dc:date>2025-10-18T13:21:37.259216</dc:date>
    <dc:format>image/svg+xml</dc:format>
    <dc:creator>
     <cc:Agent>
      <dc:title>Matplotlib v3.6.3, https://matplotlib.org/</dc:title>
     </cc:Agent>
    </dc:creator>
   </cc:Work>
  </rdf:RDF>
 </metadata>
 <defs>
  <style type="text/css">*{stroke-linejoin: round; stroke-linecap: butt}</style>
 </defs>
 <g id="figure_1">
  <g id="patch_1">
   <path d="M 0 189.578182 
L 795.6 189.578182 
L 795.6 0 
L 0 0 
z
" style="fill: #ffffff"/>
  </g>
  <g id="axes_1">
   <g id="patch_2">
    <path d="M 30.872727 91.83 
L 31.267492 91.82998 
L 31.662257 91.829921 
L 32.057022 91.829822 
L 32.451786 91.829685 
L 32.846551 91.829508 
L 33.241316 91.829292 
L 33.636081 91.829037 
L 34.030845 91.828743 
L 34.42561 91.828411 
L 34.820375 91.82804 
L 35.21514 91.82763 
L 35.609904 91.827181 
L 36.004669 91.826694 
L 36.399434 91.826169 
L 36.794199 91.825606 
L 37.188964 91.825004 
L 37.583728 91.824364 
L 37.978493 91.823686 
L 38.373258 91.822971 
L 38.768023 91.822217 
L 39.162787 91.821426 
L 39.557552 91.820597 
L 39.952317 91.819731 
L 40.347082 91.818827 
L 40.741846 91.817885 
L 41.136611 91.816907 
L 41.531376 91.815891 
L 41.926141 91.814838 
L 42.320906 91.813748 
L 42.71567 91.812621 
L 43.110435 91.811457 
L 43.5052 91.810256 
L 43.899965 91.809019 
L 44.294729 91.807745 
L 44.689494 91.806435 
L 45.084259 91.805088 
L 45.479024 91.803705 
L 45.873788 91.802285 
L 46.268553 91.80083 
L 46.663318 91.799338 
L 47.058083 91.79781 
L 47.452848 91.796247 
L 47.847612 91.794647 
L 48.242377 91.793012 
L 48.637142 91.791341 
L 49.031907 91.789635 
L 49.426671 91.787894 
L 49.821436 91.786116 
L 50.216201 91.784304 
L 50.610966 91.782456 
L 51.00573 91.780574 
L 51.400495 91.778656 
L 51.79526 91.776703 
L 52.190025 91.774716 
L 52.58479 91.772694 
L 52.979554 91.770637 
L 53.374319 91.768545 
L 53.769084 91.766419 
L 54.163849 91.764259 
L 54.558613 91.762064 
L 54.953378 91.759835 
L 55.348143 91.757572 
L 55.742908 91.755275 
L 56.137672 91.752944 
L 56.532437 91.750579 
L 56.927202 91.74818 
L 57.321967 91.745748 
L 57.716732 91.743282 
L 58.111496 91.740782 
L 58.506261 91.738249 
L 58.901026 91.735683 
L 59.295791 91.733083 
L 59.690555 91.73045 
L 60.08532 91.727784 
L 60.480085 91.725086 
L 60.87485 91.722354 
L 61.269614 91.719589 
L 61.664379 91.716792 
L 62.059144 91.713962 
L 62.453909 91.711099 
L 62.848674 91.708204 
L 63.243438 91.705277 
L 63.638203 91.702317 
L 64.032968 91.699325 
L 64.427733 91.696301 
L 64.822497 91.693245 
L 65.217262 91.690157 
L 65.612027 91.687037 
L 66.006792 91.683885 
L 66.401556 91.680702 
L 66.796321 91.677487 
L 67.191086 91.67424 
L 67.585851 91.670962 
L 67.980615 91.667653 
L 68.37538 91.664313 
L 68.770145 91.660941 
L 69.16491 91.657538 
L 69.559675 91.654105 
L 69.954439 91.65064 
L 70.349204 91.647145 
L 70.743969 91.643619 
L 71.138734 91.640062 
L 71.533498 91.636475 
L 71.928263 91.632857 
L 72.323028 91.629209 
L 72.717793 91.625531 
L 73.112557 91.621822 
L 73.507322 91.618084 
L 73.902087 91.614315 
L 74.296852 91.610516 
L 74.691617 91.606688 
L 75.086381 91.60283 
L 75.481146 91.598942 
L 75.875911 91.595025 
L 76.270676 91.591078 
L 76.66544 91.587102 
L 77.060205 91.583096 
L 77.45497 91.579061 
L 77.849735 91.574997 
L 78.244499 91.570904 
L 78.639264 91.566782 
L 79.034029 91.562631 
L 79.428794 91.558452 
L 79.823559 91.554244 
L 80.218323 91.550007 
L 80.613088 91.545741 
L 81.007853 91.541447 
L 81.402618 91.537125 
L 81.797382 91.532775 
L 82.192147 91.528396 
L 82.586912 91.523989 
L 82.981677 91.519555 
L 83.376441 91.515092 
L 83.771206 91.510602 
L 84.165971 91.506083 
L 84.560736 91.501538 
L 84.955501 91.496964 
L 85.350265 91.492363 
L 85.74503 91.487735 
L 86.139795 91.48308 
L 86.53456 91.478397 
L 86.929324 91.473687 
L 87.324089 91.46895 
L 87.718854 91.464187 
L 88.113619 91.459396 
L 88.508383 91.454579 
L 88.903148 91.449734 
L 89.297913 91.444864 
L 89.692678 91.439967 
L 90.087443 91.435043 
L 90.482207 91.430093 
L 90.876972 91.425117 
L 91.271737 91.420115 
L 91.666502 91.415086 
L 92.061266 91.410032 
L 92.456031 91.404952 
L 92.850796 91.399846 
L 93.245561 91.394714 
L 93.640325 91.389557 
L 94.03509 91.384374 
L 94.429855 91.379166 
L 94.82462 91.373932 
L 95.219385 91.368673 
L 95.614149 91.363389 
L 96.008914 91.35808 
L 96.403679 91.352745 
L 96.798444 91.347386 
L 97.193208 91.342002 
L 97.587973 91.336593 
L 97.982738 91.33116 
L 98.377503 91.325702 
L 98.772267 91.32022 
L 99.167032 91.314713 
L 99.561797 91.309182 
L 99.956562 91.303626 
L 100.351326 91.298047 
L 100.746091 91.292443 
L 101.140856 91.286816 
L 101.535621 91.281165 
L 101.930386 91.275489 
L 102.32515 91.269791 
L 102.719915 91.264068 
L 103.11468 91.258322 
L 103.509445 91.252553 
L 103.904209 91.24676 
L 104.298974 91.240944 
L 104.693739 91.235105 
L 105.088504 91.229243 
L 105.483268 91.223358 
L 105.878033 91.21745 
L 106.272798 91.211519 
L 106.667563 91.205565 
L 107.062328 91.199589 
L 107.457092 91.19359 
L 107.851857 91.187569 
L 108.246622 91.181525 
L 108.641387 91.175459 
L 109.036151 91.169371 
L 109.430916 91.163261 
L 109.825681 91.157129 
L 110.220446 91.150975 
L 110.61521 91.144799 
L 111.009975 91.138601 
L 111.40474 91.132381 
L 111.799505 91.12614 
L 112.19427 91.119878 
L 112.589034 91.113594 
L 112.983799 91.107289 
L 113.378564 91.100962 
L 113.773329 91.094615 
L 114.168093 91.088246 
L 114.562858 91.081856 
L 114.957623 91.075446 
L 115.352388 91.069014 
L 115.747152 91.062562 
L 116.141917 91.05609 
L 116.536682 91.049597 
L 116.931447 91.043083 
L 117.326212 91.036549 
L 117.720976 91.029995 
L 118.115741 91.02342 
L 118.510506 91.016826 
L 118.905271 91.010211 
L 119.300035 91.003577 
L 119.6948 90.996923 
L 120.089565 90.990249 
L 120.48433 90.983555 
L 120.879094 90.976842 
L 121.273859 90.970109 
L 121.668624 90.963357 
L 122.063389 90.956586 
L 122.458154 90.949795 
L 122.852918 90.942986 
L 123.247683 90.936157 
L 123.642448 90.929309 
L 124.037213 90.922443 
L 124.431977 90.915557 
L 124.826742 90.908653 
L 125.221507 90.901731 
L 125.616272 90.89479 
L 126.011036 90.88783 
L 126.405801 90.880852 
L 126.800566 90.873856 
L 127.195331 90.866842 
L 127.590096 90.85981 
L 127.98486 90.852759 
L 128.379625 90.845691 
L 128.77439 90.838605 
L 129.169155 90.831501 
L 129.563919 90.82438 
L 129.958684 90.817241 
L 130.353449 90.810085 
L 130.748214 90.802911 
L 131.142978 90.79572 
L 131.537743 90.788512 
L 131.932508 90.781287 
L 132.327273 90.774044 
L 132.722037 90.766785 
L 133.116802 90.759509 
L 133.511567 90.752216 
L 133.906332 90.744907 
L 134.301097 90.737581 
L 134.695861 90.730238 
L 135.090626 90.722879 
L 135.485391 90.715504 
L 135.880156 90.708112 
L 136.27492 90.700705 
L 136.669685 90.693281 
L 137.06445 90.685841 
L 137.459215 90.678386 
L 137.853979 90.670915 
L 138.248744 90.663428 
L 138.643509 90.655925 
L 139.038274 90.648407 
L 139.433039 90.640873 
L 139.827803 90.633324 
L 140.222568 90.62576 
L 140.617333 90.618181 
L 141.012098 90.610586 
L 141.406862 90.602977 
L 141.801627 90.595353 
L 142.196392 90.587714 
L 142.591157 90.58006 
L 142.985921 90.572391 
L 143.380686 90.564708 
L 143.775451 90.557011 
L 144.170216 90.549299 
L 144.564981 90.541572 
L 144.959745 90.533832 
L 145.35451 90.526077 
L 145.749275 90.518309 
L 146.14404 90.510526 
L 146.538804 90.50273 
L 146.933569 90.49492 
L 147.328334 90.487096 
L 147.723099 90.479258 
L 148.117863 90.471408 
L 148.512628 90.463543 
L 148.907393 90.455666 
L 149.302158 90.447775 
L 149.696923 90.439871 
L 150.091687 90.431954 
L 150.486452 90.424023 
L 150.881217 90.41608 
L 151.275982 90.408125 
L 151.670746 90.400156 
L 152.065511 90.392175 
L 152.460276 90.384181 
L 152.855041 90.376175 
L 153.249805 90.368157 
L 153.64457 90.360126 
L 154.039335 90.352083 
L 154.4341 90.344028 
L 154.828865 90.335961 
L 155.223629 90.327882 
L 155.618394 90.319791 
L 156.013159 90.311689 
L 156.407924 90.303575 
L 156.802688 90.295449 
L 157.197453 90.287312 
L 157.592218 90.279163 
L 157.986983 90.271003 
L 158.381747 90.262832 
L 158.776512 90.25465 
L 159.171277 90.246456 
L 159.566042 90.238252 
L 159.960807 90.230037 
L 160.355571 90.221811 
L 160.750336 90.213574 
L 161.145101 90.205327 
L 161.539866 90.197069 
L 161.93463 90.188801 
L 162.329395 90.180523 
L 162.72416 90.172234 
L 163.118925 90.163935 
L 163.513689 90.155626 
L 163.908454 90.147307 
L 164.303219 90.138978 
L 164.697984 90.130639 
L 165.092748 90.122291 
L 165.487513 90.113933 
L 165.882278 90.105565 
L 166.277043 90.097188 
L 166.671808 90.088801 
L 167.066572 90.080406 
L 167.461337 90.072001 
L 167.856102 90.063587 
L 168.250867 90.055163 
L 168.645631 90.046731 
L 169.040396 90.038291 
L 169.435161 90.029841 
L 169.829926 90.021383 
L 170.22469 90.012916 
L 170.619455 90.00444 
L 171.01422 89.995956 
L 171.408985 89.987464 
L 171.80375 89.978964 
L 172.198514 89.970455 
L 172.593279 89.961939 
L 172.988044 89.953414 
L 173.382809 89.944882 
L 173.777573 89.936342 
L 174.172338 89.927794 
L 174.567103 89.919238 
L 174.961868 89.910675 
L 175.356632 89.902105 
L 175.751397 89.893527 
L 176.146162 89.884942 
L 176.540927 89.876349 
L 176.935692 89.86775 
L 177.330456 89.859143 
L 177.725221 89.85053 
L 178.119986 89.84191 
L 178.514751 89.833283 
L 178.909515 89.824649 
L 179.30428 89.816009 
L 179.699045 89.807363 
L 180.09381 89.79871 
L 180.488574 89.790051 
L 180.883339 89.781385 
L 181.278104 89.772713 
L 181.672869 89.764036 
L 182.067634 89.755352 
L 182.462398 89.746663 
L 182.857163 89.737967 
L 183.251928 89.729266 
L 183.646693 89.72056 
L 184.041457 89.711848 
L 184.436222 89.70313 
L 184.830987 89.694408 
L 185.225752 89.68568 
L 185.620516 89.676946 
L 186.015281 89.668208 
L 186.410046 89.659465 
L 186.804811 89.650717 
L 187.199576 89.641964 
L 187.59434 89.633206 
L 187.989105 89.624444 
L 188.38387 89.615677 
L 188.778635 89.606905 
L 189.173399 89.59813 
L 189.568164 89.58935 
L 189.962929 89.580566 
L 190.357694 89.571777 
L 190.752458 89.562985 
L 191.147223 89.554189 
L 191.541988 89.545389 
L 191.936753 89.536585 
L 192.331518 89.527777 
L 192.726282 89.518966 
L 193.121047 89.510152 
L 193.515812 89.501334 
L 193.910577 89.492513 
L 194.305341 89.483688 
L 194.700106 89.474861 
L 195.094871 89.46603 
L 195.489636 89.457196 
L 195.8844 89.44836 
L 196.279165 89.43952 
L 196.67393 89.430678 
L 197.068695 89.421834 
L 197.463459 89.412986 
L 197.858224 89.404137 
L 198.252989 89.395285 
L 198.647754 89.386431 
L 199.042519 89.377574 
L 199.437283 89.368716 
L 199.832048 89.359855 
L 200.226813 89.350993 
L 200.621578 89.342129 
L 201.016342 89.333263 
L 201.411107 89.324395 
L 201.805872 89.315526 
L 202.200637 89.306656 
L 202.595401 89.297784 
L 202.990166 89.28891 
L 203.384931 89.280036 
L 203.779696 89.27116 
L 204.174461 89.262284 
L 204.569225 89.253406 
L 204.96399 89.244528 
L 205.358755 89.235648 
L 205.75352 89.226768 
L 206.148284 89.217888 
L 206.543049 89.209007 
L 206.937814 89.200126 
L 207.332579 89.191244 
L 207.727343 89.182362 
L 208.122108 89.17348 
L 208.516873 89.164597 
L 208.911638 89.155715 
L 209.306403 89.146833 
L 209.701167 89.137951 
L 210.095932 89.12907 
L 210.490697 89.120189 
L 210.885462 89.111308 
L 211.280226 89.102428 
L 211.674991 89.093548 
L 212.069756 89.084669 
L 212.464521 89.075791 
L 212.859285 89.066914 
L 213.25405 89.058038 
L 213.648815 89.049163 
L 214.04358 89.040289 
L 214.438345 89.031416 
L 214.833109 89.022545 
L 215.227874 89.013675 
L 215.622639 89.004807 
L 216.017404 88.99594 
L 216.412168 88.987075 
L 216.806933 88.978212 
L 217.201698 88.96935 
L 217.596463 88.960491 
L 217.991227 88.951633 
L 218.385992 88.942778 
L 218.780757 88.933925 
L 219.175522 88.925074 
L 219.570287 88.916226 
L 219.965051 88.90738 
L 220.359816 88.898536 
L 220.754581 88.889696 
L 221.149346 88.880858 
L 221.54411 88.872023 
L 221.938875 88.863191 
L 222.33364 88.854361 
L 222.728405 88.845535 
L 223.123169 88.836712 
L 223.517934 88.827893 
L 223.912699 88.819076 
L 224.307464 88.810264 
L 224.702229 88.801454 
L 225.096993 88.792649 
L 225.491758 88.783847 
L 225.886523 88.775049 
L 226.281288 88.766254 
L 226.676052 88.757464 
L 227.070817 88.748678 
L 227.465582 88.739896 
L 227.860347 88.731118 
L 228.255111 88.722344 
L 228.649876 88.713575 
L 229.044641 88.704811 
L 229.439406 88.696051 
L 229.83417 88.687295 
L 230.228935 88.678545 
L 230.6237 88.669799 
L 231.018465 88.661058 
L 231.41323 88.652322 
L 231.807994 88.643592 
L 232.202759 88.634866 
L 232.597524 88.626146 
L 232.992289 88.617431 
L 233.387053 88.608722 
L 233.781818 88.600018 
L 234.176583 88.59132 
L 234.571348 88.582628 
L 234.966112 88.573941 
L 235.360877 88.565261 
L 235.755642 88.556586 
L 236.150407 88.547917 
L 236.545172 88.539255 
L 236.939936 88.530599 
L 237.334701 88.521949 
L 237.729466 88.513306 
L 238.124231 88.504669 
L 238.518995 88.496039 
L 238.91376 88.487415 
L 239.308525 88.478798 
L 239.70329 88.470189 
L 240.098054 88.461586 
L 240.492819 88.45299 
L 240.887584 88.444401 
L 241.282349 88.435819 
L 241.677114 88.427245 
L 242.071878 88.418678 
L 242.466643 88.410119 
L 242.861408 88.401567 
L 243.256173 88.393023 
L 243.650937 88.384487 
L 244.045702 88.375958 
L 244.440467 88.367438 
L 244.835232 88.358925 
L 245.229996 88.350421 
L 245.624761 88.341925 
L 246.019526 88.333437 
L 246.414291 88.324957 
L 246.809056 88.316486 
L 247.20382 88.308023 
L 247.598585 88.299569 
L 247.99335 88.291124 
L 248.388115 88.282687 
L 248.782879 88.27426 
L 249.177644 88.265841 
L 249.572409 88.257432 
L 249.967174 88.249031 
L 250.361938 88.24064 
L 250.756703 88.232258 
L 251.151468 88.223886 
L 251.546233 88.215523 
L 251.940998 88.20717 
L 252.335762 88.198826 
L 252.730527 88.190492 
L 253.125292 88.182168 
L 253.520057 88.173854 
L 253.914821 88.16555 
L 254.309586 88.157257 
L 254.704351 88.148973 
L 255.099116 88.1407 
L 255.49388 88.132437 
L 255.888645 88.124184 
L 256.28341 88.115942 
L 256.678175 88.107711 
L 257.07294 88.09949 
L 257.467704 88.09128 
L 257.862469 88.083082 
L 258.257234 88.074894 
L 258.651999 88.066717 
L 259.046763 88.058552 
L 259.441528 88.050397 
L 259.836293 88.042254 
L 260.231058 88.034123 
L 260.625822 88.026003 
L 261.020587 88.017894 
L 261.415352 88.009798 
L 261.810117 88.001713 
L 262.204881 87.99364 
L 262.599646 87.985579 
L 262.994411 87.97753 
L 263.389176 87.969493 
L 263.783941 87.961468 
L 264.178705 87.953456 
L 264.57347 87.945456 
L 264.968235 87.937469 
L 265.363 87.929494 
L 265.757764 87.921532 
L 266.152529 87.913582 
L 266.547294 87.905646 
L 266.942059 87.897722 
L 267.336823 87.889812 
L 267.731588 87.881914 
L 268.126353 87.87403 
L 268.521118 87.866159 
L 268.915883 87.858301 
L 269.310647 87.850457 
L 269.705412 87.842627 
L 270.100177 87.83481 
L 270.494942 87.827006 
L 270.889706 87.819217 
L 271.284471 87.811441 
L 271.679236 87.80368 
L 272.074001 87.795932 
L 272.468765 87.788199 
L 272.86353 87.78048 
L 273.258295 87.772775 
L 273.65306 87.765085 
L 274.047825 87.757409 
L 274.442589 87.749748 
L 274.837354 87.742101 
L 275.232119 87.734469 
L 275.626884 87.726852 
L 276.021648 87.71925 
L 276.416413 87.711664 
L 276.811178 87.704092 
L 277.205943 87.696535 
L 277.600707 87.688994 
L 277.995472 87.681468 
L 278.390237 87.673958 
L 278.785002 87.666463 
L 279.179767 87.658984 
L 279.574531 87.65152 
L 279.969296 87.644073 
L 280.364061 87.636641 
L 280.758826 87.629225 
L 281.15359 87.621826 
L 281.548355 87.614442 
L 281.94312 87.607075 
L 282.337885 87.599725 
L 282.732649 87.59239 
L 283.127414 87.585072 
L 283.522179 87.577771 
L 283.916944 87.570487 
L 284.311709 87.563219 
L 284.706473 87.555968 
L 285.101238 87.548735 
L 285.496003 87.541518 
L 285.890768 87.534318 
L 286.285532 87.527136 
L 286.680297 87.519971 
L 287.075062 87.512823 
L 287.469827 87.505693 
L 287.864591 87.498581 
L 288.259356 87.491486 
L 288.654121 87.484409 
L 289.048886 87.477349 
L 289.443651 87.470308 
L 289.838415 87.463285 
L 290.23318 87.45628 
L 290.627945 87.449293 
L 291.02271 87.442324 
L 291.417474 87.435374 
L 291.812239 87.428442 
L 292.207004 87.421528 
L 292.601769 87.414634 
L 292.996533 87.407758 
L 293.391298 87.400901 
L 293.786063 87.394062 
L 294.180828 87.387243 
L 294.575593 87.380443 
L 294.970357 87.373662 
L 295.365122 87.3669 
L 295.759887 87.360158 
L 296.154652 87.353435 
L 296.549416 87.346732 
L 296.944181 87.340048 
L 297.338946 87.333384 
L 297.733711 87.326739 
L 298.128475 87.320115 
L 298.52324 87.31351 
L 298.918005 87.306926 
L 299.31277 87.300362 
L 299.707534 87.293818 
L 300.102299 87.287294 
L 300.497064 87.28079 
L 300.891829 87.274307 
L 301.286594 87.267845 
L 301.681358 87.261403 
L 302.076123 87.254982 
L 302.470888 87.248582 
L 302.865653 87.242203 
L 303.260417 87.235845 
L 303.655182 87.229508 
L 304.049947 87.223192 
L 304.444712 87.216897 
L 304.839476 87.210624 
L 305.234241 87.204372 
L 305.629006 87.198142 
L 306.023771 87.191934 
L 306.418536 87.185747 
L 306.8133 87.179582 
L 307.208065 87.173438 
L 307.60283 87.167317 
L 307.997595 87.161218 
L 308.392359 87.155141 
L 308.787124 87.149086 
L 309.181889 87.143054 
L 309.576654 87.137044 
L 309.971418 87.131056 
L 310.366183 87.125091 
L 310.760948 87.119149 
L 311.155713 87.113229 
L 311.550478 87.107333 
L 311.945242 87.101459 
L 312.340007 87.095608 
L 312.734772 87.089781 
L 313.129537 87.083977 
L 313.524301 87.078196 
L 313.919066 87.072438 
L 314.313831 87.066704 
L 314.708596 87.060993 
L 315.10336 87.055306 
L 315.498125 87.049643 
L 315.89289 87.044003 
L 316.287655 87.038388 
L 316.68242 87.032796 
L 317.077184 87.027229 
L 317.471949 87.021686 
L 317.866714 87.016167 
L 318.261479 87.010672 
L 318.656243 87.005202 
L 319.051008 86.999756 
L 319.445773 86.994335 
L 319.840538 86.988939 
L 320.235302 86.983567 
L 320.630067 86.97822 
L 321.024832 86.972899 
L 321.419597 86.967602 
L 321.814362 86.96233 
L 322.209126 86.957084 
L 322.603891 86.951863 
L 322.998656 86.946667 
L 323.393421 86.941497 
L 323.788185 86.936353 
L 324.18295 86.931234 
L 324.577715 86.926141 
L 324.97248 86.921074 
L 325.367244 86.916032 
L 325.762009 86.911017 
L 326.156774 86.906028 
L 326.551539 86.901065 
L 326.946304 86.896128 
L 327.341068 86.891217 
L 327.735833 86.886334 
L 328.130598 86.881476 
L 328.525363 86.876645 
L 328.920127 86.871841 
L 329.314892 86.867064 
L 329.709657 86.862314 
L 330.104422 86.857591 
L 330.499186 86.852894 
L 330.893951 86.848225 
L 331.288716 86.843583 
L 331.683481 86.838969 
L 332.078245 86.834382 
L 332.47301 86.829822 
L 332.867775 86.82529 
L 333.26254 86.820786 
L 333.657305 86.816309 
L 334.052069 86.811861 
L 334.446834 86.80744 
L 334.841599 86.803047 
L 335.236364 86.798683 
L 335.631128 86.794346 
L 336.025893 86.790038 
L 336.420658 86.785759 
L 336.815423 86.781507 
L 337.210187 86.777285 
L 337.604952 86.773091 
L 337.999717 86.768926 
L 338.394482 86.764789 
L 338.789247 86.760682 
L 339.184011 86.756603 
L 339.578776 86.752554 
L 339.973541 86.748534 
L 340.368306 86.744543 
L 340.76307 86.740581 
L 341.157835 86.736649 
L 341.5526 86.732746 
L 341.947365 86.728873 
L 342.342129 86.72503 
L 342.736894 86.721217 
L 343.131659 86.717433 
L 343.526424 86.713679 
L 343.921189 86.709956 
L 344.315953 86.706262 
L 344.710718 86.702599 
L 345.105483 86.698966 
L 345.500248 86.695364 
L 345.895012 86.691792 
L 346.289777 86.68825 
L 346.684542 86.68474 
L 347.079307 86.68126 
L 347.474071 86.677811 
L 347.868836 86.674392 
L 348.263601 86.671005 
L 348.658366 86.667649 
L 349.053131 86.664324 
L 349.447895 86.661031 
L 349.84266 86.657769 
L 350.237425 86.654538 
L 350.63219 86.651339 
L 351.026954 86.648171 
L 351.421719 86.645035 
L 351.816484 86.641931 
L 352.211249 86.638859 
L 352.606013 86.635819 
L 353.000778 86.632811 
L 353.395543 86.629835 
L 353.790308 86.626892 
L 354.185073 86.62398 
L 354.579837 86.621102 
L 354.974602 86.618255 
L 355.369367 86.615442 
L 355.764132 86.61266 
L 356.158896 86.609912 
L 356.553661 86.607197 
L 356.948426 86.604514 
L 357.343191 86.601865 
L 357.737955 86.599249 
L 358.13272 86.596666 
L 358.527485 86.594116 
L 358.92225 86.5916 
L 359.317015 86.589117 
L 359.711779 86.586668 
L 360.106544 86.584252 
L 360.501309 86.58187 
L 360.896074 86.579522 
L 361.290838 86.577208 
L 361.685603 86.574928 
L 362.080368 86.572682 
L 362.475133 86.57047 
L 362.869897 86.568293 
L 363.264662 86.566149 
L 363.659427 86.564041 
L 364.054192 86.561966 
L 364.448956 86.559927 
L 364.843721 86.557922 
L 365.238486 86.555952 
L 365.633251 86.554017 
L 366.028016 86.552117 
L 366.42278 86.550251 
L 366.817545 86.548421 
L 367.21231 86.546627 
L 367.607075 86.544867 
L 368.001839 86.543143 
L 368.396604 86.541455 
L 368.791369 86.539802 
L 369.186134 86.538185 
L 369.580898 86.536603 
L 369.975663 86.535057 
L 370.370428 86.533548 
L 370.765193 86.532074 
L 371.159958 86.530637 
L 371.554722 86.529235 
L 371.949487 86.52787 
L 372.344252 86.526542 
L 372.739017 86.525249 
L 373.133781 86.523994 
L 373.528546 86.522775 
L 373.923311 86.521593 
L 374.318076 86.520447 
L 374.71284 86.519339 
L 375.107605 86.518267 
L 375.50237 86.517233 
L 375.897135 86.516235 
L 376.2919 86.515275 
L 376.686664 86.514353 
L 377.081429 86.513468 
L 377.476194 86.51262 
L 377.870959 86.51181 
L 378.265723 86.511037 
L 378.660488 86.510303 
L 379.055253 86.509606 
L 379.450018 86.508947 
L 379.844782 86.508326 
L 380.239547 86.507744 
L 380.634312 86.507199 
L 381.029077 86.506693 
L 381.423842 86.506226 
L 381.818606 86.505797 
L 382.213371 86.505406 
L 382.608136 86.505054 
L 383.002901 86.504741 
L 383.397665 86.504467 
L 383.79243 86.504231 
L 384.187195 86.504035 
L 384.58196 86.503878 
L 384.976724 86.503759 
L 385.371489 86.503681 
L 385.766254 86.503641 
L 386.161019 86.503647 
L 386.555784 86.503734 
L 386.950548 86.503909 
L 387.345313 86.50417 
L 387.740078 86.504517 
L 388.134843 86.504951 
L 388.529607 86.505471 
L 388.924372 86.506077 
L 389.319137 86.506769 
L 389.713902 86.507546 
L 390.108666 86.508408 
L 390.503431 86.509355 
L 390.898196 86.510387 
L 391.292961 86.511504 
L 391.687726 86.512705 
L 392.08249 86.51399 
L 392.477255 86.515359 
L 392.87202 86.516812 
L 393.266785 86.518349 
L 393.661549 86.519968 
L 394.056314 86.52167 
L 394.451079 86.523456 
L 394.845844 86.525324 
L 395.240608 86.527274 
L 395.635373 86.529306 
L 396.030138 86.531421 
L 396.424903 86.533617 
L 396.819667 86.535894 
L 397.214432 86.538253 
L 397.609197 86.540693 
L 398.003962 86.543213 
L 398.398727 86.545814 
L 398.793491 86.548496 
L 399.188256 86.551258 
L 399.583021 86.554099 
L 399.977786 86.557021 
L 400.37255 86.560021 
L 400.767315 86.563102 
L 401.16208 86.566261 
L 401.556845 86.569499 
L 401.951609 86.572815 
L 402.346374 86.57621 
L 402.741139 86.579683 
L 403.135904 86.583234 
L 403.530669 86.586863 
L 403.925433 86.590569 
L 404.320198 86.594353 
L 404.714963 86.598213 
L 405.109728 86.60215 
L 405.504492 86.606164 
L 405.899257 86.610255 
L 406.294022 86.614421 
L 406.688787 86.618664 
L 407.083551 86.622982 
L 407.478316 86.627376 
L 407.873081 86.631845 
L 408.267846 86.636389 
L 408.662611 86.641008 
L 409.057375 86.645701 
L 409.45214 86.650469 
L 409.846905 86.655311 
L 410.24167 86.660227 
L 410.636434 86.665217 
L 411.031199 86.67028 
L 411.425964 86.675417 
L 411.820729 86.680626 
L 412.215493 86.685909 
L 412.610258 86.691264 
L 413.005023 86.696691 
L 413.399788 86.702191 
L 413.794553 86.707763 
L 414.189317 86.713406 
L 414.584082 86.719121 
L 414.978847 86.724907 
L 415.373612 86.730764 
L 415.768376 86.736693 
L 416.163141 86.742691 
L 416.557906 86.748761 
L 416.952671 86.7549 
L 417.347435 86.761109 
L 417.7422 86.767388 
L 418.136965 86.773737 
L 418.53173 86.780155 
L 418.926495 86.786642 
L 419.321259 86.793198 
L 419.716024 86.799823 
L 420.110789 86.806515 
L 420.505554 86.813277 
L 420.900318 86.820106 
L 421.295083 86.827003 
L 421.689848 86.833967 
L 422.084613 86.840999 
L 422.479377 86.848098 
L 422.874142 86.855263 
L 423.268907 86.862496 
L 423.663672 86.869795 
L 424.058437 86.87716 
L 424.453201 86.884591 
L 424.847966 86.892088 
L 425.242731 86.89965 
L 425.637496 86.907277 
L 426.03226 86.91497 
L 426.427025 86.922728 
L 426.82179 86.93055 
L 427.216555 86.938437 
L 427.611319 86.946388 
L 428.006084 86.954403 
L 428.400849 86.962482 
L 428.795614 86.970624 
L 429.190378 86.97883 
L 429.585143 86.987098 
L 429.979908 86.99543 
L 430.374673 87.003824 
L 430.769438 87.012281 
L 431.164202 87.0208 
L 431.558967 87.029381 
L 431.953732 87.038024 
L 432.348497 87.046728 
L 432.743261 87.055494 
L 433.138026 87.064321 
L 433.532791 87.073208 
L 433.927556 87.082157 
L 434.32232 87.091166 
L 434.717085 87.100235 
L 435.11185 87.109364 
L 435.506615 87.118553 
L 435.90138 87.127801 
L 436.296144 87.137109 
L 436.690909 87.146476 
L 437.085674 87.155902 
L 437.480439 87.165386 
L 437.875203 87.174929 
L 438.269968 87.184531 
L 438.664733 87.19419 
L 439.059498 87.203907 
L 439.454262 87.213682 
L 439.849027 87.223514 
L 440.243792 87.233403 
L 440.638557 87.243349 
L 441.033322 87.253352 
L 441.428086 87.263411 
L 441.822851 87.273527 
L 442.217616 87.283698 
L 442.612381 87.293925 
L 443.007145 87.304208 
L 443.40191 87.314547 
L 443.796675 87.32494 
L 444.19144 87.335389 
L 444.586204 87.345892 
L 444.980969 87.356449 
L 445.375734 87.367061 
L 445.770499 87.377727 
L 446.165264 87.388447 
L 446.560028 87.39922 
L 446.954793 87.410047 
L 447.349558 87.420927 
L 447.744323 87.43186 
L 448.139087 87.442845 
L 448.533852 87.453883 
L 448.928617 87.464973 
L 449.323382 87.476116 
L 449.718146 87.48731 
L 450.112911 87.498556 
L 450.507676 87.509853 
L 450.902441 87.521201 
L 451.297206 87.532601 
L 451.69197 87.544051 
L 452.086735 87.555551 
L 452.4815 87.567102 
L 452.876265 87.578703 
L 453.271029 87.590353 
L 453.665794 87.602054 
L 454.060559 87.613803 
L 454.455324 87.625602 
L 454.850088 87.63745 
L 455.244853 87.649347 
L 455.639618 87.661292 
L 456.034383 87.673285 
L 456.429148 87.685327 
L 456.823912 87.697416 
L 457.218677 87.709553 
L 457.613442 87.721737 
L 458.008207 87.733969 
L 458.402971 87.746247 
L 458.797736 87.758572 
L 459.192501 87.770944 
L 459.587266 87.783362 
L 459.98203 87.795826 
L 460.376795 87.808336 
L 460.77156 87.820892 
L 461.166325 87.833493 
L 461.561089 87.846139 
L 461.955854 87.85883 
L 462.350619 87.871566 
L 462.745384 87.884347 
L 463.140149 87.897171 
L 463.534913 87.91004 
L 463.929678 87.922953 
L 464.324443 87.935909 
L 464.719208 87.948909 
L 465.113972 87.961952 
L 465.508737 87.975038 
L 465.903502 87.988167 
L 466.298267 88.001338 
L 466.693031 88.014552 
L 467.087796 88.027807 
L 467.482561 88.041105 
L 467.877326 88.054444 
L 468.272091 88.067825 
L 468.666855 88.081247 
L 469.06162 88.094709 
L 469.456385 88.108213 
L 469.85115 88.121757 
L 470.245914 88.135342 
L 470.640679 88.148966 
L 471.035444 88.162631 
L 471.430209 88.176335 
L 471.824973 88.190079 
L 472.219738 88.203861 
L 472.614503 88.217683 
L 473.009268 88.231544 
L 473.404033 88.245443 
L 473.798797 88.25938 
L 474.193562 88.273356 
L 474.588327 88.287369 
L 474.983092 88.301421 
L 475.377856 88.315509 
L 475.772621 88.329635 
L 476.167386 88.343798 
L 476.562151 88.357998 
L 476.956915 88.372234 
L 477.35168 88.386506 
L 477.746445 88.400815 
L 478.14121 88.41516 
L 478.535975 88.42954 
L 478.930739 88.443955 
L 479.325504 88.458406 
L 479.720269 88.472892 
L 480.115034 88.487413 
L 480.509798 88.501968 
L 480.904563 88.516558 
L 481.299328 88.531182 
L 481.694093 88.54584 
L 482.088857 88.560531 
L 482.483622 88.575256 
L 482.878387 88.590014 
L 483.273152 88.604805 
L 483.667917 88.619629 
L 484.062681 88.634486 
L 484.457446 88.649375 
L 484.852211 88.664296 
L 485.246976 88.679249 
L 485.64174 88.694233 
L 486.036505 88.709249 
L 486.43127 88.724297 
L 486.826035 88.739375 
L 487.220799 88.754485 
L 487.615564 88.769624 
L 488.010329 88.784795 
L 488.405094 88.799995 
L 488.799859 88.815225 
L 489.194623 88.830485 
L 489.589388 88.845775 
L 489.984153 88.861093 
L 490.378918 88.876441 
L 490.773682 88.891818 
L 491.168447 88.907223 
L 491.563212 88.922657 
L 491.957977 88.938118 
L 492.352741 88.953608 
L 492.747506 88.969126 
L 493.142271 88.98467 
L 493.537036 89.000243 
L 493.9318 89.015842 
L 494.326565 89.031468 
L 494.72133 89.047121 
L 495.116095 89.0628 
L 495.51086 89.078505 
L 495.905624 89.094236 
L 496.300389 89.109993 
L 496.695154 89.125775 
L 497.089919 89.141583 
L 497.484683 89.157416 
L 497.879448 89.173273 
L 498.274213 89.189155 
L 498.668978 89.205062 
L 499.063742 89.220993 
L 499.458507 89.236948 
L 499.853272 89.252926 
L 500.248037 89.268928 
L 500.642802 89.284953 
L 501.037566 89.301002 
L 501.432331 89.317073 
L 501.827096 89.333167 
L 502.221861 89.349283 
L 502.616625 89.365421 
L 503.01139 89.381582 
L 503.406155 89.397764 
L 503.80092 89.413967 
L 504.195684 89.430192 
L 504.590449 89.446438 
L 504.985214 89.462705 
L 505.379979 89.478993 
L 505.774744 89.495301 
L 506.169508 89.511629 
L 506.564273 89.527977 
L 506.959038 89.544345 
L 507.353803 89.560732 
L 507.748567 89.577139 
L 508.143332 89.593564 
L 508.538097 89.610009 
L 508.932862 89.626472 
L 509.327626 89.642954 
L 509.722391 89.659454 
L 510.117156 89.675972 
L 510.511921 89.692508 
L 510.906686 89.709061 
L 511.30145 89.725631 
L 511.696215 89.742219 
L 512.09098 89.758823 
L 512.485745 89.775444 
L 512.880509 89.792082 
L 513.275274 89.808736 
L 513.670039 89.825406 
L 514.064804 89.842091 
L 514.459568 89.858792 
L 514.854333 89.875509 
L 515.249098 89.89224 
L 515.643863 89.908987 
L 516.038628 89.925748 
L 516.433392 89.942523 
L 516.828157 89.959313 
L 517.222922 89.976117 
L 517.617687 89.992934 
L 518.012451 90.009765 
L 518.407216 90.02661 
L 518.801981 90.043467 
L 519.196746 90.060338 
L 519.59151 90.077221 
L 519.986275 90.094116 
L 520.38104 90.111024 
L 520.775805 90.127944 
L 521.17057 90.144875 
L 521.565334 90.161818 
L 521.960099 90.178773 
L 522.354864 90.195738 
L 522.749629 90.212715 
L 523.144393 90.229702 
L 523.539158 90.2467 
L 523.933923 90.263708 
L 524.328688 90.280726 
L 524.723452 90.297753 
L 525.118217 90.314791 
L 525.512982 90.331837 
L 525.907747 90.348893 
L 526.302511 90.365958 
L 526.697276 90.383031 
L 527.092041 90.400113 
L 527.486806 90.417203 
L 527.881571 90.434301 
L 528.276335 90.451407 
L 528.6711 90.46852 
L 529.065865 90.485641 
L 529.46063 90.502769 
L 529.855394 90.519904 
L 530.250159 90.537046 
L 530.644924 90.554194 
L 531.039689 90.571348 
L 531.434453 90.588509 
L 531.829218 90.605675 
L 532.223983 90.622847 
L 532.618748 90.640024 
L 533.013513 90.657206 
L 533.408277 90.674393 
L 533.803042 90.691585 
L 534.197807 90.708782 
L 534.592572 90.725982 
L 534.987336 90.743187 
L 535.382101 90.760396 
L 535.776866 90.777608 
L 536.171631 90.794823 
L 536.566395 90.812042 
L 536.96116 90.829264 
L 537.355925 90.846488 
L 537.75069 90.863715 
L 538.145455 90.880944 
L 538.540219 90.898175 
L 538.934984 90.915408 
L 539.329749 90.932643 
L 539.724514 90.949879 
L 540.119278 90.967116 
L 540.514043 90.984354 
L 540.908808 91.001593 
L 541.303573 91.018833 
L 541.698337 91.036072 
L 542.093102 91.053312 
L 542.487867 91.070551 
L 542.882632 91.087791 
L 543.277397 91.105029 
L 543.672161 91.122267 
L 544.066926 91.139504 
L 544.461691 91.156739 
L 544.856456 91.173973 
L 545.25122 91.191205 
L 545.645985 91.208436 
L 546.04075 91.225664 
L 546.435515 91.24289 
L 546.830279 91.260113 
L 547.225044 91.277333 
L 547.619809 91.294551 
L 548.014574 91.311765 
L 548.409339 91.328975 
L 548.804103 91.346182 
L 549.198868 91.363385 
L 549.593633 91.380584 
L 549.988398 91.397779 
L 550.383162 91.414968 
L 550.777927 91.432154 
L 551.172692 91.449334 
L 551.567457 91.466508 
L 551.962221 91.483678 
L 552.356986 91.500841 
L 552.751751 91.517999 
L 553.146516 91.535151 
L 553.541281 91.552296 
L 553.936045 91.569435 
L 554.33081 91.586567 
L 554.725575 91.603692 
L 555.12034 91.620809 
L 555.515104 91.63792 
L 555.909869 91.655022 
L 556.304634 91.672117 
L 556.699399 91.689203 
L 557.094163 91.706281 
L 557.488928 91.723351 
L 557.883693 91.740412 
L 558.278458 91.757463 
L 558.673222 91.774506 
L 559.067987 91.791539 
L 559.462752 91.808562 
L 559.857517 91.825576 
L 560.252282 91.842579 
L 560.647046 91.859572 
L 561.041811 91.876555 
L 561.436576 91.893527 
L 561.831341 91.910487 
L 562.226105 91.927437 
L 562.62087 91.944375 
L 563.015635 91.961301 
L 563.4104 91.978216 
L 563.805164 91.995118 
L 564.199929 92.012009 
L 564.594694 92.028886 
L 564.989459 92.045751 
L 565.384224 92.062603 
L 565.778988 92.079441 
L 566.173753 92.096266 
L 566.568518 92.113078 
L 566.963283 92.129876 
L 567.358047 92.146659 
L 567.752812 92.163428 
L 568.147577 92.180183 
L 568.542342 92.196923 
L 568.937106 92.213648 
L 569.331871 92.230357 
L 569.726636 92.247052 
L 570.121401 92.26373 
L 570.516166 92.280393 
L 570.91093 92.29704 
L 571.305695 92.31367 
L 571.70046 92.330284 
L 572.095225 92.346881 
L 572.489989 92.363461 
L 572.884754 92.380024 
L 573.279519 92.39657 
L 573.674284 92.413098 
L 574.069048 92.429608 
L 574.463813 92.4461 
L 574.858578 92.462573 
L 575.253343 92.479028 
L 575.648108 92.495465 
L 576.042872 92.511882 
L 576.437637 92.52828 
L 576.832402 92.544659 
L 577.227167 92.561019 
L 577.621931 92.577358 
L 578.016696 92.593677 
L 578.411461 92.609976 
L 578.806226 92.626255 
L 579.20099 92.642512 
L 579.595755 92.658749 
L 579.99052 92.674965 
L 580.385285 92.691159 
L 580.78005 92.707332 
L 581.174814 92.723482 
L 581.569579 92.739611 
L 581.964344 92.755717 
L 582.359109 92.771801 
L 582.753873 92.787863 
L 583.148638 92.803901 
L 583.543403 92.819916 
L 583.938168 92.835908 
L 584.332932 92.851876 
L 584.727697 92.86782 
L 585.122462 92.88374 
L 585.517227 92.899636 
L 585.911992 92.915507 
L 586.306756 92.931354 
L 586.701521 92.947176 
L 587.096286 92.962972 
L 587.491051 92.978744 
L 587.885815 92.994489 
L 588.28058 93.010209 
L 588.675345 93.025903 
L 589.07011 93.04157 
L 589.464874 93.057211 
L 589.859639 93.072826 
L 590.254404 93.088413 
L 590.649169 93.103973 
L 591.043933 93.119506 
L 591.438698 93.135011 
L 591.833463 93.150489 
L 592.228228 93.165938 
L 592.622993 93.181359 
L 593.017757 93.196752 
L 593.412522 93.212116 
L 593.807287 93.227451 
L 594.202052 93.242757 
L 594.596816 93.258034 
L 594.991581 93.273281 
L 595.386346 93.288498 
L 595.781111 93.303685 
L 596.175875 93.318842 
L 596.57064 93.333968 
L 596.965405 93.349064 
L 597.36017 93.364129 
L 597.754935 93.379163 
L 598.149699 93.394165 
L 598.544464 93.409136 
L 598.939229 93.424075 
L 599.333994 93.438982 
L 599.728758 93.453856 
L 600.123523 93.468699 
L 600.518288 93.483508 
L 600.913053 93.498285 
L 601.307817 93.513029 
L 601.702582 93.527739 
L 602.097347 93.542415 
L 602.492112 93.557058 
L 602.886877 93.571667 
L 603.281641 93.586242 
L 603.676406 93.600782 
L 604.071171 93.615288 
L 604.465936 93.629758 
L 604.8607 93.644194 
L 605.255465 93.658594 
L 605.65023 93.672958 
L 606.044995 93.687287 
L 606.439759 93.70158 
L 606.834524 93.715837 
L 607.229289 93.730057 
L 607.624054 93.74424 
L 608.018819 93.758387 
L 608.413583 93.772497 
L 608.808348 93.786569 
L 609.203113 93.800603 
L 609.597878 93.8146 
L 609.992642 93.828559 
L 610.387407 93.84248 
L 610.782172 93.856362 
L 611.176937 93.870206 
L 611.571701 93.88401 
L 611.966466 93.897776 
L 612.361231 93.911502 
L 612.755996 93.925189 
L 613.150761 93.938836 
L 613.545525 93.952443 
L 613.94029 93.96601 
L 614.335055 93.979536 
L 614.72982 93.993022 
L 615.124584 94.006467 
L 615.519349 94.019871 
L 615.914114 94.033233 
L 616.308879 94.046554 
L 616.703643 94.059833 
L 617.098408 94.073071 
L 617.493173 94.086266 
L 617.887938 94.099418 
L 618.282703 94.112528 
L 618.677467 94.125596 
L 619.072232 94.13862 
L 619.466997 94.1516 
L 619.861762 94.164538 
L 620.256526 94.177431 
L 620.651291 94.190281 
L 621.046056 94.203086 
L 621.440821 94.215847 
L 621.835585 94.228563 
L 622.23035 94.241235 
L 622.625115 94.253861 
L 623.01988 94.266442 
L 623.414644 94.278978 
L 623.809409 94.291468 
L 624.204174 94.303912 
L 624.598939 94.316309 
L 624.993704 94.328661 
L 625.388468 94.340965 
L 625.783233 94.353223 
L 626.177998 94.365434 
L 626.572763 94.377598 
L 626.967527 94.389714 
L 627.362292 94.401782 
L 627.757057 94.413802 
L 628.151822 94.425775 
L 628.546586 94.437698 
L 628.941351 94.449574 
L 629.336116 94.4614 
L 629.730881 94.473177 
L 630.125646 94.484905 
L 630.52041 94.496584 
L 630.915175 94.508213 
L 631.30994 94.519792 
L 631.704705 94.53132 
L 632.099469 94.542799 
L 632.494234 94.554227 
L 632.888999 94.565604 
L 633.283764 94.576929 
L 633.678528 94.588204 
L 634.073293 94.599427 
L 634.468058 94.610599 
L 634.862823 94.621718 
L 635.257588 94.632786 
L 635.652352 94.643801 
L 636.047117 94.654763 
L 636.441882 94.665673 
L 636.836647 94.676529 
L 637.231411 94.687332 
L 637.626176 94.698082 
L 638.020941 94.708778 
L 638.415706 94.719421 
L 638.81047 94.730009 
L 639.205235 94.740542 
L 639.6 94.751022 
L 639.994765 94.761446 
L 640.38953 94.771815 
L 640.784294 94.782129 
L 641.179059 94.792388 
L 641.573824 94.802591 
L 641.968589 94.812738 
L 642.363353 94.822829 
L 642.758118 94.832863 
L 643.152883 94.842841 
L 643.547648 94.852762 
L 643.942412 94.862626 
L 644.337177 94.872433 
L 644.731942 94.882183 
L 645.126707 94.891874 
L 645.521472 94.901508 
L 645.916236 94.911084 
L 646.311001 94.920601 
L 646.705766 94.93006 
L 647.100531 94.93946 
L 647.495295 94.948801 
L 647.89006 94.958083 
L 648.284825 94.967305 
L 648.67959 94.976468 
L 649.074354 94.985571 
L 649.469119 94.994614 
L 649.863884 95.003596 
L 650.258649 95.012518 
L 650.653414 95.021379 
L 651.048178 95.030179 
L 651.442943 95.038918 
L 651.837708 95.047595 
L 652.232473 95.056211 
L 652.627237 95.064764 
L 653.022002 95.073256 
L 653.416767 95.081685 
L 653.811532 95.090052 
L 654.206296 95.098356 
L 654.601061 95.106597 
L 654.995826 95.114775 
L 655.390591 95.12289 
L 655.785356 95.130941 
L 656.18012 95.138927 
L 656.574885 95.14685 
L 656.96965 95.154709 
L 657.364415 95.162503 
L 657.759179 95.170232 
L 658.153944 95.177896 
L 658.548709 95.185495 
L 658.943474 95.193029 
L 659.338238 95.200497 
L 659.733003 95.207899 
L 660.127768 95.215235 
L 660.522533 95.222504 
L 660.917297 95.229708 
L 661.312062 95.236844 
L 661.706827 95.243913 
L 662.101592 95.250916 
L 662.496357 95.25785 
L 662.891121 95.264718 
L 663.285886 95.271517 
L 663.680651 95.278248 
L 664.075416 95.284911 
L 664.47018 95.291506 
L 664.864945 95.298031 
L 665.25971 95.304488 
L 665.654475 95.310876 
L 666.049239 95.317194 
L 666.444004 95.323442 
L 666.838769 95.329621 
L 667.233534 95.33573 
L 667.628299 95.341768 
L 668.023063 95.347736 
L 668.417828 95.353633 
L 668.812593 95.359459 
L 669.207358 95.365214 
L 669.602122 95.370897 
L 669.996887 95.376509 
L 670.391652 95.382049 
L 670.786417 95.387517 
L 671.181181 95.392913 
L 671.575946 95.398237 
L 671.970711 95.403487 
L 672.365476 95.408665 
L 672.760241 95.413769 
L 673.155005 95.4188 
L 673.54977 95.423757 
L 673.944535 95.428641 
L 674.3393 95.433451 
L 674.734064 95.438186 
L 675.128829 95.442847 
L 675.523594 95.447433 
L 675.918359 95.451944 
L 676.313123 95.45638 
L 676.707888 95.46074 
L 677.102653 95.465025 
L 677.497418 95.469235 
L 677.892183 95.473368 
L 678.286947 95.477425 
L 678.681712 95.481405 
L 679.076477 95.485309 
L 679.471242 95.489135 
L 679.866006 95.492885 
L 680.260771 95.496557 
L 680.655536 95.500152 
L 681.050301 95.503669 
L 681.445065 95.507107 
L 681.83983 95.510468 
L 682.234595 95.51375 
L 682.62936 95.516953 
L 683.024125 95.520078 
L 683.418889 95.523123 
L 683.813654 95.526089 
L 684.208419 95.528976 
L 684.603184 95.531782 
L 684.997948 95.534509 
L 685.392713 95.537155 
L 685.787478 95.539721 
L 686.182243 95.542206 
L 686.577007 95.54461 
L 686.971772 95.546933 
L 687.366537 95.549175 
L 687.761302 95.551335 
L 688.156067 95.553414 
L 688.550831 95.55541 
L 688.945596 95.557324 
L 689.340361 95.559156 
L 689.735126 95.560905 
L 690.12989 95.562571 
L 690.524655 95.564154 
L 690.91942 95.565653 
L 691.314185 95.56707 
L 691.708949 95.568402 
L 692.103714 95.56965 
L 692.498479 95.570814 
L 692.893244 95.571894 
L 693.288008 95.572889 
L 693.682773 95.573799 
L 694.077538 95.574624 
L 694.472303 95.575363 
L 694.867068 95.576017 
L 695.261832 95.576586 
L 695.656597 95.577068 
L 696.051362 95.577464 
L 696.446127 95.577774 
L 696.840891 95.577996 
L 697.235656 95.578133 
L 697.630421 95.578181 
L 697.654545 95.578182 
L 698.339668 95.575133 
L 699.024621 95.56599 
L 699.709231 95.550752 
L 700.39333 95.529426 
L 701.076746 95.502015 
L 701.759309 95.468526 
L 702.440849 95.428969 
L 703.121197 95.383352 
L 703.800182 95.331688 
L 704.477635 95.273988 
L 705.153388 95.210268 
L 705.827272 95.140543 
L 706.499119 95.064831 
L 707.168762 94.98315 
L 707.836034 94.895522 
L 708.500768 94.801967 
L 709.162799 94.702509 
L 709.821962 94.597173 
L 710.478093 94.485985 
L 711.131028 94.368973 
L 711.780604 94.246165 
L 712.42666 94.117594 
L 713.069034 93.98329 
L 713.707567 93.843287 
L 714.342099 93.69762 
L 714.972472 93.546325 
L 715.598529 93.38944 
L 716.220114 93.227005 
L 716.837072 93.059059 
L 717.449249 92.885644 
L 718.056493 92.706804 
L 718.658653 92.522583 
L 719.255577 92.333027 
L 719.847119 92.138184 
L 720.433129 91.938102 
L 721.013463 91.73283 
L 721.587975 91.52242 
L 722.156522 91.306925 
L 722.718963 91.086398 
L 723.275158 90.860894 
L 723.824967 90.630469 
L 724.368254 90.395181 
L 724.904883 90.155088 
L 725.434722 89.91025 
L 725.957636 89.660728 
L 726.473497 89.406585 
L 726.982176 89.147884 
L 727.483545 88.884688 
L 727.977481 88.617065 
L 728.463859 88.345079 
L 728.942559 88.068801 
L 729.413462 87.788297 
L 729.876449 87.503638 
L 730.331406 87.214895 
L 730.77822 86.92214 
L 731.216778 86.625446 
L 731.646972 86.324887 
L 732.068694 86.020537 
L 732.48184 85.712473 
L 732.886305 85.400772 
L 733.281991 85.08551 
L 733.668797 84.766767 
L 734.046628 84.444622 
L 734.415389 84.119155 
L 734.774988 83.790448 
L 735.125336 83.458582 
L 735.466346 83.12364 
L 735.797932 82.785706 
L 736.120012 82.444864 
L 736.432506 82.101198 
L 736.735335 81.754794 
L 737.028425 81.405739 
L 737.311702 81.05412 
L 737.585096 80.700024 
L 737.848537 80.34354 
L 738.101962 79.984756 
L 738.345307 79.623762 
L 738.57851 79.260648 
L 738.801514 78.895504 
L 739.014264 78.528421 
L 739.216706 78.159491 
L 739.40879 77.788806 
L 739.590468 77.416458 
L 739.761694 77.042539 
L 739.922426 76.667144 
L 740.072625 76.290365 
L 740.212252 75.912297 
L 740.341272 75.533034 
L 740.459655 75.15267 
L 740.567369 74.7713 
L 740.664388 74.389019 
L 740.750689 74.005923 
L 740.826249 73.622106 
L 740.89105 73.237665 
L 740.945075 72.852695 
L 740.988312 72.467293 
L 741.020749 72.081553 
L 741.042378 71.695574 
L 741.053193 71.30945 
L 741.053193 70.923277 
L 741.042378 70.537153 
L 741.020749 70.151174 
L 740.988312 69.765434 
L 740.945075 69.380032 
L 740.89105 68.995062 
L 740.826249 68.610621 
L 740.750689 68.226804 
L 740.664388 67.843708 
L 740.567369 67.461427 
L 740.459655 67.080057 
L 740.341272 66.699693 
L 740.212252 66.32043 
L 740.072625 65.942361 
L 739.922426 65.565583 
L 739.761694 65.190188 
L 739.590468 64.816269 
L 739.40879 64.443921 
L 739.216706 64.073236 
L 739.014264 63.704306 
L 738.801514 63.337223 
L 738.57851 62.972079 
L 738.345307 62.608965 
L 738.101962 62.247971 
L 737.848537 61.889187 
L 737.585096 61.532703 
L 737.311702 61.178607 
L 737.028425 60.826988 
L 736.735335 60.477933 
L 736.432506 60.131529 
L 736.120012 59.787863 
L 735.797932 59.447021 
L 735.466346 59.109087 
L 735.125336 58.774145 
L 734.774988 58.442279 
L 734.415389 58.113572 
L 734.046628 57.788105 
L 733.668797 57.46596 
L 733.281991 57.147217 
L 732.886305 56.831955 
L 732.48184 56.520254 
L 732.068694 56.21219 
L 731.646972 55.90784 
L 731.216778 55.607281 
L 730.77822 55.310587 
L 730.331406 55.017832 
L 729.876449 54.729089 
L 729.413462 54.44443 
L 728.942559 54.163926 
L 728.463859 53.887647 
L 727.977481 53.615662 
L 727.483545 53.348039 
L 726.982176 53.084843 
L 726.473497 52.826142 
L 725.957636 52.571999 
L 725.434722 52.322477 
L 724.904883 52.077639 
L 724.368254 51.837546 
L 723.824967 51.602258 
L 723.275158 51.371833 
L 722.718963 51.146329 
L 722.156522 50.925802 
L 721.587975 50.710307 
L 721.013463 50.499897 
L 720.433129 50.294625 
L 719.847119 50.094543 
L 719.255577 49.8997 
L 718.658653 49.710144 
L 718.056493 49.525923 
L 717.449249 49.347083 
L 716.837072 49.173668 
L 716.220114 49.005722 
L 715.598529 48.843287 
L 714.972472 48.686402 
L 714.342099 48.535107 
L 713.707567 48.38944 
L 713.069034 48.249437 
L 712.42666 48.115133 
L 711.780604 47.986562 
L 711.131028 47.863754 
L 710.478093 47.746742 
L 709.821962 47.635554 
L 709.162799 47.530218 
L 708.500768 47.43076 
L 707.836034 47.337205 
L 707.168762 47.249577 
L 706.499119 47.167896 
L 705.827272 47.092184 
L 705.153388 47.022459 
L 704.477635 46.958739 
L 703.800182 46.901039 
L 703.121197 46.849375 
L 702.440849 46.803758 
L 701.759309 46.764201 
L 701.076746 46.730712 
L 700.39333 46.703301 
L 699.709231 46.681975 
L 699.024621 46.666737 
L 698.339668 46.657593 
L 697.654545 46.654545 
L 697.630421 46.654545 
L 697.235656 46.654594 
L 696.840891 46.65473 
L 696.446127 46.654953 
L 696.051362 46.655263 
L 695.656597 46.655659 
L 695.261832 46.656141 
L 694.867068 46.65671 
L 694.472303 46.657364 
L 694.077538 46.658103 
L 693.682773 46.658928 
L 693.288008 46.659838 
L 692.893244 46.660833 
L 692.498479 46.661913 
L 692.103714 46.663077 
L 691.708949 46.664325 
L 691.314185 46.665657 
L 690.91942 46.667073 
L 690.524655 46.668573 
L 690.12989 46.670156 
L 689.735126 46.671822 
L 689.340361 46.673571 
L 688.945596 46.675403 
L 688.550831 46.677317 
L 688.156067 46.679313 
L 687.761302 46.681392 
L 687.366537 46.683552 
L 686.971772 46.685794 
L 686.577007 46.688117 
L 686.182243 46.690521 
L 685.787478 46.693006 
L 685.392713 46.695572 
L 684.997948 46.698218 
L 684.603184 46.700945 
L 684.208419 46.703751 
L 683.813654 46.706638 
L 683.418889 46.709604 
L 683.024125 46.712649 
L 682.62936 46.715773 
L 682.234595 46.718977 
L 681.83983 46.722259 
L 681.445065 46.725619 
L 681.050301 46.729058 
L 680.655536 46.732575 
L 680.260771 46.73617 
L 679.866006 46.739842 
L 679.471242 46.743592 
L 679.076477 46.747418 
L 678.681712 46.751322 
L 678.286947 46.755302 
L 677.892183 46.759359 
L 677.497418 46.763492 
L 677.102653 46.767702 
L 676.707888 46.771987 
L 676.313123 46.776347 
L 675.918359 46.780783 
L 675.523594 46.785294 
L 675.128829 46.78988 
L 674.734064 46.794541 
L 674.3393 46.799276 
L 673.944535 46.804086 
L 673.54977 46.808969 
L 673.155005 46.813927 
L 672.760241 46.818958 
L 672.365476 46.824062 
L 671.970711 46.82924 
L 671.575946 46.83449 
L 671.181181 46.839814 
L 670.786417 46.845209 
L 670.391652 46.850677 
L 669.996887 46.856218 
L 669.602122 46.86183 
L 669.207358 46.867513 
L 668.812593 46.873268 
L 668.417828 46.879094 
L 668.023063 46.884991 
L 667.628299 46.890959 
L 667.233534 46.896997 
L 666.838769 46.903106 
L 666.444004 46.909285 
L 666.049239 46.915533 
L 665.654475 46.921851 
L 665.25971 46.928239 
L 664.864945 46.934696 
L 664.47018 46.941221 
L 664.075416 46.947816 
L 663.680651 46.954479 
L 663.285886 46.96121 
L 662.891121 46.968009 
L 662.496357 46.974876 
L 662.101592 46.981811 
L 661.706827 46.988814 
L 661.312062 46.995883 
L 660.917297 47.003019 
L 660.522533 47.010223 
L 660.127768 47.017492 
L 659.733003 47.024828 
L 659.338238 47.03223 
L 658.943474 47.039698 
L 658.548709 47.047232 
L 658.153944 47.054831 
L 657.759179 47.062495 
L 657.364415 47.070224 
L 656.96965 47.078018 
L 656.574885 47.085877 
L 656.18012 47.0938 
L 655.785356 47.101786 
L 655.390591 47.109837 
L 654.995826 47.117952 
L 654.601061 47.12613 
L 654.206296 47.134371 
L 653.811532 47.142675 
L 653.416767 47.151041 
L 653.022002 47.159471 
L 652.627237 47.167963 
L 652.232473 47.176516 
L 651.837708 47.185132 
L 651.442943 47.193809 
L 651.048178 47.202548 
L 650.653414 47.211348 
L 650.258649 47.220209 
L 649.863884 47.229131 
L 649.469119 47.238113 
L 649.074354 47.247156 
L 648.67959 47.256259 
L 648.284825 47.265421 
L 647.89006 47.274644 
L 647.495295 47.283926 
L 647.100531 47.293267 
L 646.705766 47.302667 
L 646.311001 47.312126 
L 645.916236 47.321643 
L 645.521472 47.331219 
L 645.126707 47.340852 
L 644.731942 47.350544 
L 644.337177 47.360294 
L 643.942412 47.370101 
L 643.547648 47.379965 
L 643.152883 47.389886 
L 642.758118 47.399864 
L 642.363353 47.409898 
L 641.968589 47.419989 
L 641.573824 47.430136 
L 641.179059 47.440339 
L 640.784294 47.450598 
L 640.38953 47.460912 
L 639.994765 47.471281 
L 639.6 47.481705 
L 639.205235 47.492184 
L 638.81047 47.502718 
L 638.415706 47.513306 
L 638.020941 47.523948 
L 637.626176 47.534645 
L 637.231411 47.545394 
L 636.836647 47.556198 
L 636.441882 47.567054 
L 636.047117 47.577964 
L 635.652352 47.588926 
L 635.257588 47.599941 
L 634.862823 47.611009 
L 634.468058 47.622128 
L 634.073293 47.6333 
L 633.678528 47.644523 
L 633.283764 47.655797 
L 632.888999 47.667123 
L 632.494234 47.6785 
L 632.099469 47.689928 
L 631.704705 47.701406 
L 631.30994 47.712935 
L 630.915175 47.724514 
L 630.52041 47.736143 
L 630.125646 47.747822 
L 629.730881 47.75955 
L 629.336116 47.771327 
L 628.941351 47.783153 
L 628.546586 47.795028 
L 628.151822 47.806952 
L 627.757057 47.818925 
L 627.362292 47.830945 
L 626.967527 47.843013 
L 626.572763 47.855129 
L 626.177998 47.867293 
L 625.783233 47.879504 
L 625.388468 47.891761 
L 624.993704 47.904066 
L 624.598939 47.916418 
L 624.204174 47.928815 
L 623.809409 47.941259 
L 623.414644 47.953749 
L 623.01988 47.966285 
L 622.625115 47.978866 
L 622.23035 47.991492 
L 621.835585 48.004164 
L 621.440821 48.01688 
L 621.046056 48.029641 
L 620.651291 48.042446 
L 620.256526 48.055296 
L 619.861762 48.068189 
L 619.466997 48.081127 
L 619.072232 48.094107 
L 618.677467 48.107131 
L 618.282703 48.120199 
L 617.887938 48.133309 
L 617.493173 48.146461 
L 617.098408 48.159656 
L 616.703643 48.172893 
L 616.308879 48.186173 
L 615.914114 48.199494 
L 615.519349 48.212856 
L 615.124584 48.22626 
L 614.72982 48.239705 
L 614.335055 48.253191 
L 613.94029 48.266717 
L 613.545525 48.280284 
L 613.150761 48.293891 
L 612.755996 48.307538 
L 612.361231 48.321225 
L 611.966466 48.334951 
L 611.571701 48.348717 
L 611.176937 48.362521 
L 610.782172 48.376365 
L 610.387407 48.390247 
L 609.992642 48.404168 
L 609.597878 48.418127 
L 609.203113 48.432124 
L 608.808348 48.446158 
L 608.413583 48.46023 
L 608.018819 48.47434 
L 607.624054 48.488487 
L 607.229289 48.50267 
L 606.834524 48.51689 
L 606.439759 48.531147 
L 606.044995 48.54544 
L 605.65023 48.559769 
L 605.255465 48.574133 
L 604.8607 48.588533 
L 604.465936 48.602969 
L 604.071171 48.617439 
L 603.676406 48.631945 
L 603.281641 48.646485 
L 602.886877 48.66106 
L 602.492112 48.675669 
L 602.097347 48.690312 
L 601.702582 48.704988 
L 601.307817 48.719698 
L 600.913053 48.734442 
L 600.518288 48.749219 
L 600.123523 48.764028 
L 599.728758 48.77887 
L 599.333994 48.793745 
L 598.939229 48.808652 
L 598.544464 48.823591 
L 598.149699 48.838562 
L 597.754935 48.853564 
L 597.36017 48.868598 
L 596.965405 48.883663 
L 596.57064 48.898759 
L 596.175875 48.913885 
L 595.781111 48.929042 
L 595.386346 48.944229 
L 594.991581 48.959446 
L 594.596816 48.974693 
L 594.202052 48.98997 
L 593.807287 49.005276 
L 593.412522 49.020611 
L 593.017757 49.035975 
L 592.622993 49.051367 
L 592.228228 49.066789 
L 591.833463 49.082238 
L 591.438698 49.097716 
L 591.043933 49.113221 
L 590.649169 49.128754 
L 590.254404 49.144314 
L 589.859639 49.159901 
L 589.464874 49.175516 
L 589.07011 49.191157 
L 588.675345 49.206824 
L 588.28058 49.222518 
L 587.885815 49.238238 
L 587.491051 49.253983 
L 587.096286 49.269754 
L 586.701521 49.285551 
L 586.306756 49.301373 
L 585.911992 49.31722 
L 585.517227 49.333091 
L 585.122462 49.348987 
L 584.727697 49.364907 
L 584.332932 49.380851 
L 583.938168 49.396819 
L 583.543403 49.412811 
L 583.148638 49.428826 
L 582.753873 49.444864 
L 582.359109 49.460926 
L 581.964344 49.477009 
L 581.569579 49.493116 
L 581.174814 49.509245 
L 580.78005 49.525395 
L 580.385285 49.541568 
L 579.99052 49.557762 
L 579.595755 49.573978 
L 579.20099 49.590215 
L 578.806226 49.606472 
L 578.411461 49.622751 
L 578.016696 49.63905 
L 577.621931 49.655369 
L 577.227167 49.671708 
L 576.832402 49.688068 
L 576.437637 49.704446 
L 576.042872 49.720845 
L 575.648108 49.737262 
L 575.253343 49.753698 
L 574.858578 49.770154 
L 574.463813 49.786627 
L 574.069048 49.803119 
L 573.674284 49.819629 
L 573.279519 49.836157 
L 572.884754 49.852703 
L 572.489989 49.869266 
L 572.095225 49.885846 
L 571.70046 49.902443 
L 571.305695 49.919057 
L 570.91093 49.935687 
L 570.516166 49.952334 
L 570.121401 49.968997 
L 569.726636 49.985675 
L 569.331871 50.002369 
L 568.937106 50.019079 
L 568.542342 50.035804 
L 568.147577 50.052544 
L 567.752812 50.069299 
L 567.358047 50.086068 
L 566.963283 50.102851 
L 566.568518 50.119649 
L 566.173753 50.136461 
L 565.778988 50.153286 
L 565.384224 50.170124 
L 564.989459 50.186976 
L 564.594694 50.203841 
L 564.199929 50.220718 
L 563.805164 50.237608 
L 563.4104 50.254511 
L 563.015635 50.271425 
L 562.62087 50.288352 
L 562.226105 50.30529 
L 561.831341 50.322239 
L 561.436576 50.3392 
L 561.041811 50.356172 
L 560.647046 50.373154 
L 560.252282 50.390148 
L 559.857517 50.407151 
L 559.462752 50.424165 
L 559.067987 50.441188 
L 558.673222 50.458221 
L 558.278458 50.475264 
L 557.883693 50.492315 
L 557.488928 50.509376 
L 557.094163 50.526446 
L 556.699399 50.543524 
L 556.304634 50.56061 
L 555.909869 50.577705 
L 555.515104 50.594807 
L 555.12034 50.611918 
L 554.725575 50.629035 
L 554.33081 50.64616 
L 553.936045 50.663292 
L 553.541281 50.680431 
L 553.146516 50.697576 
L 552.751751 50.714728 
L 552.356986 50.731885 
L 551.962221 50.749049 
L 551.567457 50.766218 
L 551.172692 50.783393 
L 550.777927 50.800573 
L 550.383162 50.817759 
L 549.988398 50.834948 
L 549.593633 50.852143 
L 549.198868 50.869342 
L 548.804103 50.886545 
L 548.409339 50.903752 
L 548.014574 50.920962 
L 547.619809 50.938176 
L 547.225044 50.955394 
L 546.830279 50.972614 
L 546.435515 50.989837 
L 546.04075 51.007063 
L 545.645985 51.024291 
L 545.25122 51.041522 
L 544.856456 51.058754 
L 544.461691 51.075988 
L 544.066926 51.093223 
L 543.672161 51.11046 
L 543.277397 51.127698 
L 542.882632 51.144936 
L 542.487867 51.162175 
L 542.093102 51.179415 
L 541.698337 51.196655 
L 541.303573 51.213894 
L 540.908808 51.231134 
L 540.514043 51.248373 
L 540.119278 51.265611 
L 539.724514 51.282848 
L 539.329749 51.300084 
L 538.934984 51.317319 
L 538.540219 51.334552 
L 538.145455 51.351783 
L 537.75069 51.369012 
L 537.355925 51.386239 
L 536.96116 51.403463 
L 536.566395 51.420685 
L 536.171631 51.437904 
L 535.776866 51.455119 
L 535.382101 51.472331 
L 534.987336 51.48954 
L 534.592572 51.506745 
L 534.197807 51.523945 
L 533.803042 51.541142 
L 533.408277 51.558334 
L 533.013513 51.575521 
L 532.618748 51.592703 
L 532.223983 51.60988 
L 531.829218 51.627052 
L 531.434453 51.644218 
L 531.039689 51.661379 
L 530.644924 51.678533 
L 530.250159 51.695681 
L 529.855394 51.712823 
L 529.46063 51.729958 
L 529.065865 51.747086 
L 528.6711 51.764207 
L 528.276335 51.78132 
L 527.881571 51.798426 
L 527.486806 51.815524 
L 527.092041 51.832614 
L 526.697276 51.849696 
L 526.302511 51.866769 
L 525.907747 51.883834 
L 525.512982 51.90089 
L 525.118217 51.917936 
L 524.723452 51.934974 
L 524.328688 51.952001 
L 523.933923 51.969019 
L 523.539158 51.986027 
L 523.144393 52.003025 
L 522.749629 52.020012 
L 522.354864 52.036988 
L 521.960099 52.053954 
L 521.565334 52.070909 
L 521.17057 52.087852 
L 520.775805 52.104783 
L 520.38104 52.121703 
L 519.986275 52.138611 
L 519.59151 52.155506 
L 519.196746 52.172389 
L 518.801981 52.18926 
L 518.407216 52.206117 
L 518.012451 52.222962 
L 517.617687 52.239793 
L 517.222922 52.25661 
L 516.828157 52.273414 
L 516.433392 52.290204 
L 516.038628 52.306979 
L 515.643863 52.32374 
L 515.249098 52.340487 
L 514.854333 52.357218 
L 514.459568 52.373935 
L 514.064804 52.390636 
L 513.670039 52.407321 
L 513.275274 52.423991 
L 512.880509 52.440645 
L 512.485745 52.457282 
L 512.09098 52.473904 
L 511.696215 52.490508 
L 511.30145 52.507096 
L 510.906686 52.523666 
L 510.511921 52.540219 
L 510.117156 52.556755 
L 509.722391 52.573273 
L 509.327626 52.589773 
L 508.932862 52.606255 
L 508.538097 52.622718 
L 508.143332 52.639163 
L 507.748567 52.655588 
L 507.353803 52.671995 
L 506.959038 52.688382 
L 506.564273 52.70475 
L 506.169508 52.721098 
L 505.774744 52.737426 
L 505.379979 52.753734 
L 504.985214 52.770022 
L 504.590449 52.786289 
L 504.195684 52.802535 
L 503.80092 52.81876 
L 503.406155 52.834963 
L 503.01139 52.851145 
L 502.616625 52.867306 
L 502.221861 52.883444 
L 501.827096 52.89956 
L 501.432331 52.915654 
L 501.037566 52.931725 
L 500.642802 52.947774 
L 500.248037 52.963799 
L 499.853272 52.979801 
L 499.458507 52.995779 
L 499.063742 53.011734 
L 498.668978 53.027665 
L 498.274213 53.043572 
L 497.879448 53.059454 
L 497.484683 53.075311 
L 497.089919 53.091144 
L 496.695154 53.106952 
L 496.300389 53.122734 
L 495.905624 53.138491 
L 495.51086 53.154222 
L 495.116095 53.169927 
L 494.72133 53.185606 
L 494.326565 53.201259 
L 493.9318 53.216885 
L 493.537036 53.232484 
L 493.142271 53.248057 
L 492.747506 53.263601 
L 492.352741 53.279119 
L 491.957977 53.294609 
L 491.563212 53.31007 
L 491.168447 53.325504 
L 490.773682 53.340909 
L 490.378918 53.356286 
L 489.984153 53.371633 
L 489.589388 53.386952 
L 489.194623 53.402242 
L 488.799859 53.417502 
L 488.405094 53.432732 
L 488.010329 53.447932 
L 487.615564 53.463103 
L 487.220799 53.478242 
L 486.826035 53.493352 
L 486.43127 53.50843 
L 486.036505 53.523477 
L 485.64174 53.538494 
L 485.246976 53.553478 
L 484.852211 53.568431 
L 484.457446 53.583352 
L 484.062681 53.598241 
L 483.667917 53.613098 
L 483.273152 53.627922 
L 482.878387 53.642713 
L 482.483622 53.657471 
L 482.088857 53.672196 
L 481.694093 53.686887 
L 481.299328 53.701545 
L 480.904563 53.716169 
L 480.509798 53.730758 
L 480.115034 53.745314 
L 479.720269 53.759835 
L 479.325504 53.774321 
L 478.930739 53.788771 
L 478.535975 53.803187 
L 478.14121 53.817567 
L 477.746445 53.831912 
L 477.35168 53.846221 
L 476.956915 53.860493 
L 476.562151 53.874729 
L 476.167386 53.888929 
L 475.772621 53.903092 
L 475.377856 53.917218 
L 474.983092 53.931306 
L 474.588327 53.945357 
L 474.193562 53.959371 
L 473.798797 53.973347 
L 473.404033 53.987284 
L 473.009268 54.001183 
L 472.614503 54.015044 
L 472.219738 54.028866 
L 471.824973 54.042648 
L 471.430209 54.056392 
L 471.035444 54.070096 
L 470.640679 54.083761 
L 470.245914 54.097385 
L 469.85115 54.11097 
L 469.456385 54.124514 
L 469.06162 54.138017 
L 468.666855 54.15148 
L 468.272091 54.164902 
L 467.877326 54.178283 
L 467.482561 54.191622 
L 467.087796 54.20492 
L 466.693031 54.218175 
L 466.298267 54.231389 
L 465.903502 54.24456 
L 465.508737 54.257689 
L 465.113972 54.270775 
L 464.719208 54.283818 
L 464.324443 54.296818 
L 463.929678 54.309774 
L 463.534913 54.322687 
L 463.140149 54.335556 
L 462.745384 54.34838 
L 462.350619 54.361161 
L 461.955854 54.373897 
L 461.561089 54.386588 
L 461.166325 54.399234 
L 460.77156 54.411835 
L 460.376795 54.424391 
L 459.98203 54.436901 
L 459.587266 54.449365 
L 459.192501 54.461783 
L 458.797736 54.474155 
L 458.402971 54.48648 
L 458.008207 54.498758 
L 457.613442 54.51099 
L 457.218677 54.523174 
L 456.823912 54.535311 
L 456.429148 54.5474 
L 456.034383 54.559442 
L 455.639618 54.571435 
L 455.244853 54.58338 
L 454.850088 54.595277 
L 454.455324 54.607125 
L 454.060559 54.618924 
L 453.665794 54.630673 
L 453.271029 54.642374 
L 452.876265 54.654024 
L 452.4815 54.665625 
L 452.086735 54.677176 
L 451.69197 54.688676 
L 451.297206 54.700126 
L 450.902441 54.711526 
L 450.507676 54.722874 
L 450.112911 54.734171 
L 449.718146 54.745417 
L 449.323382 54.756611 
L 448.928617 54.767753 
L 448.533852 54.778844 
L 448.139087 54.789882 
L 447.744323 54.800867 
L 447.349558 54.8118 
L 446.954793 54.82268 
L 446.560028 54.833507 
L 446.165264 54.84428 
L 445.770499 54.855 
L 445.375734 54.865666 
L 444.980969 54.876278 
L 444.586204 54.886835 
L 444.19144 54.897338 
L 443.796675 54.907787 
L 443.40191 54.91818 
L 443.007145 54.928518 
L 442.612381 54.938801 
L 442.217616 54.949029 
L 441.822851 54.9592 
L 441.428086 54.969316 
L 441.033322 54.979375 
L 440.638557 54.989378 
L 440.243792 54.999324 
L 439.849027 55.009213 
L 439.454262 55.019045 
L 439.059498 55.02882 
L 438.664733 55.038537 
L 438.269968 55.048196 
L 437.875203 55.057798 
L 437.480439 55.067341 
L 437.085674 55.076825 
L 436.690909 55.086251 
L 436.296144 55.095618 
L 435.90138 55.104926 
L 435.506615 55.114174 
L 435.11185 55.123363 
L 434.717085 55.132492 
L 434.32232 55.141561 
L 433.927556 55.15057 
L 433.532791 55.159519 
L 433.138026 55.168406 
L 432.743261 55.177233 
L 432.348497 55.185999 
L 431.953732 55.194703 
L 431.558967 55.203346 
L 431.164202 55.211927 
L 430.769438 55.220446 
L 430.374673 55.228903 
L 429.979908 55.237297 
L 429.585143 55.245629 
L 429.190378 55.253897 
L 428.795614 55.262103 
L 428.400849 55.270245 
L 428.006084 55.278324 
L 427.611319 55.286339 
L 427.216555 55.29429 
L 426.82179 55.302177 
L 426.427025 55.309999 
L 426.03226 55.317757 
L 425.637496 55.325449 
L 425.242731 55.333077 
L 424.847966 55.340639 
L 424.453201 55.348136 
L 424.058437 55.355567 
L 423.663672 55.362932 
L 423.268907 55.370231 
L 422.874142 55.377463 
L 422.479377 55.384629 
L 422.084613 55.391728 
L 421.689848 55.39876 
L 421.295083 55.405724 
L 420.900318 55.412621 
L 420.505554 55.41945 
L 420.110789 55.426211 
L 419.716024 55.432904 
L 419.321259 55.439529 
L 418.926495 55.446085 
L 418.53173 55.452572 
L 418.136965 55.45899 
L 417.7422 55.465338 
L 417.347435 55.471618 
L 416.952671 55.477827 
L 416.557906 55.483966 
L 416.163141 55.490036 
L 415.768376 55.496034 
L 415.373612 55.501962 
L 414.978847 55.50782 
L 414.584082 55.513606 
L 414.189317 55.519321 
L 413.794553 55.524964 
L 413.399788 55.530536 
L 413.005023 55.536036 
L 412.610258 55.541463 
L 412.215493 55.546818 
L 411.820729 55.552101 
L 411.425964 55.55731 
L 411.031199 55.562447 
L 410.636434 55.56751 
L 410.24167 55.5725 
L 409.846905 55.577416 
L 409.45214 55.582258 
L 409.057375 55.587026 
L 408.662611 55.591719 
L 408.267846 55.596338 
L 407.873081 55.600882 
L 407.478316 55.605351 
L 407.083551 55.609745 
L 406.688787 55.614063 
L 406.294022 55.618306 
L 405.899257 55.622472 
L 405.504492 55.626563 
L 405.109728 55.630577 
L 404.714963 55.634514 
L 404.320198 55.638374 
L 403.925433 55.642158 
L 403.530669 55.645864 
L 403.135904 55.649493 
L 402.741139 55.653044 
L 402.346374 55.656517 
L 401.951609 55.659912 
L 401.556845 55.663228 
L 401.16208 55.666466 
L 400.767315 55.669625 
L 400.37255 55.672706 
L 399.977786 55.675706 
L 399.583021 55.678628 
L 399.188256 55.681469 
L 398.793491 55.684231 
L 398.398727 55.686913 
L 398.003962 55.689514 
L 397.609197 55.692034 
L 397.214432 55.694474 
L 396.819667 55.696833 
L 396.424903 55.69911 
L 396.030138 55.701306 
L 395.635373 55.703421 
L 395.240608 55.705453 
L 394.845844 55.707403 
L 394.451079 55.709271 
L 394.056314 55.711056 
L 393.661549 55.712759 
L 393.266785 55.714378 
L 392.87202 55.715915 
L 392.477255 55.717367 
L 392.08249 55.718737 
L 391.687726 55.720022 
L 391.292961 55.721223 
L 390.898196 55.722339 
L 390.503431 55.723372 
L 390.108666 55.724319 
L 389.713902 55.725181 
L 389.319137 55.725958 
L 388.924372 55.72665 
L 388.529607 55.727256 
L 388.134843 55.727776 
L 387.740078 55.72821 
L 387.345313 55.728557 
L 386.950548 55.728818 
L 386.555784 55.728993 
L 386.161019 55.72908 
L 385.766254 55.729086 
L 385.371489 55.729046 
L 384.976724 55.728968 
L 384.58196 55.728849 
L 384.187195 55.728692 
L 383.79243 55.728496 
L 383.397665 55.72826 
L 383.002901 55.727986 
L 382.608136 55.727673 
L 382.213371 55.727321 
L 381.818606 55.72693 
L 381.423842 55.726501 
L 381.029077 55.726034 
L 380.634312 55.725527 
L 380.239547 55.724983 
L 379.844782 55.724401 
L 379.450018 55.72378 
L 379.055253 55.723121 
L 378.660488 55.722424 
L 378.265723 55.72169 
L 377.870959 55.720917 
L 377.476194 55.720107 
L 377.081429 55.719259 
L 376.686664 55.718374 
L 376.2919 55.717452 
L 375.897135 55.716492 
L 375.50237 55.715494 
L 375.107605 55.71446 
L 374.71284 55.713388 
L 374.318076 55.71228 
L 373.923311 55.711134 
L 373.528546 55.709952 
L 373.133781 55.708733 
L 372.739017 55.707477 
L 372.344252 55.706185 
L 371.949487 55.704857 
L 371.554722 55.703492 
L 371.159958 55.70209 
L 370.765193 55.700653 
L 370.370428 55.699179 
L 369.975663 55.697669 
L 369.580898 55.696124 
L 369.186134 55.694542 
L 368.791369 55.692925 
L 368.396604 55.691272 
L 368.001839 55.689584 
L 367.607075 55.68786 
L 367.21231 55.6861 
L 366.817545 55.684306 
L 366.42278 55.682476 
L 366.028016 55.68061 
L 365.633251 55.67871 
L 365.238486 55.676775 
L 364.843721 55.674805 
L 364.448956 55.6728 
L 364.054192 55.670761 
L 363.659427 55.668686 
L 363.264662 55.666578 
L 362.869897 55.664434 
L 362.475133 55.662257 
L 362.080368 55.660045 
L 361.685603 55.657799 
L 361.290838 55.655519 
L 360.896074 55.653205 
L 360.501309 55.650857 
L 360.106544 55.648475 
L 359.711779 55.646059 
L 359.317015 55.64361 
L 358.92225 55.641127 
L 358.527485 55.638611 
L 358.13272 55.636061 
L 357.737955 55.633478 
L 357.343191 55.630862 
L 356.948426 55.628212 
L 356.553661 55.62553 
L 356.158896 55.622815 
L 355.764132 55.620066 
L 355.369367 55.617285 
L 354.974602 55.614472 
L 354.579837 55.611625 
L 354.185073 55.608747 
L 353.790308 55.605835 
L 353.395543 55.602892 
L 353.000778 55.599916 
L 352.606013 55.596908 
L 352.211249 55.593868 
L 351.816484 55.590796 
L 351.421719 55.587692 
L 351.026954 55.584556 
L 350.63219 55.581388 
L 350.237425 55.578189 
L 349.84266 55.574958 
L 349.447895 55.571696 
L 349.053131 55.568403 
L 348.658366 55.565078 
L 348.263601 55.561722 
L 347.868836 55.558335 
L 347.474071 55.554916 
L 347.079307 55.551467 
L 346.684542 55.547987 
L 346.289777 55.544477 
L 345.895012 55.540935 
L 345.500248 55.537363 
L 345.105483 55.533761 
L 344.710718 55.530128 
L 344.315953 55.526465 
L 343.921189 55.522771 
L 343.526424 55.519048 
L 343.131659 55.515294 
L 342.736894 55.51151 
L 342.342129 55.507697 
L 341.947365 55.503854 
L 341.5526 55.499981 
L 341.157835 55.496078 
L 340.76307 55.492146 
L 340.368306 55.488184 
L 339.973541 55.484193 
L 339.578776 55.480173 
L 339.184011 55.476124 
L 338.789247 55.472045 
L 338.394482 55.467938 
L 337.999717 55.463801 
L 337.604952 55.459636 
L 337.210187 55.455442 
L 336.815423 55.45122 
L 336.420658 55.446968 
L 336.025893 55.442689 
L 335.631128 55.438381 
L 335.236364 55.434044 
L 334.841599 55.42968 
L 334.446834 55.425287 
L 334.052069 55.420866 
L 333.657305 55.416418 
L 333.26254 55.411941 
L 332.867775 55.407437 
L 332.47301 55.402905 
L 332.078245 55.398345 
L 331.683481 55.393758 
L 331.288716 55.389144 
L 330.893951 55.384502 
L 330.499186 55.379833 
L 330.104422 55.375136 
L 329.709657 55.370413 
L 329.314892 55.365663 
L 328.920127 55.360886 
L 328.525363 55.356082 
L 328.130598 55.351251 
L 327.735833 55.346393 
L 327.341068 55.341509 
L 326.946304 55.336599 
L 326.551539 55.331662 
L 326.156774 55.326699 
L 325.762009 55.32171 
L 325.367244 55.316695 
L 324.97248 55.311653 
L 324.577715 55.306586 
L 324.18295 55.301493 
L 323.788185 55.296374 
L 323.393421 55.29123 
L 322.998656 55.286059 
L 322.603891 55.280864 
L 322.209126 55.275643 
L 321.814362 55.270397 
L 321.419597 55.265125 
L 321.024832 55.259828 
L 320.630067 55.254507 
L 320.235302 55.24916 
L 319.840538 55.243788 
L 319.445773 55.238392 
L 319.051008 55.232971 
L 318.656243 55.227525 
L 318.261479 55.222055 
L 317.866714 55.21656 
L 317.471949 55.211041 
L 317.077184 55.205498 
L 316.68242 55.199931 
L 316.287655 55.194339 
L 315.89289 55.188724 
L 315.498125 55.183084 
L 315.10336 55.177421 
L 314.708596 55.171734 
L 314.313831 55.166023 
L 313.919066 55.160289 
L 313.524301 55.154531 
L 313.129537 55.14875 
L 312.734772 55.142946 
L 312.340007 55.137119 
L 311.945242 55.131268 
L 311.550478 55.125394 
L 311.155713 55.119498 
L 310.760948 55.113578 
L 310.366183 55.107636 
L 309.971418 55.101671 
L 309.576654 55.095683 
L 309.181889 55.089673 
L 308.787124 55.083641 
L 308.392359 55.077586 
L 307.997595 55.071509 
L 307.60283 55.06541 
L 307.208065 55.059289 
L 306.8133 55.053145 
L 306.418536 55.04698 
L 306.023771 55.040793 
L 305.629006 55.034585 
L 305.234241 55.028354 
L 304.839476 55.022103 
L 304.444712 55.015829 
L 304.049947 55.009535 
L 303.655182 55.003219 
L 303.260417 54.996882 
L 302.865653 54.990524 
L 302.470888 54.984145 
L 302.076123 54.977744 
L 301.681358 54.971324 
L 301.286594 54.964882 
L 300.891829 54.95842 
L 300.497064 54.951937 
L 300.102299 54.945433 
L 299.707534 54.938909 
L 299.31277 54.932365 
L 298.918005 54.925801 
L 298.52324 54.919216 
L 298.128475 54.912612 
L 297.733711 54.905987 
L 297.338946 54.899343 
L 296.944181 54.892679 
L 296.549416 54.885995 
L 296.154652 54.879292 
L 295.759887 54.872569 
L 295.365122 54.865826 
L 294.970357 54.859065 
L 294.575593 54.852284 
L 294.180828 54.845484 
L 293.786063 54.838664 
L 293.391298 54.831826 
L 292.996533 54.824969 
L 292.601769 54.818093 
L 292.207004 54.811199 
L 291.812239 54.804285 
L 291.417474 54.797353 
L 291.02271 54.790403 
L 290.627945 54.783434 
L 290.23318 54.776447 
L 289.838415 54.769442 
L 289.443651 54.762419 
L 289.048886 54.755378 
L 288.654121 54.748318 
L 288.259356 54.741241 
L 287.864591 54.734146 
L 287.469827 54.727034 
L 287.075062 54.719904 
L 286.680297 54.712756 
L 286.285532 54.705591 
L 285.890768 54.698409 
L 285.496003 54.691209 
L 285.101238 54.683992 
L 284.706473 54.676759 
L 284.311709 54.669508 
L 283.916944 54.66224 
L 283.522179 54.654956 
L 283.127414 54.647654 
L 282.732649 54.640337 
L 282.337885 54.633002 
L 281.94312 54.625652 
L 281.548355 54.618284 
L 281.15359 54.610901 
L 280.758826 54.603502 
L 280.364061 54.596086 
L 279.969296 54.588654 
L 279.574531 54.581207 
L 279.179767 54.573743 
L 278.785002 54.566264 
L 278.390237 54.558769 
L 277.995472 54.551259 
L 277.600707 54.543733 
L 277.205943 54.536192 
L 276.811178 54.528635 
L 276.416413 54.521063 
L 276.021648 54.513476 
L 275.626884 54.505875 
L 275.232119 54.498258 
L 274.837354 54.490626 
L 274.442589 54.482979 
L 274.047825 54.475318 
L 273.65306 54.467642 
L 273.258295 54.459952 
L 272.86353 54.452247 
L 272.468765 54.444528 
L 272.074001 54.436795 
L 271.679236 54.429047 
L 271.284471 54.421286 
L 270.889706 54.41351 
L 270.494942 54.405721 
L 270.100177 54.397917 
L 269.705412 54.3901 
L 269.310647 54.38227 
L 268.915883 54.374426 
L 268.521118 54.366568 
L 268.126353 54.358697 
L 267.731588 54.350813 
L 267.336823 54.342915 
L 266.942059 54.335005 
L 266.547294 54.327081 
L 266.152529 54.319144 
L 265.757764 54.311195 
L 265.363 54.303233 
L 264.968235 54.295258 
L 264.57347 54.287271 
L 264.178705 54.279271 
L 263.783941 54.271259 
L 263.389176 54.263234 
L 262.994411 54.255197 
L 262.599646 54.247148 
L 262.204881 54.239087 
L 261.810117 54.231014 
L 261.415352 54.222929 
L 261.020587 54.214833 
L 260.625822 54.206724 
L 260.231058 54.198604 
L 259.836293 54.190473 
L 259.441528 54.18233 
L 259.046763 54.174175 
L 258.651999 54.16601 
L 258.257234 54.157833 
L 257.862469 54.149645 
L 257.467704 54.141446 
L 257.07294 54.133237 
L 256.678175 54.125016 
L 256.28341 54.116785 
L 255.888645 54.108543 
L 255.49388 54.10029 
L 255.099116 54.092027 
L 254.704351 54.083754 
L 254.309586 54.07547 
L 253.914821 54.067177 
L 253.520057 54.058873 
L 253.125292 54.050558 
L 252.730527 54.042235 
L 252.335762 54.033901 
L 251.940998 54.025557 
L 251.546233 54.017204 
L 251.151468 54.008841 
L 250.756703 54.000469 
L 250.361938 53.992087 
L 249.967174 53.983696 
L 249.572409 53.975295 
L 249.177644 53.966886 
L 248.782879 53.958467 
L 248.388115 53.950039 
L 247.99335 53.941603 
L 247.598585 53.933158 
L 247.20382 53.924704 
L 246.809056 53.916241 
L 246.414291 53.90777 
L 246.019526 53.89929 
L 245.624761 53.890802 
L 245.229996 53.882306 
L 244.835232 53.873802 
L 244.440467 53.865289 
L 244.045702 53.856768 
L 243.650937 53.84824 
L 243.256173 53.839704 
L 242.861408 53.83116 
L 242.466643 53.822608 
L 242.071878 53.814048 
L 241.677114 53.805482 
L 241.282349 53.796907 
L 240.887584 53.788326 
L 240.492819 53.779737 
L 240.098054 53.771141 
L 239.70329 53.762538 
L 239.308525 53.753929 
L 238.91376 53.745312 
L 238.518995 53.736688 
L 238.124231 53.728058 
L 237.729466 53.719421 
L 237.334701 53.710778 
L 236.939936 53.702128 
L 236.545172 53.693472 
L 236.150407 53.684809 
L 235.755642 53.676141 
L 235.360877 53.667466 
L 234.966112 53.658786 
L 234.571348 53.650099 
L 234.176583 53.641407 
L 233.781818 53.632709 
L 233.387053 53.624005 
L 232.992289 53.615296 
L 232.597524 53.606581 
L 232.202759 53.597861 
L 231.807994 53.589135 
L 231.41323 53.580405 
L 231.018465 53.571669 
L 230.6237 53.562928 
L 230.228935 53.554182 
L 229.83417 53.545432 
L 229.439406 53.536676 
L 229.044641 53.527916 
L 228.649876 53.519152 
L 228.255111 53.510383 
L 227.860347 53.501609 
L 227.465582 53.492831 
L 227.070817 53.484049 
L 226.676052 53.475263 
L 226.281288 53.466473 
L 225.886523 53.457678 
L 225.491758 53.44888 
L 225.096993 53.440078 
L 224.702229 53.431273 
L 224.307464 53.422463 
L 223.912699 53.41365 
L 223.517934 53.404834 
L 223.123169 53.396015 
L 222.728405 53.387192 
L 222.33364 53.378366 
L 221.938875 53.369536 
L 221.54411 53.360704 
L 221.149346 53.351869 
L 220.754581 53.343031 
L 220.359816 53.334191 
L 219.965051 53.325347 
L 219.570287 53.316501 
L 219.175522 53.307653 
L 218.780757 53.298802 
L 218.385992 53.289949 
L 217.991227 53.281094 
L 217.596463 53.272236 
L 217.201698 53.263377 
L 216.806933 53.254515 
L 216.412168 53.245652 
L 216.017404 53.236787 
L 215.622639 53.22792 
L 215.227874 53.219052 
L 214.833109 53.210182 
L 214.438345 53.201311 
L 214.04358 53.192438 
L 213.648815 53.183564 
L 213.25405 53.174689 
L 212.859285 53.165813 
L 212.464521 53.156936 
L 212.069756 53.148058 
L 211.674991 53.139179 
L 211.280226 53.130299 
L 210.885462 53.121419 
L 210.490697 53.112538 
L 210.095932 53.103657 
L 209.701167 53.094776 
L 209.306403 53.085894 
L 208.911638 53.077012 
L 208.516873 53.068129 
L 208.122108 53.059247 
L 207.727343 53.050365 
L 207.332579 53.041483 
L 206.937814 53.032601 
L 206.543049 53.02372 
L 206.148284 53.014839 
L 205.75352 53.005959 
L 205.358755 52.997079 
L 204.96399 52.988199 
L 204.569225 52.979321 
L 204.174461 52.970443 
L 203.779696 52.961567 
L 203.384931 52.952691 
L 202.990166 52.943817 
L 202.595401 52.934943 
L 202.200637 52.926071 
L 201.805872 52.917201 
L 201.411107 52.908332 
L 201.016342 52.899464 
L 200.621578 52.890598 
L 200.226813 52.881734 
L 199.832048 52.872872 
L 199.437283 52.864011 
L 199.042519 52.855153 
L 198.647754 52.846296 
L 198.252989 52.837442 
L 197.858224 52.82859 
L 197.463459 52.81974 
L 197.068695 52.810893 
L 196.67393 52.802049 
L 196.279165 52.793207 
L 195.8844 52.784367 
L 195.489636 52.775531 
L 195.094871 52.766697 
L 194.700106 52.757866 
L 194.305341 52.749039 
L 193.910577 52.740214 
L 193.515812 52.731393 
L 193.121047 52.722575 
L 192.726282 52.713761 
L 192.331518 52.704949 
L 191.936753 52.696142 
L 191.541988 52.687338 
L 191.147223 52.678538 
L 190.752458 52.669742 
L 190.357694 52.66095 
L 189.962929 52.652161 
L 189.568164 52.643377 
L 189.173399 52.634597 
L 188.778635 52.625821 
L 188.38387 52.61705 
L 187.989105 52.608283 
L 187.59434 52.599521 
L 187.199576 52.590763 
L 186.804811 52.58201 
L 186.410046 52.573262 
L 186.015281 52.564519 
L 185.620516 52.555781 
L 185.225752 52.547047 
L 184.830987 52.538319 
L 184.436222 52.529597 
L 184.041457 52.520879 
L 183.646693 52.512167 
L 183.251928 52.50346 
L 182.857163 52.49476 
L 182.462398 52.486064 
L 182.067634 52.477375 
L 181.672869 52.468691 
L 181.278104 52.460014 
L 180.883339 52.451342 
L 180.488574 52.442676 
L 180.09381 52.434017 
L 179.699045 52.425364 
L 179.30428 52.416718 
L 178.909515 52.408077 
L 178.514751 52.399444 
L 178.119986 52.390817 
L 177.725221 52.382197 
L 177.330456 52.373584 
L 176.935692 52.364977 
L 176.540927 52.356378 
L 176.146162 52.347785 
L 175.751397 52.3392 
L 175.356632 52.330622 
L 174.961868 52.322052 
L 174.567103 52.313489 
L 174.172338 52.304933 
L 173.777573 52.296385 
L 173.382809 52.287845 
L 172.988044 52.279313 
L 172.593279 52.270788 
L 172.198514 52.262272 
L 171.80375 52.253763 
L 171.408985 52.245263 
L 171.01422 52.236771 
L 170.619455 52.228287 
L 170.22469 52.219811 
L 169.829926 52.211344 
L 169.435161 52.202886 
L 169.040396 52.194436 
L 168.645631 52.185996 
L 168.250867 52.177563 
L 167.856102 52.16914 
L 167.461337 52.160726 
L 167.066572 52.152321 
L 166.671808 52.143926 
L 166.277043 52.135539 
L 165.882278 52.127162 
L 165.487513 52.118794 
L 165.092748 52.110436 
L 164.697984 52.102088 
L 164.303219 52.093749 
L 163.908454 52.08542 
L 163.513689 52.077101 
L 163.118925 52.068792 
L 162.72416 52.060493 
L 162.329395 52.052204 
L 161.93463 52.043926 
L 161.539866 52.035658 
L 161.145101 52.0274 
L 160.750336 52.019153 
L 160.355571 52.010916 
L 159.960807 52.00269 
L 159.566042 51.994475 
L 159.171277 51.986271 
L 158.776512 51.978077 
L 158.381747 51.969895 
L 157.986983 51.961724 
L 157.592218 51.953564 
L 157.197453 51.945415 
L 156.802688 51.937278 
L 156.407924 51.929152 
L 156.013159 51.921038 
L 155.618394 51.912936 
L 155.223629 51.904845 
L 154.828865 51.896766 
L 154.4341 51.888699 
L 154.039335 51.880644 
L 153.64457 51.872601 
L 153.249805 51.86457 
L 152.855041 51.856552 
L 152.460276 51.848546 
L 152.065511 51.840552 
L 151.670746 51.832571 
L 151.275982 51.824602 
L 150.881217 51.816646 
L 150.486452 51.808704 
L 150.091687 51.800773 
L 149.696923 51.792856 
L 149.302158 51.784952 
L 148.907393 51.777061 
L 148.512628 51.769184 
L 148.117863 51.761319 
L 147.723099 51.753468 
L 147.328334 51.745631 
L 146.933569 51.737807 
L 146.538804 51.729997 
L 146.14404 51.722201 
L 145.749275 51.714418 
L 145.35451 51.70665 
L 144.959745 51.698895 
L 144.564981 51.691155 
L 144.170216 51.683428 
L 143.775451 51.675716 
L 143.380686 51.668019 
L 142.985921 51.660336 
L 142.591157 51.652667 
L 142.196392 51.645013 
L 141.801627 51.637374 
L 141.406862 51.62975 
L 141.012098 51.62214 
L 140.617333 51.614546 
L 140.222568 51.606967 
L 139.827803 51.599403 
L 139.433039 51.591854 
L 139.038274 51.58432 
L 138.643509 51.576802 
L 138.248744 51.569299 
L 137.853979 51.561812 
L 137.459215 51.554341 
L 137.06445 51.546885 
L 136.669685 51.539446 
L 136.27492 51.532022 
L 135.880156 51.524615 
L 135.485391 51.517223 
L 135.090626 51.509848 
L 134.695861 51.502489 
L 134.301097 51.495146 
L 133.906332 51.48782 
L 133.511567 51.480511 
L 133.116802 51.473218 
L 132.722037 51.465942 
L 132.327273 51.458683 
L 131.932508 51.45144 
L 131.537743 51.444215 
L 131.142978 51.437007 
L 130.748214 51.429816 
L 130.353449 51.422642 
L 129.958684 51.415486 
L 129.563919 51.408347 
L 129.169155 51.401226 
L 128.77439 51.394122 
L 128.379625 51.387036 
L 127.98486 51.379968 
L 127.590096 51.372917 
L 127.195331 51.365885 
L 126.800566 51.358871 
L 126.405801 51.351875 
L 126.011036 51.344897 
L 125.616272 51.337937 
L 125.221507 51.330996 
L 124.826742 51.324074 
L 124.431977 51.31717 
L 124.037213 51.310284 
L 123.642448 51.303418 
L 123.247683 51.29657 
L 122.852918 51.289741 
L 122.458154 51.282932 
L 122.063389 51.276141 
L 121.668624 51.26937 
L 121.273859 51.262618 
L 120.879094 51.255885 
L 120.48433 51.249172 
L 120.089565 51.242478 
L 119.6948 51.235804 
L 119.300035 51.22915 
L 118.905271 51.222516 
L 118.510506 51.215901 
L 118.115741 51.209307 
L 117.720976 51.202732 
L 117.326212 51.196178 
L 116.931447 51.189644 
L 116.536682 51.18313 
L 116.141917 51.176637 
L 115.747152 51.170165 
L 115.352388 51.163713 
L 114.957623 51.157281 
L 114.562858 51.150871 
L 114.168093 51.144481 
L 113.773329 51.138112 
L 113.378564 51.131765 
L 112.983799 51.125438 
L 112.589034 51.119133 
L 112.19427 51.112849 
L 111.799505 51.106587 
L 111.40474 51.100346 
L 111.009975 51.094126 
L 110.61521 51.087928 
L 110.220446 51.081752 
L 109.825681 51.075598 
L 109.430916 51.069466 
L 109.036151 51.063356 
L 108.641387 51.057268 
L 108.246622 51.051202 
L 107.851857 51.045158 
L 107.457092 51.039137 
L 107.062328 51.033138 
L 106.667563 51.027162 
L 106.272798 51.021208 
L 105.878033 51.015277 
L 105.483268 51.009369 
L 105.088504 51.003484 
L 104.693739 50.997622 
L 104.298974 50.991783 
L 103.904209 50.985967 
L 103.509445 50.980174 
L 103.11468 50.974405 
L 102.719915 50.968659 
L 102.32515 50.962936 
L 101.930386 50.957238 
L 101.535621 50.951562 
L 101.140856 50.945911 
L 100.746091 50.940284 
L 100.351326 50.93468 
L 99.956562 50.929101 
L 99.561797 50.923545 
L 99.167032 50.918014 
L 98.772267 50.912507 
L 98.377503 50.907025 
L 97.982738 50.901567 
L 97.587973 50.896133 
L 97.193208 50.890725 
L 96.798444 50.885341 
L 96.403679 50.879982 
L 96.008914 50.874647 
L 95.614149 50.869338 
L 95.219385 50.864054 
L 94.82462 50.858795 
L 94.429855 50.853561 
L 94.03509 50.848353 
L 93.640325 50.84317 
L 93.245561 50.838013 
L 92.850796 50.832881 
L 92.456031 50.827775 
L 92.061266 50.822695 
L 91.666502 50.817641 
L 91.271737 50.812612 
L 90.876972 50.80761 
L 90.482207 50.802634 
L 90.087443 50.797684 
L 89.692678 50.79276 
L 89.297913 50.787863 
L 88.903148 50.782992 
L 88.508383 50.778148 
L 88.113619 50.773331 
L 87.718854 50.76854 
L 87.324089 50.763777 
L 86.929324 50.75904 
L 86.53456 50.75433 
L 86.139795 50.749647 
L 85.74503 50.744992 
L 85.350265 50.740364 
L 84.955501 50.735763 
L 84.560736 50.731189 
L 84.165971 50.726644 
L 83.771206 50.722125 
L 83.376441 50.717635 
L 82.981677 50.713172 
L 82.586912 50.708738 
L 82.192147 50.704331 
L 81.797382 50.699952 
L 81.402618 50.695602 
L 81.007853 50.69128 
L 80.613088 50.686986 
L 80.218323 50.68272 
L 79.823559 50.678483 
L 79.428794 50.674275 
L 79.034029 50.670095 
L 78.639264 50.665945 
L 78.244499 50.661823 
L 77.849735 50.65773 
L 77.45497 50.653666 
L 77.060205 50.649631 
L 76.66544 50.645625 
L 76.270676 50.641649 
L 75.875911 50.637702 
L 75.481146 50.633785 
L 75.086381 50.629897 
L 74.691617 50.626039 
L 74.296852 50.62221 
L 73.902087 50.618412 
L 73.507322 50.614643 
L 73.112557 50.610905 
L 72.717793 50.607196 
L 72.323028 50.603518 
L 71.928263 50.59987 
L 71.533498 50.596252 
L 71.138734 50.592665 
L 70.743969 50.589108 
L 70.349204 50.585582 
L 69.954439 50.582087 
L 69.559675 50.578622 
L 69.16491 50.575188 
L 68.770145 50.571786 
L 68.37538 50.568414 
L 67.980615 50.565074 
L 67.585851 50.561765 
L 67.191086 50.558487 
L 66.796321 50.55524 
L 66.401556 50.552025 
L 66.006792 50.548842 
L 65.612027 50.54569 
L 65.217262 50.54257 
L 64.822497 50.539482 
L 64.427733 50.536426 
L 64.032968 50.533402 
L 63.638203 50.53041 
L 63.243438 50.52745 
L 62.848674 50.524523 
L 62.453909 50.521628 
L 62.059144 50.518765 
L 61.664379 50.515935 
L 61.269614 50.513138 
L 60.87485 50.510373 
L 60.480085 50.507641 
L 60.08532 50.504942 
L 59.690555 50.502277 
L 59.295791 50.499644 
L 58.901026 50.497044 
L 58.506261 50.494478 
L 58.111496 50.491945 
L 57.716732 50.489445 
L 57.321967 50.486979 
L 56.927202 50.484547 
L 56.532437 50.482148 
L 56.137672 50.479783 
L 55.742908 50.477452 
L 55.348143 50.475155 
L 54.953378 50.472892 
L 54.558613 50.470663 
L 54.163849 50.468468 
L 53.769084 50.466308 
L 53.374319 50.464182 
L 52.979554 50.46209 
L 52.58479 50.460033 
L 52.190025 50.458011 
L 51.79526 50.456024 
L 51.400495 50.454071 
L 51.00573 50.452153 
L 50.610966 50.45027 
L 50.216201 50.448423 
L 49.821436 50.446611 
L 49.426671 50.444833 
L 49.031907 50.443092 
L 48.637142 50.441385 
L 48.242377 50.439715 
L 47.847612 50.43808 
L 47.452848 50.43648 
L 47.058083 50.434917 
L 46.663318 50.433389 
L 46.268553 50.431897 
L 45.873788 50.430442 
L 45.479024 50.429022 
L 45.084259 50.427639 
L 44.689494 50.426292 
L 44.294729 50.424982 
L 43.899965 50.423708 
L 43.5052 50.422471 
L 43.110435 50.42127 
L 42.71567 50.420106 
L 42.320906 50.418979 
L 41.926141 50.417889 
L 41.531376 50.416836 
L 41.136611 50.41582 
L 40.741846 50.414842 
L 40.347082 50.4139 
L 39.952317 50.412996 
L 39.557552 50.41213 
L 39.162787 50.411301 
L 38.768023 50.41051 
L 38.373258 50.409756 
L 37.978493 50.40904 
L 37.583728 50.408363 
L 37.188964 50.407723 
L 36.794199 50.407121 
L 36.399434 50.406558 
L 36.004669 50.406033 
L 35.609904 50.405546 
L 35.21514 50.405097 
L 34.820375 50.404687 
L 34.42561 50.404316 
L 34.030845 50.403984 
L 33.636081 50.40369 
L 33.241316 50.403435 
L 32.846551 50.403219 
L 32.451786 50.403042 
L 32.057022 50.402904 
L 31.662257 50.402806 
L 31.267492 50.402747 
L 30.872727 50.402727 
z
" clip-path="url(#pde4548a8f5)" style="fill: #e6f2ff"/>
   </g>
   <g id="line2d_1">
    <path d="M 30.872727 91.83 
L 61.269614 91.719589 
L 95.219385 91.368673 
L 134.695861 90.730238 
L 187.59434 89.633206 
L 292.207004 87.421528 
L 332.078245 86.834382 
L 366.028016 86.552117 
L 394.845844 86.525324 
L 415.768376 86.736693 
L 438.664733 87.19419 
L 464.324443 87.935909 
L 494.72133 89.047121 
L 538.540219 90.898175 
L 598.939229 93.424075 
L 629.336116 94.4614 
L 654.601061 95.106597 
L 677.102653 95.465025 
L 697.630421 95.578181 
L 697.630421 95.578181 
" clip-path="url(#pde4548a8f5)" style="fill: none; stroke: #0a3d91; stroke-width: 2; stroke-linecap: square"/>
   </g>
   <g id="line2d_2">
    <path d="M 697.654545 95.578182 
L 701.759309 95.468526 
L 705.827272 95.140543 
L 709.821962 94.597173 
L 713.707567 93.843287 
L 717.449249 92.885644 
L 721.013463 91.73283 
L 724.368254 90.395181 
L 727.483545 88.884688 
L 729.876449 87.503638 
L 732.068694 86.020537 
L 734.046628 84.444622 
L 735.797932 82.785706 
L 737.311702 81.05412 
L 738.57851 79.260648 
L 739.590468 77.416458 
L 740.341272 75.533034 
L 740.826249 73.622106 
L 741.042378 71.695574 
L 740.988312 69.765434 
L 740.664388 67.843708 
L 740.072625 65.942361 
L 739.216706 64.073236 
L 738.101962 62.247971 
L 736.735335 60.477933 
L 735.125336 58.774145 
L 733.281991 57.147217 
L 731.216778 55.607281 
L 728.942559 54.163926 
L 726.473497 52.826142 
L 723.275158 51.371833 
L 719.847119 50.094543 
L 716.220114 49.005722 
L 712.42666 48.115133 
L 708.500768 47.43076 
L 704.477635 46.958739 
L 700.39333 46.703301 
L 697.654545 46.654545 
L 697.654545 46.654545 
" clip-path="url(#pde4548a8f5)" style="fill: none; stroke: #0a3d91; stroke-width: 2; stroke-linecap: square"/>
   </g>
   <g id="line2d_3">
    <path d="M 30.872727 50.402727 
L 61.269614 50.513138 
L 95.219385 50.864054 
L 134.695861 51.502489 
L 187.59434 52.599521 
L 292.207004 54.811199 
L 332.078245 55.398345 
L 366.028016 55.68061 
L 394.845844 55.707403 
L 415.768376 55.496034 
L 438.664733 55.038537 
L 464.324443 54.296818 
L 494.72133 53.185606 
L 538.540219 51.334552 
L 598.939229 48.808652 
L 629.336116 47.771327 
L 654.601061 47.12613 
L 677.102653 46.767702 
L 697.630421 46.654545 
L 697.630421 46.654545 
" clip-path="url(#pde4548a8f5)" style="fill: none; stroke: #0a3d91; stroke-width: 2; stroke-linecap: square"/>
   </g>
   <g id="line2d_4">
    <path d="M 30.872727 91.83 
L 30.872727 50.402727 
" clip-path="url(#pde4548a8f5)" style="fill: none; stroke: #0a3d91; stroke-width: 2; stroke-linecap: square"/>
   </g>
   <g id="patch_3">
    <path d="M 62.436364 90.593192 
Q 62.436364 71.116363 62.436364 51.639535 
" style="fill: none; stroke: #000000; stroke-linecap: round"/>
    <path d="M 64.436364 86.593192 
L 62.436364 90.593192 
L 60.436364 86.593192 
" style="fill: none; stroke: #000000; stroke-linecap: round"/>
    <path d="M 60.436364 55.639535 
L 62.436364 51.639535 
L 64.436364 55.639535 
" style="fill: none; stroke: #000000; stroke-linecap: round"/>
   </g>
   <g id="patch_4">
    <path d="M 385.963636 85.38561 
Q 385.963636 71.116363 385.963636 56.847117 
" style="fill: none; stroke: #000000; stroke-linecap: round"/>
    <path d="M 387.963636 81.38561 
L 385.963636 85.38561 
L 383.963636 81.38561 
" style="fill: none; stroke: #000000; stroke-linecap: round"/>
    <path d="M 383.963636 60.847117 
L 385.963636 56.847117 
L 387.963636 60.847117 
" style="fill: none; stroke: #000000; stroke-linecap: round"/>
   </g>
   <g id="patch_5">
    <path d="M 709.490909 94.460148 
Q 709.490909 71.116363 709.490909 47.772579 
" style="fill: none; stroke: #000000; stroke-linecap: round"/>
    <path d="M 711.490909 90.460148 
L 709.490909 94.460148 
L 707.490909 90.460148 
" style="fill: none; stroke: #000000; stroke-linecap: round"/>
    <path d="M 707.490909 51.772579 
L 709.490909 47.772579 
L 711.490909 51.772579 
" style="fill: none; stroke: #000000; stroke-linecap: round"/>
   </g>
   <g id="patch_6">
    <path d="M 31.990761 127.141818 
Q 385.963636 127.141818 739.936511 127.141818 
" style="fill: none; stroke: #000000; stroke-linecap: round"/>
    <path d="M 35.990761 129.141818 
L 31.990761 127.141818 
L 35.990761 125.141818 
" style="fill: none; stroke: #000000; stroke-linecap: round"/>
    <path d="M 735.936511 125.141818 
L 739.936511 127.141818 
L 735.936511 129.141818 
" style="fill: none; stroke: #000000; stroke-linecap: round"/>
   </g>
  </g>
 </g>
 <defs>
  <clipPath id="pde4548a8f5">
   <rect x="7.2" y="7.2" width="781.2" height="175.178182"/>
  </clipPath>
 </defs>
</svg>
